<?xml version="1.0" encoding="utf-8"?>
<!-- Generator: Adobe Illustrator 24.0.3, SVG Export Plug-In . SVG Version: 6.00 Build 0)  -->
<svg version="1.1" id="Layer_24" xmlns="http://www.w3.org/2000/svg" xmlns:xlink="http://www.w3.org/1999/xlink" x="0px" y="0px"
	 viewBox="0 0 512 512" style="enable-background:new 0 0 512 512;" xml:space="preserve">
<style type="text/css">
	.st0{fill-rule:evenodd;clip-rule:evenodd;fill:#EDEDED;}
	.st1{fill-rule:evenodd;clip-rule:evenodd;fill:#B5B3B3;}
	.st2{fill-rule:evenodd;clip-rule:evenodd;fill:#FFFFFF;}
	.st3{fill-rule:evenodd;clip-rule:evenodd;fill:#2E324F;stroke:#2E324F;stroke-width:5;stroke-miterlimit:10;}
	.st4{fill-rule:evenodd;clip-rule:evenodd;fill:#2E324F;}
	.st5{fill:none;stroke:#2E324F;stroke-width:5;stroke-miterlimit:10;}
	.st6{fill:none;stroke:#CF4D52;stroke-width:5;stroke-linecap:round;stroke-linejoin:round;stroke-miterlimit:10;}
	.st7{fill:none;stroke:#E8C94F;stroke-width:5;stroke-linecap:round;stroke-linejoin:round;stroke-miterlimit:10;}
	.st8{fill-rule:evenodd;clip-rule:evenodd;fill:#BF97CC;}
	.st9{fill:#41B536;}
</style>
<g>
	<path class="st0" d="M256.08,413.1c86.42,0,157.02-70.6,157.02-157.01c0-86.58-70.6-157.19-157.02-157.19
		c-86.57,0-157.18,70.61-157.18,157.19C98.9,342.5,169.51,413.1,256.08,413.1L256.08,413.1z"/>
	<path class="st1" d="M256.08,346.58c49.73,0,90.49-40.76,90.49-90.49c0-49.89-40.76-90.66-90.49-90.66
		c-49.9,0-90.49,40.76-90.49,90.66C165.59,305.81,206.18,346.58,256.08,346.58L256.08,346.58z"/>
	<path class="st2" d="M254.77,165.59c46.64,3.58,83.32,42.56,83.32,90.17c0,49.57-39.78,89.84-89.35,90.49
		c-46.63-3.75-83.31-42.72-83.31-90.16C165.43,206.35,205.37,166.08,254.77,165.59L254.77,165.59z"/>
	<polygon class="st3" points="256.08,222.33 270.59,230.8 285.1,239.29 285.1,256.08 285.1,272.87 270.59,281.19 256.08,289.67 
		241.4,281.19 226.9,272.87 226.9,256.08 226.9,239.29 241.4,230.8 	"/>
	<path class="st3" d="M342.5,277.44l1.3,0.81c-4.89,19.08-15.66,35.71-30.49,47.77v-14.83v-16.96l14.67-8.31L342.5,277.44z"/>
	<path class="st3" d="M167.22,272.55l14.68,8.48l14.51,8.31v16.79v16.79l-0.81,0.49c-14.52-13.04-24.78-30.65-28.54-50.71
		L167.22,272.55z"/>
	<path class="st3" d="M193.63,190.53l0.48,0.33v16.79v16.8l-14.51,8.32l-12.72,7.34C170.31,220.7,179.94,203.58,193.63,190.53
		L193.63,190.53z"/>
	<path class="st3" d="M343.96,234.56l-2.44,1.3l-14.51-8.48l-14.51-8.32v-16.79v-16.8l0.16-0.16
		C327.82,197.71,339.07,214.83,343.96,234.56L343.96,234.56z"/>
	<path class="st3" d="M282.82,169.5l-14.02,8.16l-14.51,8.48l-14.67-8.48l-12.72-7.34c9.13-3.1,18.91-4.89,29.19-4.89
		C265.37,165.42,274.34,166.89,282.82,169.5L282.82,169.5z"/>
	<path class="st3" d="M258.2,326.35l14.67,8.32l12.07,7.17c-9.13,2.93-18.75,4.73-28.86,4.73c-9.13,0-17.94-1.47-26.09-3.92
		l13.69-7.99L258.2,326.35z"/>
	<polygon class="st4" points="253.14,180.91 256.41,180.91 259.99,331.57 256.57,331.57 	"/>
	<polygon class="st4" points="321.62,212.22 323.26,215.15 191.35,294.07 189.88,291.13 	"/>
	<polygon class="st4" points="320.65,295.54 318.69,298.31 192.33,223.96 194.29,221.19 	"/>
	<path class="st5" d="M256.08,346.58c49.73,0,90.49-40.76,90.49-90.49c0-49.89-40.76-90.66-90.49-90.66
		c-49.9,0-90.49,40.76-90.49,90.66C165.59,305.81,206.18,346.58,256.08,346.58L256.08,346.58z"/>
	<polygon class="st6" points="180.08,157.21 183.34,167.31 193.94,167.31 185.3,173.52 188.72,183.63 180.08,177.43 171.43,183.63 
		174.86,173.52 166.22,167.31 176.82,167.31 	"/>
	<polygon class="st7" points="332.21,340.31 335.46,350.42 346.06,350.42 337.42,356.78 340.68,366.73 332.21,360.53 323.57,366.73 
		326.82,356.78 318.35,350.42 328.94,350.42 	"/>
	<path class="st8" d="M160.02,335.58c5.06,0,9.13-4.07,9.13-8.96c0-4.89-4.08-8.97-9.13-8.97c-4.89,0-8.96,4.08-8.96,8.97
		C151.06,331.51,155.13,335.58,160.02,335.58L160.02,335.58z"/>
	<path class="st9" d="M300.9,157.59c-1.38,0-2.5-1.12-2.5-2.5V136.5c0-1.38,1.12-2.5,2.5-2.5c1.38,0,2.5,1.12,2.5,2.5v18.59
		C303.4,156.47,302.28,157.59,300.9,157.59z"/>
	<path class="st9" d="M310.19,148.29H291.6c-1.38,0-2.5-1.12-2.5-2.5s1.12-2.5,2.5-2.5h18.59c1.38,0,2.5,1.12,2.5,2.5
		S311.57,148.29,310.19,148.29z"/>
</g>
</svg>
