<?xml version="1.0" encoding="UTF-8"?>
<svg version="1.1" xmlns="http://www.w3.org/2000/svg" width="512" height="512">
<path d="M0 0 C168.96 0 337.92 0 512 0 C512 168.96 512 337.92 512 512 C343.04 512 174.08 512 0 512 C0 343.04 0 174.08 0 0 Z " fill="#474D53" transform="translate(0,0)"/>
<path d="M0 0 C78.21 0 156.42 0 237 0 C237 0.33 237 0.66 237 1 C236.18023682 1.10022461 235.36047363 1.20044922 234.51586914 1.30371094 C213.8413989 3.86173615 194.40282888 7.42716771 174.5625 13.9375 C173.91506836 14.14860413 173.26763672 14.35970825 172.60058594 14.57720947 C159.33452075 18.49845965 159.33452075 18.49845965 148 26 C148.04125 27.175625 148.0825 28.35125 148.125 29.5625 C147.81193674 33.05730825 147.01799646 33.98292643 144.41015625 36.45703125 C135.78820655 43.1583821 135.78820655 43.1583821 131 45 C129.865625 44.79375 128.73125 44.5875 127.5625 44.375 C124.02035379 43.62302068 124.02035379 43.62302068 121.578125 45.58203125 C118.72389493 48.25895309 116.42241514 51.12135695 114.1875 54.3125 C113.75735596 54.92569092 113.32721191 55.53888184 112.8840332 56.1706543 C104.70094754 68.07868418 99.39291302 79.95660601 96 94 C95.75378906 94.95648438 95.50757812 95.91296875 95.25390625 96.8984375 C89.75760427 122.75000956 96.3137445 150.72035457 100.80273438 176.26293945 C102.21803585 184.32688809 103.53872364 192.38368567 104.625 200.5 C108.82683613 231.13068864 118.37232372 262.52029429 142 284 C142.78375 284.804375 143.5675 285.60875 144.375 286.4375 C153.42217308 295.2692642 163.16301378 301.96288557 174 308.37109375 C183.39423867 313.98096098 191.3301921 320.19456576 199 328 C199.73605469 328.73734375 200.47210938 329.4746875 201.23046875 330.234375 C210.0292299 339.57757047 219.47467353 352.53545285 223 365 C221.82000497 368.55260535 219.34964032 371.11979574 217 374 C215.31713985 377.3657203 215.8559166 381.17545874 215.8581543 384.87744141 C215.85467987 385.79812912 215.85120544 386.71881683 215.84762573 387.66740417 C215.84025867 389.67373675 215.83491837 391.68007754 215.83133507 393.68642044 C215.82416581 396.87510998 215.80849034 400.06364597 215.78999329 403.25228882 C215.73758391 412.32148985 215.68966734 421.39061215 215.67407227 430.45996094 C215.66391009 436.00621263 215.63436694 441.55208544 215.59275246 447.09818649 C215.58054105 449.20057667 215.57530291 451.30302066 215.57755089 453.4054451 C215.58658025 464.61937407 215.14787093 474.81990809 211.90364075 485.60263062 C210.09278505 492.41080712 209.72107788 499.1470199 212.625 505.625 C215.22598749 508.22598749 217.60778233 509.61227459 221 511 C221 511.33 221 511.66 221 512 C148.07 512 75.14 512 0 512 C0 343.04 0 174.08 0 0 Z " fill="#FEFEFE" transform="translate(0,0)"/>
<path d="M0 0 C78.54 0 157.08 0 238 0 C238 168.96 238 337.92 238 512 C165.07 512 92.14 512 17 512 C18.32 511.01 19.64 510.02 21 509 C25.52446822 504.96809599 25.52446822 504.96809599 27.23828125 499.453125 C27.37637023 493.4934955 27.03544885 488.59947923 25.00976562 482.97265625 C22.29668218 473.83543475 22.46169431 464.83873517 22.5141449 455.36877441 C22.53159767 452.12283927 22.52379931 448.87777953 22.5098877 445.63183594 C22.48472395 438.7544953 22.49003367 431.87736783 22.5 425 C22.51154658 416.99655259 22.51039622 408.99353583 22.47593689 400.99014282 C22.46885672 397.79811249 22.48549254 394.60677078 22.50305176 391.41479492 C22.49734527 389.45881785 22.49052866 387.5028436 22.48242188 385.546875 C22.49373642 384.66471817 22.50505096 383.78256134 22.51670837 382.87367249 C22.4608351 377.23275519 21.46398195 374.44605529 18 370 C18 369.34 18 368.68 18 368 C17.01 367.67 16.02 367.34 15 367 C18.72900693 354.05815241 25.68871987 343.44035569 34 333 C34.46277344 332.39414062 34.92554688 331.78828125 35.40234375 331.1640625 C38.77161912 326.87589385 42.83972919 323.48301742 47 320 C47.64839844 319.41734375 48.29679687 318.8346875 48.96484375 318.234375 C54.84004608 313.17723882 61.23962046 309.43070483 67.9375 305.5625 C75.94455003 300.91725927 83.23719949 296.37121425 90 290 C90.50257324 289.5369043 91.00514648 289.07380859 91.52294922 288.59667969 C111.59181883 269.98922312 124.49173304 246.94124668 129.98339844 220.10961914 C130.23846476 218.87810544 130.23846476 218.87810544 130.49868393 217.62171268 C132.25825666 208.97348484 133.67619693 200.28027978 135.015625 191.55859375 C135.20870869 190.30950068 135.20870869 190.30950068 135.40569305 189.03517342 C136.08619594 184.62943426 136.76022071 180.22276274 137.42871094 175.81518555 C137.97192854 172.24070663 138.52690167 168.66837369 139.09277344 165.09741211 C145.10817332 127.09196192 149.13309893 90.48897897 126 57 C100.61409273 23.14005235 60.97575007 9.61216553 20.41943359 3.45654297 C13.62679942 2.51111344 6.82228855 1.6988963 0 1 C0 0.67 0 0.34 0 0 Z " fill="#FEFEFE" transform="translate(274,0)"/>
<path d="M0 0 C1.10601562 0.19867676 2.21203125 0.39735352 3.3515625 0.60205078 C30.8403009 5.68761976 60.27810016 13.51052573 82 32 C82.845625 32.69609375 83.69125 33.3921875 84.5625 34.109375 C104.1208659 50.8562258 118.41230444 75.08661407 121 101 C121.98324648 118.74782201 120.21250955 135.82480358 117.375 153.3125 C117.00590993 155.67188565 116.63833643 158.03150901 116.2722168 160.39135742 C115.54186199 165.07657177 114.79989731 169.75970451 114.04736328 174.44140625 C113.24164401 179.46135463 112.46243614 184.48457126 111.70355225 189.51179504 C111.19895159 192.85043681 110.68403115 196.18742381 110.16607666 199.52401733 C109.93607717 201.01266153 109.70899085 202.50175973 109.48529053 203.99136353 C104.13477874 239.3738962 88.55692463 271.2846218 59.85546875 293.5234375 C55.11657489 296.89358795 50.22819918 299.88080754 45.19921875 302.7890625 C34.59022425 308.94380694 25.57768443 315.21838845 17 324 C16.13890625 324.84820312 15.2778125 325.69640625 14.390625 326.5703125 C6.34433688 334.74807592 -8 351.77178004 -8 364 C-7.21625 364.78375 -6.4325 365.5675 -5.625 366.375 C-2.19250303 369.80749697 -0.75074513 372.28681898 -0.7484436 377.14523315 C-0.74036934 378.37263466 -0.74036934 378.37263466 -0.73213196 379.62483215 C-0.73625595 380.51417953 -0.74037994 381.40352692 -0.74462891 382.31982422 C-0.73919823 383.73537346 -0.73919823 383.73537346 -0.73365784 385.17951965 C-0.72676496 387.22947091 -0.7242582 389.27944052 -0.72560501 391.32940292 C-0.72657149 394.5849719 -0.71360983 397.84021176 -0.69662476 401.09573364 C-0.65041362 410.35253282 -0.62578384 419.60930042 -0.61914062 428.86621094 C-0.614095 434.53144366 -0.58968285 440.19633677 -0.55381393 445.86145401 C-0.54407833 448.01016312 -0.54164952 450.15891935 -0.54698563 452.30764389 C-0.57241252 463.05905995 -0.54725482 472.83441483 3.08901978 483.06448364 C4.89131219 488.87213866 5.40495699 495.53842512 3.08203125 501.26171875 C0.4314664 505.35336741 -2.51155713 507.05871834 -7 509 C-10.32516479 509.39440918 -10.32516479 509.39440918 -13.97998047 509.41992188 C-14.65075623 509.42839142 -15.32153198 509.43686096 -16.01263428 509.44558716 C-18.21434873 509.46884925 -20.41535982 509.46998191 -22.6171875 509.46875 C-24.15886713 509.47585862 -25.70054414 509.48355863 -27.24221802 509.49182129 C-30.46835692 509.50524164 -33.69425122 509.50684619 -36.92041016 509.50097656 C-41.03848384 509.49508547 -45.1553765 509.52565737 -49.27322197 509.56609344 C-52.45616897 509.59204559 -55.63883451 509.59484108 -58.82187271 509.59120178 C-60.33922414 509.59288632 -61.85658952 509.60246433 -63.37383652 509.62034607 C-78.89856195 509.78318052 -78.89856195 509.78318052 -85 504 C-89.38248821 498.55877206 -88.59491069 492.64934654 -88 486 C-87.37654126 483.64214289 -86.70733741 481.29608291 -86.00195312 478.96142578 C-83.44103505 469.53187787 -83.45890607 460.24220442 -83.5141449 450.52770615 C-83.53165013 447.35721664 -83.52377266 444.18761916 -83.5098877 441.01712036 C-83.48477281 434.3030164 -83.49002715 427.58913166 -83.5 420.875 C-83.51155305 413.05246856 -83.51039669 405.23037754 -83.47593689 397.40790176 C-83.46886127 394.29120149 -83.48548382 391.17520759 -83.50305176 388.05856323 C-83.49734558 386.14955262 -83.49052913 384.24054489 -83.48242188 382.33154297 C-83.49939369 381.04107307 -83.49939369 381.04107307 -83.51670837 379.72453308 C-83.45217294 373.36557521 -81.64312116 369.83191553 -77.25 365.125 C-76.8375 364.75375 -76.425 364.3825 -76 364 C-83.69301461 336.11282203 -106.62109772 316.3470782 -130.59082031 302.25610352 C-159.04963647 285.42429977 -180.17740128 257.74340363 -189.1875 225.875 C-192.65291018 211.77640817 -194.88547797 197.40314319 -196.85571289 183.0300293 C-197.63310715 177.40320047 -198.51985939 171.80480465 -199.48144531 166.20654297 C-206.41693403 125.82789257 -210.31578687 87.22020651 -185.63330078 52.05273438 C-184.2553734 50.18497265 -182.83452242 48.36704172 -181.375 46.5625 C-180.94421143 46.01247314 -180.51342285 45.46244629 -180.06958008 44.89575195 C-177.61684472 42.02537245 -176.03198181 41.0085262 -172.3515625 40.02734375 C-169 40 -169 40 -166 42 C-164 45 -164 45 -163.75 48.3125 C-165.17896241 52.5279391 -167.05816804 54.56466811 -170.078125 57.734375 C-173.45174452 61.71140614 -175.67091182 66.35888655 -178 71 C-178.66 71 -179.32 71 -180 71 C-180.10441406 71.67675781 -180.20882812 72.35351562 -180.31640625 73.05078125 C-181.28933791 77.2482864 -183.02758386 81.09535706 -184.74023438 85.03320312 C-194.73223099 108.95944812 -188.26342908 137.6741303 -184.07568359 162.32275391 C-183.42532053 166.1799386 -182.80081382 170.04130309 -182.17382812 173.90234375 C-181.11138121 180.42538725 -180.02687145 186.94443986 -178.92794609 193.4614296 C-178.29603338 197.21499499 -177.67887501 200.97042889 -177.08056641 204.72949219 C-175.77028769 212.93078854 -174.21603414 220.98455736 -172 229 C-170.58521362 228.97643433 -170.58521362 228.97643433 -169.1418457 228.95239258 C-165.62876852 228.90113993 -162.11609102 228.86359009 -158.6027832 228.83520508 C-157.08481562 228.82015647 -155.56689124 228.79971262 -154.04907227 228.77368164 C-151.86203323 228.73712347 -149.67557104 228.72023477 -147.48828125 228.70703125 C-145.51661987 228.68346558 -145.51661987 228.68346558 -143.50512695 228.65942383 C-139.80198901 229.01923977 -137.91945577 229.73849827 -135 232 C-134.17015067 234.70792941 -134.45751138 237.23561651 -135 240 C-136.54338091 242.17476401 -137.63665273 242.81832637 -140 244 C-141.8863912 244.084915 -143.77578515 244.107193 -145.6640625 244.09765625 C-146.78554687 244.09443359 -147.90703125 244.09121094 -149.0625 244.08789062 C-150.238125 244.07951172 -151.41375 244.07113281 -152.625 244.0625 C-153.80835938 244.05798828 -154.99171875 244.05347656 -156.2109375 244.04882812 C-159.14067507 244.03701467 -162.07031272 244.02054258 -165 244 C-152.28716371 265.70629075 -137.03877585 280.81983558 -115.02880859 293.05395508 C-109.52026794 296.16610315 -104.75567671 299.84959124 -100 304 C-99.16855469 304.721875 -98.33710938 305.44375 -97.48046875 306.1875 C-94.95305382 308.4237381 -92.47416388 310.70512336 -90 313 C-89.27167969 313.639375 -88.54335937 314.27875 -87.79296875 314.9375 C-75.40878096 326.36219216 -65.59570336 343.16484714 -60 359 C-60 359.99 -60 360.98 -60 362 C-48.12 362 -36.24 362 -24 362 C-23.67 360.35 -23.34 358.7 -23 357 C-13.07974467 326.42057216 11.82843859 302.98589558 39.3125 287.875 C45.85239031 284.22275706 51.44731055 280.01506142 57 275 C57.84175781 274.24074219 58.68351562 273.48148437 59.55078125 272.69921875 C67.34348779 265.29432964 73.7626006 256.71299922 79.07583618 247.37992859 C79.71081024 246.26455215 80.3457843 245.14917572 81 244 C79.53036914 244.00691345 79.53036914 244.00691345 78.03104877 244.01396656 C54.20380193 244.12490915 30.37658854 244.20710245 6.54913807 244.25906086 C-4.97360088 244.28485472 -16.49616931 244.320028 -28.01879883 244.37719727 C-38.06062139 244.42699584 -48.10232048 244.45928241 -58.14426309 244.47044247 C-63.46264033 244.4769672 -68.78066431 244.49232696 -74.09892845 244.52865028 C-79.10334603 244.56255358 -84.10726438 244.57306436 -89.11178589 244.56553841 C-90.94964116 244.56691548 -92.78751288 244.57688168 -94.62526894 244.59602737 C-97.1333375 244.62087764 -99.63951724 244.61493561 -102.14762878 244.60127258 C-103.24053916 244.62311889 -103.24053916 244.62311889 -104.35552853 244.64540654 C-108.21431716 244.58851909 -109.89803288 244.07889462 -112.98686695 241.68898296 C-115 239 -115 239 -115.0625 235.375 C-113.8632488 231.56561383 -113.43446111 230.85113947 -110 229 C-107.25632899 228.71744236 -104.74368739 228.60766227 -102.00213623 228.63923645 C-101.19017516 228.63667318 -100.3782141 228.6341099 -99.54164815 228.63146895 C-96.81760326 228.62652274 -94.09411112 228.64303767 -91.37011719 228.65942383 C-89.4188132 228.66026992 -87.46750826 228.65979531 -85.51620483 228.65809631 C-80.21487449 228.65723424 -74.91374706 228.67489444 -69.61246395 228.69581819 C-64.07378602 228.71454956 -58.53510364 228.71633263 -52.99639893 228.71989441 C-42.50627767 228.72922528 -32.01625002 228.75385319 -21.52617002 228.78394288 C-9.58435874 228.81745445 2.35745696 228.83396474 14.29930353 228.84902918 C38.86625428 228.88040181 63.4331219 228.93318259 88 229 C91.13231826 216.97888488 91.13231826 216.97888488 93.43212891 204.78051758 C93.5891201 203.75495003 93.5891201 203.75495003 93.74928284 202.70866394 C94.08228772 200.52164061 94.40458773 198.33320278 94.7265625 196.14453125 C94.96199814 194.58418188 95.1981282 193.02393716 95.43490601 191.46379089 C96.04915129 187.40440865 96.65427778 183.34372176 97.25726318 179.28265381 C97.86913032 175.17263307 98.48956725 171.06390753 99.109375 166.95507812 C99.80843478 162.31709665 100.50664356 157.67899824 101.19888306 153.03999329 C101.30377831 152.33711465 101.40867357 151.63423601 101.51674747 150.91005802 C101.72081975 149.54123012 101.92455554 148.17235201 102.12792873 146.80342007 C102.92104772 141.47966607 103.76002923 136.16375225 104.61964417 130.85035706 C105.27404801 125.94630554 105.34021347 121.06614862 105.3125 116.125 C105.30831055 115.08633789 105.30412109 114.04767578 105.29980469 112.97753906 C105.17826583 104.65859228 104.25164811 97.04021985 102 89 C101.70996094 87.948125 101.41992188 86.89625 101.12109375 85.8125 C94.91790598 65.46396774 81.36396358 49.78268957 64 38 C63.29875 37.5153125 62.5975 37.030625 61.875 36.53125 C56.85756565 33.21326922 51.63309558 31.06251137 46 29 C44.83210937 28.54753906 43.66421875 28.09507813 42.4609375 27.62890625 C-13.97292807 6.26661661 -78.45969961 8.02081955 -134.12890625 30.703125 C-137.1107647 31.95611754 -137.1107647 31.95611754 -140 34 C-142.875 34.4375 -142.875 34.4375 -146 34 C-149.27171287 31.58177744 -150.7241936 29.99714622 -151.8125 26.0625 C-150.54502794 21.28510531 -147.10286305 19.50944725 -143 17 C-139.23029851 15.23674689 -135.37207069 13.84914422 -131.4375 12.5 C-130.34050781 12.11690674 -129.24351562 11.73381348 -128.11328125 11.33911133 C-109.071929 4.82100476 -89.92794981 0.70901024 -70 -2 C-69.30495361 -2.1045752 -68.60990723 -2.20915039 -67.89379883 -2.31689453 C-45.96336418 -5.27624588 -21.66936306 -3.94600803 0 0 Z " fill="#030303" transform="translate(298,3)"/>
<path d="M0 0 C6.27 0 12.54 0 19 0 C19.99 1.98 20.98 3.96 22 6 C25.02835388 7.51417694 28.16886868 7.15381069 31.49160767 7.15821838 C32.27327502 7.16315636 33.05494237 7.16809434 33.86029661 7.17318195 C36.49361349 7.18860579 39.1269059 7.19693075 41.76025391 7.20532227 C43.64230059 7.21489695 45.5243451 7.22490679 47.40638733 7.23532104 C52.52799255 7.26242054 57.64960703 7.28340274 62.77124453 7.30332303 C68.11910991 7.32515153 73.46694658 7.35255553 78.81478882 7.37937927 C88.94721477 7.42934866 99.07965662 7.4742717 109.21211374 7.51740164 C120.74521236 7.56673778 132.27828218 7.62166932 143.81135297 7.67708123 C167.54087512 7.79096644 191.27042489 7.89779119 215 8 C207.51971441 27.12026216 190.26576667 42.70071559 173 53 C143.61933059 70.59212921 120.97540992 93.07377023 110 126 C98.12 126 86.24 126 74 126 C71.69 120.72 69.38 115.44 67 110 C54.8826866 85.7653732 36.55387536 68.07525906 13.23608398 54.67211914 C-5.33911183 43.92976141 -20.58947018 28.83178643 -31 10 C-31 9.34 -31 8.68 -31 8 C-30.26362305 7.97494385 -29.52724609 7.9498877 -28.76855469 7.92407227 C-25.42886622 7.80795727 -22.08944903 7.68530082 -18.75 7.5625 C-17.59113281 7.52318359 -16.43226563 7.48386719 -15.23828125 7.44335938 C-14.12324219 7.40146484 -13.00820312 7.35957031 -11.859375 7.31640625 C-10.31975098 7.26141968 -10.31975098 7.26141968 -8.74902344 7.20532227 C-7.8418457 7.13756592 -6.93466797 7.06980957 -6 7 C-5.26040039 6.95222412 -4.52080078 6.90444824 -3.75878906 6.85522461 C-2.88818848 6.43188843 -2.88818848 6.43188843 -2 6 C-1.34 4.02 -0.68 2.04 0 0 Z " fill="#8AD86B" transform="translate(164,239)"/>
<path d="M0 0 C18.55873254 3.75848414 41.65220191 3.77739103 59.72265625 -2.24609375 C64.51831702 -2.6391807 66.79173209 -2.72879517 71.09765625 -0.49609375 C73.63307316 1.67712074 74.5440474 2.73268356 75.72265625 5.75390625 C76.05569276 10.45057495 75.25217826 13.95160017 72.66015625 17.87890625 C69.92300477 20.74154318 66.88083651 23.28384345 63.8828125 25.8671875 C51.72583121 36.4853104 42.82766264 49.13665445 35.07055664 63.20703125 C31.38614094 69.77784481 31.38614094 69.77784481 27.72265625 71.75390625 C24.22265625 72.19140625 24.22265625 72.19140625 20.72265625 71.75390625 C17.18637381 68.85995636 15.34443838 65.50551291 13.22265625 61.50390625 C4.27282388 45.27573849 -8.03451287 30.71012253 -22.18359375 18.7890625 C-25.27328392 15.78583754 -27.0773079 13.09700411 -27.71484375 8.81640625 C-27.15406871 4.89098098 -25.77445426 2.8059302 -23.27734375 -0.24609375 C-16.11638447 -4.59276656 -7.59101658 -1.83782507 0 0 Z " fill="#040504" transform="translate(231.27734375,274.24609375)"/>
<path d="M0 0 C4.95 0 9.9 0 15 0 C7.34713812 19.1321547 -9.62737064 34.63697042 -27 45 C-56.38066941 62.59212921 -79.02459008 85.07377023 -90 118 C-101.88 118 -113.76 118 -126 118 C-128.31 112.72 -130.62 107.44 -133 102 C-139.13983283 89.72033434 -146.74021282 78.22807674 -157 69 C-155 68 -155 68 -152.9375 68.3125 C-151 69 -151 69 -150 71 C-149.01 69.02 -148.02 67.04 -147 65 C-146.01 65 -145.02 65 -144 65 C-144.22816406 64.44570313 -144.45632812 63.89140625 -144.69140625 63.3203125 C-144.97886719 62.59585938 -145.26632813 61.87140625 -145.5625 61.125 C-145.85253906 60.40570313 -146.14257812 59.68640625 -146.44140625 58.9453125 C-147 57 -147 57 -146 55 C-147.485 55.495 -147.485 55.495 -149 56 C-149.433125 55.21625 -149.86625 54.4325 -150.3125 53.625 C-151.89220247 50.78301625 -151.89220247 50.78301625 -155 49 C-155 48.34 -155 47.68 -155 47 C-156.485 47.495 -156.485 47.495 -158 48 C-161.10096154 42.54230769 -161.10096154 42.54230769 -160.58984375 39.796875 C-160.39519531 39.20390625 -160.20054687 38.6109375 -160 38 C-159.64953613 38.50136475 -159.29907227 39.00272949 -158.93798828 39.51928711 C-155.34652964 44.50115835 -151.47714544 48.52295229 -146.875 52.5625 C-133.34269238 64.84803703 -123.44578052 79.2227702 -115.0078125 95.390625 C-114.08527493 97.17432319 -114.08527493 97.17432319 -112 98 C-108.62642666 98.50070321 -108.62642666 98.50070321 -105 98 C-101.01257285 94.62410315 -98.68889949 91.01825353 -96.25 86.4375 C-88.39399911 72.16617254 -77.60573053 60.32112133 -66 49 C-66 52 -66 52 -68 55 C-69.31437135 56.10626255 -70.64982529 57.18773019 -72 58.25 C-75.95049219 61.60648702 -77.17210893 63.92916719 -78 69 C-79.485 68.505 -79.485 68.505 -81 68 C-80.67 68.99 -80.34 69.98 -80 71 C-80.66 71 -81.32 71 -82 71 C-82.66 71.99 -83.32 72.98 -84 74 C-84.66 74 -85.32 74 -86 74 C-85.773125 74.556875 -85.54625 75.11375 -85.3125 75.6875 C-84.87020324 78.96049601 -86.06487514 80.41983352 -88 83 C-88.66 83 -89.32 83 -90 83 C-90.66 85.64 -91.32 88.28 -92 91 C-91.67 90.34 -91.34 89.68 -91 89 C-90.34 89 -89.68 89 -89 89 C-88.77957031 88.30132812 -88.55914062 87.60265625 -88.33203125 86.8828125 C-86.68045643 83.3084365 -84.3598506 80.70645464 -81.6875 77.875 C-81.162771 77.31312988 -80.63804199 76.75125977 -80.09741211 76.17236328 C-73.32616352 69.06190185 -65.71792825 61.63945399 -57 57 C-56.34 57 -55.68 57 -55 57 C-55 56.34 -55 55.68 -55 55 C-54.44054687 54.75507813 -53.88109375 54.51015625 -53.3046875 54.2578125 C-46.96912427 51.30393254 -41.47987422 47.6601695 -35.91162109 43.47900391 C-32.7001706 41.09353811 -29.7262726 39.41760371 -26 38 C-24.75825204 36.0998823 -24.75825204 36.0998823 -24 34 C-23.34 33.01 -22.68 32.02 -22 31 C-21.34 31 -20.68 31 -20 31 C-19.62101562 30.13955078 -19.62101562 30.13955078 -19.234375 29.26171875 C-17.84946823 26.72418387 -16.22845244 24.91748138 -14.25 22.8125 C-7.9360375 15.82367557 -3.58727411 8.69224112 0 0 Z " fill="#8AD66B" transform="translate(364,247)"/>
<path d="M0 0 C26.87211155 6.39317161 47.15241442 23.27701131 61.50390625 46.42578125 C75.35731021 71.57036086 71.82005122 101.68636251 67.375 128.75 C67.00678561 131.07001688 66.6399411 133.39025156 66.27441406 135.71069336 C65.54471781 140.31991323 64.80366306 144.9270668 64.05175781 149.53271484 C63.24153788 154.49634419 62.45236471 159.46279822 61.67776489 164.43209839 C61.16330058 167.72433605 60.63908122 171.01495187 60.11114502 174.30505371 C59.87479585 175.78242576 59.64093208 177.2601981 59.40985107 178.73840332 C58.03224603 187.49183461 56.03100148 195.65179293 53 204 C48.05 204 43.1 204 38 204 C38.44988281 202.67226562 38.89976562 201.34453125 39.36328125 199.9765625 C41.48310123 192.91049589 42.29123307 185.67181016 43.1875 178.375 C43.36576444 176.97516189 43.54479565 175.5754212 43.72460938 174.17578125 C44.15726056 170.78473146 44.58219074 167.39290486 45 164 C45.66 164 46.32 164 47 164 C46.96616211 162.06362671 46.96616211 162.06362671 46.93164062 160.08813477 C46.93403422 155.18420422 47.43562684 150.44368383 48.09375 145.58984375 C48.20473022 144.73693253 48.31571045 143.8840213 48.43005371 143.00526428 C48.78131777 140.3152699 49.14051405 137.62640664 49.5 134.9375 C49.74141354 133.09967867 49.98230381 131.26178853 50.22265625 129.42382812 C50.80906361 124.94840118 51.40258093 120.47396975 52 116 C52.66 116 53.32 116 54 116 C54.39696095 110.66938151 54.72207086 105.33811573 55 100 C55.10248047 98.12828125 55.10248047 98.12828125 55.20703125 96.21875 C55.53316517 84.7195094 53.54187807 73.76062206 51.45751953 62.48730469 C50.93810483 59.66350696 50.45946007 56.83414319 50 54 C49.34 54 48.68 54 48 54 C47.76925781 53.3709375 47.53851563 52.741875 47.30078125 52.09375 C45.30834426 46.8645873 43.10330691 42.22413787 39.953125 37.59375 C39 36 39 36 39 34 C38.34 34 37.68 34 37 34 C37 33.01 37 32.02 37 31 C36.34 31 35.68 31 35 31 C35 30.01 35 29.02 35 28 C34.34 28 33.68 28 33 28 C32.7525 27.21625 32.505 26.4325 32.25 25.625 C30.76880562 22.5144918 30.02705226 22.38379532 27 21 C25.31288577 19.3540349 23.6454378 17.68762851 22 16 C21.01 15.34 20.02 14.68 19 14 C19 13.34 19 12.68 19 12 C18.34 12 17.68 12 17 12 C17 11.34 17 10.68 17 10 C15.02 9.34 13.04 8.68 11 8 C11 7.34 11 6.68 11 6 C10.484375 5.9175 9.96875 5.835 9.4375 5.75 C5.95544268 4.67859775 3.12799115 2.86476395 0 1 C0 0.67 0 0.34 0 0 Z " fill="#32383E" transform="translate(333,28)"/>
<path d="M0 0 C4.5587717 3.76594184 8.11872037 8.35616111 10 14 C10.70339317 21.67966965 10.45711305 28.50108097 6 35 C0.96304652 40.59423344 -3.78682687 43.58400357 -11.40234375 44.3359375 C-18.48605052 44.4142105 -23.27883334 44.35898412 -29 40 C-29 39.34 -29 38.68 -29 38 C-29.99 37.67 -30.98 37.34 -32 37 C-33.3515625 35.07421875 -33.3515625 35.07421875 -34.625 32.6875 C-35.05039062 31.90761719 -35.47578125 31.12773438 -35.9140625 30.32421875 C-38.91594964 23.89931642 -38.7875322 17.55824297 -36.5 10.9375 C-33.58037468 4.25525894 -28.68073407 -0.09687292 -22 -2.9375 C-13.89315684 -5.46103094 -7.35455309 -3.89956442 0 0 Z " fill="#030304" transform="translate(336,70)"/>
<path d="M0 0 C5.83160533 3.62713035 9.92453288 8.45714738 11.77734375 15.10546875 C12.63358056 22.75808526 12.2251599 29.6325296 7.77734375 36.10546875 C2.35818986 42.02041757 -3.30311209 46.15860729 -11.47265625 46.60546875 C-18.38932351 46.37961839 -24.15661083 44.19738797 -29.07421875 39.23828125 C-33.76013782 33.30586154 -36.8184574 27.19383154 -36.59375 19.52734375 C-35.91631446 15.10618551 -34.10676578 11.13443511 -32.22265625 7.10546875 C-31.56265625 7.10546875 -30.90265625 7.10546875 -30.22265625 7.10546875 C-29.89265625 6.11546875 -29.56265625 5.12546875 -29.22265625 4.10546875 C-27.69921875 2.75390625 -27.69921875 2.75390625 -25.84765625 1.48046875 C-25.24179687 1.05507812 -24.6359375 0.6296875 -24.01171875 0.19140625 C-17.4744774 -3.77661361 -6.839853 -3.08010294 0 0 Z " fill="#030304" transform="translate(334.22265625,134.89453125)"/>
<path d="M0 0 C5.74212595 3.59005149 10.68133722 8.89845103 13.04296875 15.30859375 C13.08421875 16.17484375 13.12546875 17.04109375 13.16796875 17.93359375 C13.27625 19.01060547 13.27625 19.01060547 13.38671875 20.109375 C13.81764403 27.0364989 12.26982778 32.30764949 8.16796875 37.93359375 C0.7368771 44.98031859 -4.84353174 46.48486832 -14.83203125 46.26953125 C-21.0349736 45.92205161 -24.46360319 43.5313966 -28.56640625 39.03125 C-34.12120105 32.14065931 -35.67345089 25.68707225 -34.83203125 16.93359375 C-33.54880142 10.43578454 -30.04280422 5.93020603 -24.83203125 1.93359375 C-17.67914064 -2.40704927 -7.86825718 -2.96280581 0 0 Z " fill="#030304" transform="translate(266.83203125,101.06640625)"/>
<path d="M0 0 C2.94593708 2.2708265 5.55989198 4.50267864 8 7.3125 C8 7.9725 8 8.6325 8 9.3125 C8.66 9.3125 9.32 9.3125 10 9.3125 C13.07082911 16.3498167 14.5513663 21.90843816 11.93359375 29.33984375 C8.25060602 37.45847338 4.09436753 41.87606336 -3.875 45.6875 C-12.27972789 47.36844558 -18.06017688 46.62240819 -25.5078125 42.16015625 C-29.84991129 38.94101404 -33.2431702 35.19966553 -34.6328125 29.8984375 C-35.68505837 22.48793997 -35.93470553 14.91220113 -32 8.3125 C-24.80950807 -1.14166532 -11.16933978 -6.01237984 0 0 Z " fill="#030304" transform="translate(201,134.6875)"/>
<path d="M0 0 C0.66 0.639375 1.32 1.27875 2 1.9375 C2 2.5975 2 3.2575 2 3.9375 C2.598125 4.1025 3.19625 4.2675 3.8125 4.4375 C7.23742954 6.78602311 8.09911137 10.05525333 9 13.9375 C10.13636455 22.46707972 7.7140545 28.51459638 3.3125 35.6875 C-2.24343335 41.09327299 -7.2524122 43.26561366 -15.0625 43.5 C-22.91616507 43.17875213 -27.88101034 41.43258042 -33.3125 35.75 C-37.85211032 29.94869962 -39.55233795 23.38436542 -39.296875 16.078125 C-38.65398702 11.44256431 -36.5825763 7.81136445 -34 3.9375 C-33.34 3.9375 -32.68 3.9375 -32 3.9375 C-31.814375 3.36 -31.62875 2.7825 -31.4375 2.1875 C-29.03425239 -1.57410496 -25.14783851 -3.23107864 -21.0625 -4.8125 C-12.87435589 -5.80500232 -6.81630993 -4.68621307 0 0 Z " fill="#030303" transform="translate(271,38.0625)"/>
<path d="M0 0 C5.93657016 3.80836577 10.12399931 8.45878432 12.0703125 15.328125 C13.17616557 23.39215467 11.72886988 29.63951616 7.0703125 36.328125 C2.76603934 41.17426627 -2.5373455 44.75624684 -9.08984375 45.609375 C-16.59400052 45.91829398 -22.29092929 43.880844 -28.1796875 39.265625 C-33.70123423 34.09189224 -36.03380187 27.81509022 -36.4921875 20.328125 C-36.20350785 14.00703621 -33.65108457 8.45324581 -29.5078125 3.6953125 C-21.08595629 -3.86624657 -9.96604795 -5.07232548 0 0 Z " fill="#020303" transform="translate(267.9296875,168.671875)"/>
<path d="M0 0 C1.97712771 1.14234045 3.9125854 2.35839027 5.8125 3.625 C5.8125 4.285 5.8125 4.945 5.8125 5.625 C6.4725 5.625 7.1325 5.625 7.8125 5.625 C10.87626521 9.47140929 13.43056425 13.65983526 13.8125 18.625 C13.9671875 20.2028125 13.9671875 20.2028125 14.125 21.8125 C13.60199621 28.19314628 11.52391984 33.60640225 7.375 38.5 C6.529375 39.20125 5.68375 39.9025 4.8125 40.625 C3.966875 41.3675 3.12125 42.11 2.25 42.875 C-3.1457588 46.74887811 -9.7987636 46.06078253 -16.1875 45.625 C-22.72275305 44.42374775 -27.2088663 40.85616653 -31.1875 35.625 C-35.0027133 29.2257238 -35.32221054 21.4762987 -33.6484375 14.3203125 C-31.28249827 7.43048946 -27.41040548 2.96322191 -20.953125 -0.42578125 C-14.44368099 -2.65995483 -6.41088691 -2.64057762 0 0 Z " fill="#020303" transform="translate(200.1875,68.375)"/>
<path d="M0 0 C4.95 0 9.9 0 15 0 C7.34713812 19.1321547 -9.62737064 34.63697042 -27 45 C-56.38066941 62.59212921 -79.02459008 85.07377023 -90 118 C-101.88 118 -113.76 118 -126 118 C-126 117.67 -126 117.34 -126 117 C-119.07 117 -112.14 117 -105 117 C-104.67 115.68 -104.34 114.36 -104 113 C-102.78980596 110.3873381 -101.55055398 107.81671118 -100.25 105.25 C-99.89019043 104.53714844 -99.53038086 103.82429688 -99.15966797 103.08984375 C-96.67622675 98.21869235 -94.16591916 93.46953293 -91 89 C-90.34 89 -89.68 89 -89 89 C-88.77957031 88.30132812 -88.55914062 87.60265625 -88.33203125 86.8828125 C-86.68045643 83.3084365 -84.3598506 80.70645464 -81.6875 77.875 C-81.162771 77.31312988 -80.63804199 76.75125977 -80.09741211 76.17236328 C-73.32616352 69.06190185 -65.71792825 61.63945399 -57 57 C-56.34 57 -55.68 57 -55 57 C-55 56.34 -55 55.68 -55 55 C-54.44054687 54.75507813 -53.88109375 54.51015625 -53.3046875 54.2578125 C-46.96912427 51.30393254 -41.47987422 47.6601695 -35.91162109 43.47900391 C-32.7001706 41.09353811 -29.7262726 39.41760371 -26 38 C-24.75825204 36.0998823 -24.75825204 36.0998823 -24 34 C-23.34 33.01 -22.68 32.02 -22 31 C-21.34 31 -20.68 31 -20 31 C-19.62101562 30.13955078 -19.62101562 30.13955078 -19.234375 29.26171875 C-17.84946823 26.72418387 -16.22845244 24.91748138 -14.25 22.8125 C-7.9360375 15.82367557 -3.58727411 8.69224112 0 0 Z " fill="#5BB064" transform="translate(364,247)"/>
<path d="M0 0 C18.48 0 36.96 0 56 0 C59 13 59 13 59 18 C38.21 18 17.42 18 -4 18 C-2.68 12.06 -1.36 6.12 0 0 Z " fill="#474D52" transform="translate(228,479)"/>
<path d="M0 0 C17.16 0 34.32 0 52 0 C52 6.27 52 12.54 52 19 C34.84 19 17.68 19 0 19 C0 12.73 0 6.46 0 0 Z " fill="#575E63" transform="translate(230,412)"/>
<path d="M0 0 C17.16 0 34.32 0 52 0 C52 6.27 52 12.54 52 19 C34.84 19 17.68 19 0 19 C0 12.73 0 6.46 0 0 Z " fill="#575E64" transform="translate(230,379)"/>
<path d="M0 0 C16.83 0 33.66 0 51 0 C51 5.94 51 11.88 51 18 C34.17 18 17.34 18 0 18 C0 12.06 0 6.12 0 0 Z " fill="#575E63" transform="translate(230,446)"/>
<path d="M0 0 C1.216875 -0.020625 2.43375 -0.04125 3.6875 -0.0625 C4.71423828 -0.07990234 4.71423828 -0.07990234 5.76171875 -0.09765625 C8 0 8 0 10.1328125 0.49609375 C14.47677344 1.25954193 18.78576792 1.14621682 23.1875 1.125 C24.63406982 1.12209961 24.63406982 1.12209961 26.10986328 1.11914062 C35.09499465 1.06600037 44.03805529 0.61959124 53 0 C50.41612051 4.06459581 47.74249345 7.46580072 44.375 10.9375 C38.03645482 17.77521739 32.18264108 25.63471784 28 34 C27.34 34 26.68 34 26 34 C24.91142134 32.44101062 23.90566332 30.82399356 22.9375 29.1875 C17.21627553 19.94825551 10.09719798 11.96831378 2.75 3.99609375 C1 2 1 2 0 0 Z " fill="#F8F8F8" transform="translate(229,290)"/>
<path d="M0 0 C2 1.625 2 1.625 3 4 C3.25 7.375 3.25 7.375 2 11 C0.33544922 12.40722656 0.33544922 12.40722656 -1.8203125 13.765625 C-3.03847656 14.5388208 -3.03847656 14.5388208 -4.28125 15.32763672 C-5.62703125 16.15545654 -5.62703125 16.15545654 -7 17 C-7.94875 17.59184082 -8.8975 18.18368164 -9.875 18.79345703 C-12.94100239 20.68432441 -16.02941072 22.53302824 -19.125 24.375 C-20.17042969 25.01566406 -21.21585937 25.65632813 -22.29296875 26.31640625 C-32.05910807 32.10694903 -32.05910807 32.10694903 -38 31 C-40.5 28.9375 -40.5 28.9375 -42 26 C-42.3125 22.5625 -42.3125 22.5625 -41 19 C-39.34692383 17.60107422 -39.34692383 17.60107422 -37.20703125 16.2421875 C-36.39548584 15.7263208 -35.58394043 15.2104541 -34.74780273 14.67895508 C-29.66087226 11.57075242 -24.54747378 8.52653634 -19.375 5.5625 C-17.7353125 4.58893555 -17.7353125 4.58893555 -16.0625 3.59570312 C-6.02100073 -2.13621807 -6.02100073 -2.13621807 0 0 Z " fill="#080808" transform="translate(477,30)"/>
<path d="M0 0 C4.45429254 1.36623259 8.36286117 3.89158069 12.34179688 6.26660156 C13.26895508 6.81276123 14.19611328 7.3589209 15.15136719 7.92163086 C16.97962207 9.00232764 18.8049273 10.08803317 20.62695312 11.17919922 C22.69208969 12.40445358 24.77067555 13.5876055 26.87304688 14.74707031 C33.68795072 18.66564002 33.68795072 18.66564002 35.59179688 23.26660156 C35.09179688 26.64160156 35.09179688 26.64160156 33.02929688 29.57910156 C29.52387226 32.04035714 28.28966584 32.08271309 24.09179688 31.64160156 C20.91967773 30.23632812 20.91967773 30.23632812 17.55664062 28.28222656 C16.95549942 27.93657654 16.35435822 27.59092651 15.73500061 27.23480225 C14.47013618 26.50437094 13.20881566 25.76777186 11.95092773 25.02539062 C10.03855807 23.8970658 8.11634826 22.7873766 6.19140625 21.68066406 C-8.39022581 13.22431002 -8.39022581 13.22431002 -10.03320312 8.20410156 C-9.90820312 4.64160156 -9.90820312 4.64160156 -7.90820312 1.64160156 C-4.73429 -0.47434052 -3.65126775 -0.65707494 0 0 Z " fill="#080808" transform="translate(41.908203125,29.3583984375)"/>
<path d="M0 0 C3.83723076 0.85865798 6.48083412 2.07594181 9.85766602 4.06567383 C10.98108398 4.72116211 12.10450195 5.37665039 13.26196289 6.05200195 C14.4280421 6.74785895 15.59405725 7.44382331 16.76000977 8.13989258 C17.92933928 8.82514918 19.0992573 9.50940259 20.26977539 10.19262695 C23.42760115 12.04814433 26.57614195 13.91117016 29.69750977 15.82739258 C30.78733154 16.49150146 31.87715332 17.15561035 33 17.83984375 C35.69750977 19.82739258 35.69750977 19.82739258 36.88500977 23.26489258 C36.69750977 26.82739258 36.69750977 26.82739258 34.63500977 29.76489258 C31.14109306 32.21806814 29.87882496 32.25035152 25.69750977 31.82739258 C22.74072266 30.52978516 22.74072266 30.52978516 19.67016602 28.72192383 C17.98697266 27.740625 17.98697266 27.740625 16.26977539 26.73950195 C15.09985031 26.03963752 13.92992846 25.33976769 12.76000977 24.63989258 C11.59464692 23.95843648 10.42863589 23.27808759 9.26196289 22.59887695 C-6.83661567 13.13184137 -6.83661567 13.13184137 -8.55249023 8.32739258 C-8.30249023 4.82739258 -8.30249023 4.82739258 -6.30249023 1.82739258 C-3.30249023 -0.17260742 -3.30249023 -0.17260742 0 0 Z " fill="#070707" transform="translate(443.302490234375,252.172607421875)"/>
<path d="M0 0 C2 1.625 2 1.625 3 4 C3.25 7.375 3.25 7.375 2 11 C0.33544922 12.40722656 0.33544922 12.40722656 -1.8203125 13.765625 C-3.03847656 14.5388208 -3.03847656 14.5388208 -4.28125 15.32763672 C-5.62703125 16.15545654 -5.62703125 16.15545654 -7 17 C-7.94875 17.59184082 -8.8975 18.18368164 -9.875 18.79345703 C-12.94100239 20.68432441 -16.02941072 22.53302824 -19.125 24.375 C-20.17042969 25.01566406 -21.21585938 25.65632813 -22.29296875 26.31640625 C-32.05910807 32.10694903 -32.05910807 32.10694903 -38 31 C-40.5 28.9375 -40.5 28.9375 -42 26 C-41.921875 22.546875 -41.921875 22.546875 -41 19 C-38.796875 16.98828125 -38.796875 16.98828125 -35.75 15.3125 C-35.19296387 14.99998291 -34.63592773 14.68746582 -34.06201172 14.36547852 C-32.78717081 13.65039417 -31.50730638 12.94422171 -30.22363281 12.24511719 C-27.67979774 10.82070361 -25.1982609 9.30993395 -22.7109375 7.7890625 C-20.84948994 6.67098946 -18.98751029 5.55380182 -17.125 4.4375 C-16.23393555 3.88811768 -15.34287109 3.33873535 -14.42480469 2.77270508 C-9.11662436 -0.33866084 -6.0012774 -1.88813036 0 0 Z " fill="#070707" transform="translate(74,253)"/>
<path d="M0 0 C0.87269531 -0.00524185 1.74539063 -0.0104837 2.64453125 -0.0158844 C4.48696836 -0.02229891 6.32944645 -0.02097498 8.171875 -0.01245117 C10.9903244 -0.00393548 13.80675049 -0.0327183 16.625 -0.06445312 C18.41666606 -0.06606513 20.20833571 -0.06548762 22 -0.0625 C23.26263672 -0.07935097 23.26263672 -0.07935097 24.55078125 -0.09654236 C28.36577811 -0.05110366 30.3660741 -0.02026735 33.53125 2.24584961 C35.69164358 5.46381618 35.54052691 7.64990535 35 11.43359375 C33.54492188 13.61694336 33.54492188 13.61694336 31 15.43359375 C27.92913536 16.03859861 24.90350833 16.01793125 21.78125 16 C20.43891296 16.00929787 20.43891296 16.00929787 19.06945801 16.01878357 C17.1799427 16.02587842 15.29036483 16.02271354 13.40087891 16.01000977 C10.5095731 15.99613967 7.62150139 16.03022235 4.73046875 16.06835938 C2.89322837 16.06931056 1.05598395 16.06745181 -0.78125 16.0625 C-1.64488159 16.07575821 -2.50851318 16.08901642 -3.39831543 16.10267639 C-9.35772013 16.01019698 -9.35772013 16.01019698 -12.57617188 13.12084961 C-14.53137087 9.43071323 -14.17210801 7.38945829 -13 3.43359375 C-9.42949642 -0.57450573 -4.9828622 -0.01737778 0 0 Z " fill="#050505" transform="translate(14,148.56640625)"/>
<path d="M0 0 C0.87032364 -0.00619858 1.74064728 -0.01239716 2.63734436 -0.01878357 C4.47558475 -0.02587832 6.31388943 -0.02271369 8.15209961 -0.01000977 C10.96002943 0.00384395 13.7646179 -0.03020195 16.57226562 -0.06835938 C18.3606779 -0.06931074 20.14909433 -0.06745083 21.9375 -0.0625 C23.19239479 -0.08238731 23.19239479 -0.08238731 24.47264099 -0.10267639 C28.78618496 -0.0340297 30.54843069 0.19910352 34.09985352 2.87915039 C36.03515625 5.56640625 36.03515625 5.56640625 36.09765625 9.19140625 C34.88981945 13.02806432 34.51742001 13.73024781 31.03515625 15.56640625 C28.03527439 16.01741188 25.06447362 16.01056477 22.03515625 16 C21.16246094 16.00524185 20.28976562 16.0104837 19.390625 16.0158844 C17.54818789 16.02229891 15.7057098 16.02097498 13.86328125 16.01245117 C11.04483185 16.00393548 8.22840576 16.0327183 5.41015625 16.06445312 C3.61849019 16.06606513 1.82682054 16.06548762 0.03515625 16.0625 C-1.22748047 16.07935097 -1.22748047 16.07935097 -2.515625 16.09654236 C-6.33062186 16.05110366 -8.33091785 16.02026735 -11.49609375 13.75415039 C-13.65648733 10.53618382 -13.50537066 8.35009465 -12.96484375 4.56640625 C-9.58437919 -0.45126919 -5.53296621 -0.03272372 0 0 Z " fill="#040404" transform="translate(475.96484375,148.43359375)"/>
<path d="M0 0 C17.16 0 34.32 0 52 0 C52 6.27 52 12.54 52 19 C34.84 19 17.68 19 0 19 C0 12.73 0 6.46 0 0 Z M1 1 C1 6.61 1 12.22 1 18 C12.55 18 24.1 18 36 18 C36 12.72 36 7.44 36 2 C34.85411899 0.62682912 34.85411899 0.62682912 31.76538086 0.88647461 C30.33185874 0.88663369 28.89833088 0.89232593 27.46484375 0.90234375 C26.71159317 0.9037587 25.95834259 0.90517365 25.18226624 0.90663147 C22.7673044 0.91224624 20.35243399 0.92480117 17.9375 0.9375 C16.30403779 0.9425131 14.67057414 0.94707634 13.03710938 0.95117188 C9.0246757 0.96137125 5.01244064 0.98094355 1 1 Z " fill="#3F4549" transform="translate(230,412)"/>
<path d="M0 0 C17.16 0 34.32 0 52 0 C52 6.27 52 12.54 52 19 C34.84 19 17.68 19 0 19 C0 12.73 0 6.46 0 0 Z M1 1 C1 6.61 1 12.22 1 18 C12.55 18 24.1 18 36 18 C36 12.39 36 6.78 36 1 C24.45 1 12.9 1 1 1 Z " fill="#3F4449" transform="translate(230,379)"/>
<path d="M0 0 C0.33 0 0.66 0 1 0 C1 5.61 1 11.22 1 17 C12.55 17 24.1 17 36 17 C36 11.39 36 5.78 36 0 C40.95 0 45.9 0 51 0 C51 5.94 51 11.88 51 18 C34.17 18 17.34 18 0 18 C0 12.06 0 6.12 0 0 Z " fill="#464D52" transform="translate(230,446)"/>
<path d="M0 0 C5.28 0 10.56 0 16 0 C19 12.375 19 12.375 19 18 C14.05 18 9.1 18 4 18 C2.68 12.06 1.36 6.12 0 0 Z " fill="#32383D" transform="translate(268,479)"/>
<path d="M0 0 C2 3 2 3 3 5 C3.99 4.01 4.98 3.02 6 2 C6.495 4.97 6.495 4.97 7 8 C9.2477975 5.94766315 10.0022242 4.99332739 11 2 C11.66 2 12.32 2 13 2 C12.58771609 3.29307226 12.16979706 4.58434733 11.75 5.875 C11.51796875 6.59429687 11.2859375 7.31359375 11.046875 8.0546875 C9.49575482 12.41865994 7.72007334 16.69981664 6 21 C-5.88 21 -17.76 21 -30 21 C-30 20.67 -30 20.34 -30 20 C-23.07 20 -16.14 20 -9 20 C-8.67 18.68 -8.34 17.36 -8 16 C-7.42073684 14.68635857 -6.80264743 13.38933779 -6.15234375 12.109375 C-5.79462891 11.40039062 -5.43691406 10.69140625 -5.06835938 9.9609375 C-4.69517578 9.23132813 -4.32199219 8.50171875 -3.9375 7.75 C-3.56044922 7.00492187 -3.18339844 6.25984375 -2.79492188 5.4921875 C-1.86689327 3.65962469 -0.93392821 1.82956324 0 0 Z " fill="#54A35C" transform="translate(268,344)"/>
<path d="M0 0 C3.38031589 1.18767855 3.93216817 1.89825225 6 5 C6.08203125 7.15625 6.08203125 7.15625 5.8125 9.5 C5.73644531 10.2734375 5.66039062 11.046875 5.58203125 11.84375 C4.88446857 14.42800905 4.12556818 15.39477877 2 17 C-2.52722069 18.09529533 -4.71375705 18.60207117 -8.9375 16.625 C-11.82858629 12.94543563 -12.54563592 9.64617256 -12 5 C-8.70879436 -0.03965864 -5.84157725 -0.74347347 0 0 Z " fill="#F4F4F4" transform="translate(259,181)"/>
<path d="M0 0 C3.75979392 1.05909688 5.09536663 3.27164342 6.94140625 6.546875 C7.0098305 10.51548164 6.55606139 12.64853288 4.31640625 15.921875 C1.08921375 18.12995408 -1.15701599 18.546875 -5.05859375 18.546875 C-7.86048821 16.78046328 -9.57384286 15.51637678 -11.05859375 12.546875 C-11.54461963 8.25364641 -11.52100983 6.22604861 -9.05859375 2.609375 C-5.74275684 0.32973712 -3.94956664 -0.26979962 0 0 Z " fill="#F5F5F5" transform="translate(192.05859375,147.453125)"/>
<path d="M0 0 C2.4375 1.5625 2.4375 1.5625 4 4 C4.70476018 8.93332128 4.77041398 10.84437903 2 15 C-1.30984986 17.20656657 -3.14807289 17.81400735 -7.05859375 17.546875 C-10.81838767 16.48777812 -12.15396038 14.27523158 -14 11 C-14.07144479 6.8562023 -13.68996523 4.84576383 -11.0625 1.625 C-7.11963259 -1.4815016 -4.88477503 -1.09486337 0 0 Z " fill="#F4F4F4" transform="translate(327,82)"/>
<path d="M0 0 C3.70968263 1.16786305 5.18740536 1.8652463 7.375 5.0625 C8.375 8.5 8.375 8.5 8.375 12.0625 C6.60858828 14.86439446 5.34450178 16.57774911 2.375 18.0625 C-1.91822859 18.54852588 -3.94582639 18.52491608 -7.5625 16.0625 C-9.84213788 12.74666309 -10.44167462 10.95347289 -10.171875 7.00390625 C-8.72633764 1.87224861 -4.97801962 0.08582792 0 0 Z " fill="#F4F4F4" transform="translate(190.625,80.9375)"/>
<path d="M0 0 C3.00808769 2.63207673 3.88934188 4.09629201 4.375 8.0625 C4.0066092 10.94822797 3.68261422 12.6443401 2 15 C-1.22806304 17.30575932 -4.11411732 17.39651864 -8 17 C-10.8125 16.0625 -10.8125 16.0625 -13 14 C-14.00967797 10.95335542 -14.30259564 8.19406505 -14 5 C-10.36269516 -1.02036664 -6.66653652 -1.91037114 0 0 Z " fill="#F5F5F5" transform="translate(261,49)"/>
<path d="M0 0 C3.5442914 0.80009747 4.97740702 2.51479019 6.97265625 5.4453125 C7.59765625 8.9453125 7.59765625 8.9453125 6.97265625 12.4453125 C4.54412243 15.7309759 2.84990811 17.15289521 -1.02734375 18.4453125 C-4.6769495 18.4453125 -6.20154302 17.72165198 -9.02734375 15.4453125 C-11.1283597 12.7712922 -11.02581351 11.40246565 -10.90234375 7.9453125 C-9.33561354 1.67839165 -6.62082135 -0.37126101 0 0 Z " fill="#F6F6F6" transform="translate(324.02734375,147.5546875)"/>
<path d="M0 0 C3.62771552 0.88320639 4.97802955 2.36925437 6.94140625 5.47265625 C7.34986239 9.63745015 6.93254491 13.16435322 4.37890625 16.53515625 C0.00388576 18.21785644 -4.12107326 18.21785644 -8.49609375 16.53515625 C-11.04973241 13.16435322 -11.46704989 9.63745015 -11.05859375 5.47265625 C-8.16483002 0.89864261 -5.23176088 -0.38717016 0 0 Z " fill="#F6F6F6" transform="translate(258.05859375,114.52734375)"/>
<path d="M0 0 C0.66 0 1.32 0 2 0 C2.55352016 0.649296 3.10704033 1.298592 3.67733383 1.96756363 C6.88304949 4.77270764 8.93925082 4.50694943 13.16265869 4.51898193 C13.88478161 4.52648319 14.60690452 4.53398444 15.35090995 4.541713 C17.77101545 4.56201566 20.19018635 4.55388293 22.61035156 4.54589844 C24.34491911 4.55463209 26.0794786 4.56511715 27.81402588 4.57722473 C32.52444646 4.6051309 37.23460476 4.6084884 41.94509602 4.60750484 C46.86724564 4.61062998 51.78927643 4.63623985 56.71136475 4.65948486 C66.03271253 4.70007901 75.35399031 4.7203936 84.67541289 4.73345876 C95.28721671 4.74931724 105.89890118 4.787728 116.51063585 4.82805204 C138.34038456 4.91049773 160.17012771 4.96456066 182 5 C182 5.66 182 6.32 182 7 C158.86082685 7.11672354 135.72170213 7.20493437 112.58229446 7.25906086 C101.83861712 7.28485906 91.09512255 7.3200405 80.3515625 7.37719727 C70.98911378 7.42698271 61.6267974 7.45927925 52.26422 7.47044247 C47.30524489 7.47696947 42.34664842 7.49234326 37.38779449 7.52865028 C32.72235087 7.56253301 28.05744263 7.57306863 23.39188766 7.56553841 C21.67777728 7.56691642 19.96364939 7.57689502 18.24964523 7.59602737 C15.91196388 7.62084622 13.57631313 7.61494805 11.23858643 7.60127258 C9.27516737 7.60818603 9.27516737 7.60818603 7.27208328 7.61523914 C4 7 4 7 1.54758835 4.58742046 C0 2 0 2 0 0 Z " fill="#9BCA81" transform="translate(182,242)"/>
<path d="M0 0 C1.32 0.66 2.64 1.32 4 2 C4 4.31 4 6.62 4 9 C3.01 9.33 2.02 9.66 1 10 C0.835 10.66 0.67 11.32 0.5 12 C0.335 12.66 0.17 13.32 0 14 C-0.99 14.33 -1.98 14.66 -3 15 C-3.33 16.65 -3.66 18.3 -4 20 C-5.85625 19.6596875 -5.85625 19.6596875 -7.75 19.3125 C-10.86853111 18.90333102 -11.68127899 18.81673542 -14.5 20.4375 C-14.995 20.953125 -15.49 21.46875 -16 22 C-16.66 21.67 -17.32 21.34 -18 21 C-16.71937515 19.2925002 -15.38232443 17.62626404 -14 16 C-13.34 16 -12.68 16 -12 16 C-11.7525 15.43410156 -11.505 14.86820312 -11.25 14.28515625 C-9.79764463 11.63006909 -8.04815279 9.66260716 -6 7.4375 C-3.76639308 5.00270422 -1.83774888 2.75662332 0 0 Z " fill="#5BB461" transform="translate(356,262)"/>
<path d="M0 0 C0.66 0 1.32 0 2 0 C2.103125 0.639375 2.20625 1.27875 2.3125 1.9375 C2.539375 2.618125 2.76625 3.29875 3 4 C3.99 4.33 4.98 4.66 6 5 C6 5.99 6 6.98 6 8 C7.98 8.66 9.96 9.32 12 10 C12.08121094 10.74894531 12.16242188 11.49789063 12.24609375 12.26953125 C13.16882948 15.61146013 14.3673176 16.57223339 17.0625 18.6875 C18.40665627 19.7529033 19.72785856 20.84956685 21 22 C21 22.66 21 23.32 21 24 C22.36125 24.12375 22.36125 24.12375 23.75 24.25 C27.42008088 25.09694174 28.69866328 26.07907263 31 29 C31 29.66 31 30.32 31 31 C33.31 31.66 35.62 32.32 38 33 C38.495 35.475 38.495 35.475 39 38 C23.8911374 29.51331973 8.67711248 17.33771291 0 2 C0 1.34 0 0.68 0 0 Z " fill="#90C877" transform="translate(139,256)"/>
<path d="M0 0 C5.19582661 -0.23092563 9.86813051 0.42628039 14.9609375 1.46484375 C23.48412351 2.96571327 31.85472977 3.15353224 40.5 3.125 C42.25763672 3.13080078 42.25763672 3.13080078 44.05078125 3.13671875 C50.45256315 3.12953381 56.65454446 2.85419594 63 2 C63.495 2.99 63.495 2.99 64 4 C43.56621585 7.56477231 19.71086614 8.35957664 0 1 C0 0.67 0 0.34 0 0 Z " fill="#81B36C" transform="translate(218,271)"/>
<path d="M0 0 C2.16512323 2.10695574 4.12364871 4.30981149 6.0625 6.625 C8.77125843 9.7539851 11.61842013 12.48408526 14.75 15.1875 C18.90174677 18.84103716 22.5532867 22.73046732 26.125 26.9375 C26.6106543 27.50557373 27.09630859 28.07364746 27.59667969 28.65893555 C31 32.74304314 31 32.74304314 31 35 C30.34 35 29.68 35 29 35 C29 34.34 29 33.68 29 33 C28.34 33 27.68 33 27 33 C25.12670944 31.43892453 24.11181711 30.29817896 23.25 28 C22.02083478 25.60622803 22.02083478 25.60622803 18.4375 24.5 C15 23 15 23 14 20.9375 C14 19 14 19 15 17 C14.01 17.33 13.02 17.66 12 18 C11.3503125 16.824375 11.3503125 16.824375 10.6875 15.625 C9.10779753 12.78301625 9.10779753 12.78301625 6 11 C6 10.34 6 9.68 6 9 C5.01 9.33 4.02 9.66 3 10 C0.96564469 6.27034861 0 4.33094958 0 0 Z " fill="#8AC36E" transform="translate(203,285)"/>
<path d="M0 0 C4.95 0 9.9 0 15 0 C13.51042138 3.72394655 12.2200318 6.47801793 10.0625 9.75 C9.55847656 10.52859375 9.05445313 11.3071875 8.53515625 12.109375 C7 14 7 14 4 15 C4.33 12.03 4.66 9.06 5 6 C5.99 6.33 6.98 6.66 8 7 C10.37158027 4.9714169 10.37158027 4.9714169 11 1 C7.7 1 4.4 1 1 1 C0.67 1.66 0.34 2.32 0 3 C0 2.01 0 1.02 0 0 Z " fill="#5FA368" transform="translate(364,247)"/>
<path d="M0 0 C0.99 0.33 1.98 0.66 3 1 C2.42235562 4.13084099 1.59969956 5.77743006 -0.65234375 8.015625 C-1.44608398 8.80839844 -1.44608398 8.80839844 -2.25585938 9.6171875 C-2.81080078 10.15601563 -3.36574219 10.69484375 -3.9375 11.25 C-4.48857422 11.80429687 -5.03964844 12.35859375 -5.60742188 12.9296875 C-9.73287408 17 -9.73287408 17 -12 17 C-11.34 15.35 -10.68 13.7 -10 12 C-9.01 12 -8.02 12 -7 12 C-6.8453125 11.1028125 -6.8453125 11.1028125 -6.6875 10.1875 C-5.90175967 7.68741714 -5.03081147 6.62464918 -3 5 C-2.34 5 -1.68 5 -1 5 C-0.67 3.35 -0.34 1.7 0 0 Z " fill="#63A26E" transform="translate(363,264)"/>
<path d="M0 0 C0.99 1.32 1.98 2.64 3 4 C1.625 5.5 1.625 5.5 0 7 C-0.66 7 -1.32 7 -2 7 C-2.495 7.825 -2.99 8.65 -3.5 9.5 C-4.2425 10.7375 -4.2425 10.7375 -5 12 C-5.66 12 -6.32 12 -7 12 C-7 11.34 -7 10.68 -7 10 C-8.32 9.67 -9.64 9.34 -11 9 C-10.28972656 8.51789062 -9.57945312 8.03578125 -8.84765625 7.5390625 C-7.92855469 6.90742187 -7.00945312 6.27578125 -6.0625 5.625 C-5.14597656 4.99851562 -4.22945312 4.37203125 -3.28515625 3.7265625 C-0.91612836 2.20228929 -0.91612836 2.20228929 0 0 Z " fill="#51565A" transform="translate(147,32)"/>
<path d="M0 0 C6.27 0 12.54 0 19 0 C19 0.99 19 1.98 19 3 C13.06 2.67 7.12 2.34 1 2 C0.67 3.32 0.34 4.64 0 6 C-0.66 5.34 -1.32 4.68 -2 4 C-1.34 2.68 -0.68 1.36 0 0 Z " fill="#86B674" transform="translate(164,239)"/>
<path d="M0 0 C4.75 0.875 4.75 0.875 7 2 C9.0374763 2.22858114 11.08040303 2.41024278 13.125 2.5625 C14.76855469 2.68818359 14.76855469 2.68818359 16.4453125 2.81640625 C17.28835938 2.87699219 18.13140625 2.93757812 19 3 C19 3.33 19 3.66 19 4 C17.01432292 4.22786458 15.02864583 4.45572917 13.04296875 4.68359375 C10.80603607 4.97170735 10.80603607 4.97170735 8 6 C6.66666667 5.66666667 5.33333333 5.33333333 4 5 C3.01 5.33 2.02 5.66 1 6 C0.34 5.67 -0.32 5.34 -1 5 C-0.67 3.35 -0.34 1.7 0 0 Z " fill="#484C4F" transform="translate(241,144)"/>
<path d="M0 0 C1.4835001 0.42257276 2.96176424 0.86356322 4.4375 1.3125 C5.67306641 1.67794922 5.67306641 1.67794922 6.93359375 2.05078125 C7.61550781 2.36402344 8.29742187 2.67726563 9 3 C9.33 3.99 9.66 4.98 10 6 C13.51190809 7.22969878 13.51190809 7.22969878 17 8 C17.33 9.65 17.66 11.3 18 13 C11.74285957 9.38419344 5.50420205 5.72008388 0 1 C0 0.67 0 0.34 0 0 Z " fill="#89C26F" transform="translate(160,281)"/>
<path d="M0 0 C0.33 0.66 0.66 1.32 1 2 C-0.72553458 4.58830188 -1.84453231 5.81634274 -4.1875 7.6875 C-7.7079188 10.59312633 -10.45201741 13.8472617 -13.2265625 17.4609375 C-15 19 -15 19 -17.7109375 19.2265625 C-18.46632813 19.15179688 -19.22171875 19.07703125 -20 19 C-15.97717034 14.84307602 -11.69440995 11.01485308 -7.3828125 7.16015625 C-4.83216512 4.84784805 -2.39336142 2.47314013 0 0 Z " fill="#031805" transform="translate(364,269)"/>
<path d="M0 0 C3.42409111 3.06679465 5.27342685 6.11716523 7.25 10.25 C7.77078125 11.32765625 8.2915625 12.4053125 8.828125 13.515625 C9.21484375 14.33546875 9.6015625 15.1553125 10 16 C7.525 15.01 7.525 15.01 5 14 C5 13.01 5 12.02 5 11 C4.01 10.67 3.02 10.34 2 10 C1.34 6.7 0.68 3.4 0 0 Z " fill="#8CC670" transform="translate(239,327)"/>
<path d="M0 0 C5.50719921 3.90510489 10.35827355 8.09717644 15 13 C14.01 13.33 13.02 13.66 12 14 C9.3125 12.25 9.3125 12.25 7 10 C7 9.01 7 8.02 7 7 C6.401875 6.71125 5.80375 6.4225 5.1875 6.125 C3 5 3 5 0 3 C0 2.01 0 1.02 0 0 Z " fill="#031403" transform="translate(196,306)"/>
<path d="M0 0 C9.24 0 18.48 0 28 0 C28 0.33 28 0.66 28 1 C20.41 1.33 12.82 1.66 5 2 C4.67 3.65 4.34 5.3 4 7 C0 2.25 0 2.25 0 0 Z " fill="#97C782" transform="translate(133,247)"/>
<path d="M0 0 C0.33 0.66 0.66 1.32 1 2 C0.0625 4.625 0.0625 4.625 -1 7 C-1.66 7 -2.32 7 -3 7 C-3 9.31 -3 11.62 -3 14 C-3.66 14 -4.32 14 -5 14 C-5.33 14.99 -5.66 15.98 -6 17 C-6.66 17 -7.32 17 -8 17 C-7.41734728 12.57676318 -5.73233789 9.4844136 -3.4375 5.6875 C-2.79683594 4.61886719 -2.15617187 3.55023438 -1.49609375 2.44921875 C-1.00238281 1.64097656 -0.50867188 0.83273437 0 0 Z " fill="#8EC472" transform="translate(271,328)"/>
<path d="M0 0 C0.99 0.33 1.98 0.66 3 1 C3 2.98 3 4.96 3 7 C2.01 7 1.02 7 0 7 C-0.99 7.33 -1.98 7.66 -3 8 C-5.1875 7.5625 -5.1875 7.5625 -7 7 C-6.21625 6.401875 -5.4325 5.80375 -4.625 5.1875 C-1.85425677 3.08914751 -1.85425677 3.08914751 0 0 Z " fill="#8FD073" transform="translate(306,288)"/>
<path d="M0 0 C0.91644287 0.00523682 1.83288574 0.01047363 2.77709961 0.01586914 C3.76645508 0.0190918 4.75581055 0.02231445 5.77514648 0.02563477 C6.81606445 0.03401367 7.85698242 0.04239258 8.92944336 0.05102539 C10.49662109 0.05779297 10.49662109 0.05779297 12.09545898 0.06469727 C14.68600996 0.07652627 17.27644895 0.0930085 19.86694336 0.11352539 C19.86694336 0.44352539 19.86694336 0.77352539 19.86694336 1.11352539 C18.81893555 1.17411133 17.77092773 1.23469727 16.69116211 1.29711914 C15.31224288 1.38154277 13.93333731 1.46618986 12.55444336 1.55102539 C11.51900391 1.61 11.51900391 1.61 10.46264648 1.67016602 C7.39532801 1.86279954 4.79726184 2.13675256 1.86694336 3.11352539 C-0.32055664 2.67602539 -0.32055664 2.67602539 -2.13305664 2.11352539 C-1.47305664 3.76352539 -0.81305664 5.41352539 -0.13305664 7.11352539 C-1.12305664 6.78352539 -2.11305664 6.45352539 -3.13305664 6.11352539 C-3.17577764 4.44740634 -3.17369496 2.77969654 -3.13305664 1.11352539 C-2.13305664 0.11352539 -2.13305664 0.11352539 0 0 Z " fill="#92D471" transform="translate(140.133056640625,247.886474609375)"/>
<path d="M0 0 C2.375 0.6875 2.375 0.6875 5 2 C6.1875 4.5 6.1875 4.5 7 7 C7.66 7.66 8.32 8.32 9 9 C5.41087588 9 4.89142971 8.33563446 2.3125 6 C1.68988281 5.443125 1.06726563 4.88625 0.42578125 4.3125 C-0.04472656 3.879375 -0.51523438 3.44625 -1 3 C-0.67 2.01 -0.34 1.02 0 0 Z M6 0 C6.66 0.33 7.32 0.66 8 1 C7.01 1 6.02 1 5 1 C5.33 0.67 5.66 0.34 6 0 Z " fill="#8ECE71" transform="translate(191,298)"/>
<path d="M0 0 C2.27467581 1.09677235 4.54454524 2.20198422 6.8125 3.3125 C7.45509766 3.62123047 8.09769531 3.92996094 8.75976562 4.24804688 C11.95607616 5.82136035 14.70577107 7.22816208 17 10 C16.01 10.33 15.02 10.66 14 11 C13.67 10.01 13.34 9.02 13 8 C12.34 7.938125 11.68 7.87625 11 7.8125 C6.8783325 6.69621505 3.34249498 4.66238434 0 2 C0 1.34 0 0.68 0 0 Z " fill="#081A07" transform="translate(171,290)"/>
<path d="M0 0 C0.66 0 1.32 0 2 0 C2 0.66 2 1.32 2 2 C2.99 2.33 3.98 2.66 5 3 C8.22534691 7.74315722 9.53574151 11.31283353 10 17 C7.45616883 13.76737762 5.37788083 10.3673798 3.3125 6.8125 C2.68988281 5.74644531 2.06726563 4.68039062 1.42578125 3.58203125 C0 1 0 1 0 0 Z " fill="#8BC276" transform="translate(223,334)"/>
<path d="M0 0 C2.97 0.495 2.97 0.495 6 1 C4.9024777 3.99324263 4.32317108 4.84610901 1.375 6.25 C0.59125 6.4975 -0.1925 6.745 -1 7 C-1.625 5.1875 -1.625 5.1875 -2 3 C-1.34 2.01 -0.68 1.02 0 0 Z " fill="#61A96B" transform="translate(344,280)"/>
<path d="M0 0 C0.33 0.66 0.66 1.32 1 2 C5.29 2 9.58 2 14 2 C14 2.66 14 3.32 14 4 C9.05 4 4.1 4 -1 4 C-0.67 2.68 -0.34 1.36 0 0 Z " fill="#68AC6F" transform="translate(260,360)"/>
<path d="M0 0 C0.66 0.99 1.32 1.98 2 3 C1.34 3 0.68 3 0 3 C-0.2475 3.70125 -0.495 4.4025 -0.75 5.125 C-2.53831727 9.23812973 -4.34342 12.98764555 -8.25 15.375 C-8.8275 15.58125 -9.405 15.7875 -10 16 C-8.46891253 12.69162003 -6.55556247 9.83763435 -4.4375 6.875 C-2.03268334 3.54908252 -2.03268334 3.54908252 0 0 Z " fill="#051906" transform="translate(376,252)"/>
<path d="M0 0 C0.66 0 1.32 0 2 0 C0.59155282 3.21524305 -1.10344786 5.32183868 -3.625 7.75 C-4.57246094 8.67039062 -4.57246094 8.67039062 -5.5390625 9.609375 C-6.02117187 10.06828125 -6.50328125 10.5271875 -7 11 C-8.04449911 7.86650268 -7.93423645 7.01031744 -7 4 C-5.824375 3.8453125 -5.824375 3.8453125 -4.625 3.6875 C-1.66954819 3.22404978 -1.66954819 3.22404978 0 0 Z " fill="#62AC72" transform="translate(308,308)"/>
<path d="M0 0 C0.20625 0.598125 0.4125 1.19625 0.625 1.8125 C2.49729236 4.79114694 4.88862511 5.47741229 8 7 C8.33 7.99 8.66 8.98 9 10 C3.55263158 9.51578947 3.55263158 9.51578947 1.125 7.25 C-0.18152386 4.63695229 -0.24038873 2.88466476 0 0 Z " fill="#0B1F09" transform="translate(183,237)"/>
<path d="M0 0 C6.20104812 -0.27560214 11.93184478 0.77100654 18 2 C13.7988135 4.800791 10.80639289 3.89098099 6 3 C3.97975201 2.3974699 1.96766531 1.75679435 0 1 C0 0.67 0 0.34 0 0 Z " fill="#86BE6E" transform="translate(218,271)"/>
<path d="M0 0 C2.75 0.0625 2.75 0.0625 6 1 C7.91048057 3.24298309 8.79234622 5.24654938 10 8 C9.67 8.66 9.34 9.32 9 10 C7.49702124 8.52386015 5.99768715 7.04400843 4.5 5.5625 C3.6646875 4.73878906 2.829375 3.91507812 1.96875 3.06640625 C0 1 0 1 0 0 Z " fill="#8EC777" transform="translate(207,315)"/>
<path d="M0 0 C3.1489715 1.36911804 5.0478487 2.8752136 7.25 5.5 C8.03117188 6.41265625 8.03117188 6.41265625 8.828125 7.34375 C10 9 10 9 10 11 C9.34 11 8.68 11 8 11 C8 10.34 8 9.68 8 9 C7.34 9 6.68 9 6 9 C2.94267144 6.60730809 1.61532158 3.46140338 0 0 Z " fill="#90C976" transform="translate(224,309)"/>
<path d="M0 0 C0 1.65 0 3.3 0 5 C-0.99 4.67 -1.98 4.34 -3 4 C-2.34 4 -1.68 4 -1 4 C-1 3.34 -1 2.68 -1 2 C-2.6396875 2.556875 -2.6396875 2.556875 -4.3125 3.125 C-5.529375 3.41375 -6.74625 3.7025 -8 4 C-8.99 3.34 -9.98 2.68 -11 2 C-7.17010894 0.19769832 -4.21878192 -0.19622241 0 0 Z " fill="#93D778" transform="translate(264,346)"/>
<path d="M0 0 C2.475 0.495 2.475 0.495 5 1 C5 1.99 5 2.98 5 4 C5.99 4 6.98 4 8 4 C8 4.66 8 5.32 8 6 C8.66 6 9.32 6 10 6 C9.67 6.66 9.34 7.32 9 8 C6.03 6.35 3.06 4.7 0 3 C0 2.01 0 1.02 0 0 Z " fill="#8FCA6F" transform="translate(179,292)"/>
<path d="M0 0 C0.66 0.33 1.32 0.66 2 1 C1.38125 1.53625 0.7625 2.0725 0.125 2.625 C-2.2782902 5.31103023 -3.06022153 7.55414562 -4 11 C-4.66 11 -5.32 11 -6 11 C-5.835 10.401875 -5.67 9.80375 -5.5 9.1875 C-4.8885876 6.88655664 -4.8885876 6.88655664 -5 4 C-2.5 1.8125 -2.5 1.8125 0 0 Z " fill="#42464A" transform="translate(274,139)"/>
<path d="M0 0 C0.66 0 1.32 0 2 0 C1.57405412 1.44096586 1.13373367 2.87768712 0.6875 4.3125 C0.44386719 5.11300781 0.20023437 5.91351563 -0.05078125 6.73828125 C-1.04182023 9.09964573 -2.08074943 10.33879993 -4 12 C-4.37096774 6.43548387 -4.37096774 6.43548387 -2.5625 4.3125 C-1.7890625 3.6628125 -1.7890625 3.6628125 -1 3 C-0.67 2.01 -0.34 1.02 0 0 Z " fill="#66A370" transform="translate(279,346)"/>
<path d="M0 0 C2.375 0.75 2.375 0.75 5 2 C5.309375 2.680625 5.61875 3.36125 5.9375 4.0625 C6.4634375 5.0215625 6.4634375 5.0215625 7 6 C10.05908413 6.81584568 10.05908413 6.81584568 13 7 C12.34 7.66 11.68 8.32 11 9 C5.79887886 6.8227865 3.31909349 4.39291786 0 0 Z " fill="#96CD79" transform="translate(153,274)"/>
<path d="M0 0 C4.95 0 9.9 0 15 0 C14.34 1.32 13.68 2.64 13 4 C12.34 3.34 11.68 2.68 11 2 C8.56747339 1.53837573 8.56747339 1.53837573 5.875 1.375 C4.96492188 1.30023438 4.05484375 1.22546875 3.1171875 1.1484375 C2.41851562 1.09945312 1.71984375 1.05046875 1 1 C0.67 1.66 0.34 2.32 0 3 C0 2.01 0 1.02 0 0 Z " fill="#6FA272" transform="translate(364,247)"/>
<path d="M0 0 C2.35694954 0.09031574 4.71153582 0.24688128 7.0625 0.4375 C8.35285156 0.53933594 9.64320313 0.64117187 10.97265625 0.74609375 C12.47119141 0.87177734 12.47119141 0.87177734 14 1 C14 1.33 14 1.66 14 2 C11.02148438 2.34179688 11.02148438 2.34179688 8.04296875 2.68359375 C5.80603607 2.97170735 5.80603607 2.97170735 3 4 C0.8125 2.5625 0.8125 2.5625 -1 1 C-0.67 0.67 -0.34 0.34 0 0 Z " fill="#3B3F42" transform="translate(246,146)"/>
<path d="M0 0 C0.66 0.33 1.32 0.66 2 1 C-0.25 3.5625 -0.25 3.5625 -3 6 C-4.32 5.67 -5.64 5.34 -7 5 C-4.69 3.35 -2.38 1.7 0 0 Z M-9 6 C-7 7 -7 7 -7 7 Z " fill="#061B08" transform="translate(330,295)"/>
<path d="M0 0 C2.25245881 2.68841859 3.88213958 4.64641875 5 8 C3.35 7.67 1.7 7.34 0 7 C0 5.35 0 3.7 0 2 C-0.66 1.67 -1.32 1.34 -2 1 C-1.34 0.67 -0.68 0.34 0 0 Z " fill="#091607" transform="translate(132,247)"/>
<path d="M0 0 C0.66 0.33 1.32 0.66 2 1 C0.68 3.64 -0.64 6.28 -2 9 C-2.66 8.67 -3.32 8.34 -4 8 C-3.6875 6.0625 -3.6875 6.0625 -3 4 C-2.01 3.67 -1.02 3.34 0 3 C0 2.01 0 1.02 0 0 Z " fill="#82D471" transform="translate(264,348)"/>
<path d="M0 0 C0.66 0.33 1.32 0.66 2 1 C1.40844669 2.31823302 0.80128537 3.62947051 0.1875 4.9375 C-0.31716797 6.03384766 -0.31716797 6.03384766 -0.83203125 7.15234375 C-2 9 -2 9 -5 10 C-3.84414715 6.08788267 -2.64465038 3.1254959 0 0 Z " fill="#051A07" transform="translate(285,340)"/>
<path d="M0 0 C0.66 0.33 1.32 0.66 2 1 C0.68 3.31 -0.64 5.62 -2 8 C-2.99 8 -3.98 8 -5 8 C-3.62845496 5.04590299 -2.01136276 2.55991624 0 0 Z " fill="#061602" transform="translate(265,335)"/>
<path d="M0 0 C0.66 0 1.32 0 2 0 C3.34919532 1.65385233 4.68133728 3.321702 6 5 C6.99 5.66 7.98 6.32 9 7 C8.67 7.99 8.34 8.98 8 10 C6.66070495 8.71451591 5.32871357 7.42141845 4 6.125 C2.88625 5.04605469 2.88625 5.04605469 1.75 3.9453125 C0 2 0 2 0 0 Z " fill="#081D05" transform="translate(206,288)"/>
<path d="M0 0 C2 0 2 0 4.5 2.375 C5.325 3.24125 6.15 4.1075 7 5 C7.66 5.66 8.32 6.32 9 7 C6.75 7.3125 6.75 7.3125 4 7 C0 2.89189189 0 2.89189189 0 0 Z " fill="#8FCB77" transform="translate(182,242)"/>
<path d="M0 0 C0.66 0 1.32 0 2 0 C1.34 3.63 0.68 7.26 0 11 C-0.33 11 -0.66 11 -1 11 C-1.0270043 9.54176788 -1.04639787 8.08339325 -1.0625 6.625 C-1.07410156 5.81289063 -1.08570313 5.00078125 -1.09765625 4.1640625 C-1 2 -1 2 0 0 Z " fill="#95D179" transform="translate(203,277)"/>
<path d="M0 0 C2.12038635 2.61514317 4.13091744 5.19637616 6 8 C3.5625 7.1875 3.5625 7.1875 1 6 C0.67 5.01 0.34 4.02 0 3 C-0.66 2.67 -1.32 2.34 -2 2 C-1.34 1.34 -0.68 0.68 0 0 Z " fill="#091E06" transform="translate(139,258)"/>
<path d="M0 0 C1.32 0.66 2.64 1.32 4 2 C3.34 3.65 2.68 5.3 2 7 C1.01 6.34 0.02 5.68 -1 5 C-0.67 3.35 -0.34 1.7 0 0 Z " fill="#060F0A" transform="translate(272,318)"/>
<path d="M0 0 C2.64 0 5.28 0 8 0 C7.01 0.33 6.02 0.66 5 1 C5.33 1.99 5.66 2.98 6 4 C5.01 4 4.02 4 3 4 C1.3125 2 1.3125 2 0 0 Z " fill="#DCDCDC" transform="translate(229,290)"/>
<path d="M0 0 C0.66 0.66 1.32 1.32 2 2 C1.68134222 5.29279709 0.45484649 6.86535088 -2 9 C-2.66 8.67 -3.32 8.34 -4 8 C-2.68 5.36 -1.36 2.72 0 0 Z " fill="#383C40" transform="translate(212,163)"/>
<path d="M0 0 C0.33 0 0.66 0 1 0 C0.67 2.31 0.34 4.62 0 7 C-0.99 7.33 -1.98 7.66 -3 8 C-1.125 1.125 -1.125 1.125 0 0 Z " fill="#61A76C" transform="translate(284,336)"/>
<path d="M0 0 C0.33 0.99 0.66 1.98 1 3 C-0.65 4.65 -2.3 6.3 -4 8 C-4 6.02 -4 4.04 -4 2 C-3.01 2 -2.02 2 -1 2 C-0.67 1.34 -0.34 0.68 0 0 Z " fill="#62A86E" transform="translate(292,326)"/>
<path d="M0 0 C0 1.65 0 3.3 0 5 C-0.99 5.495 -0.99 5.495 -2 6 C-2.99 4.35 -3.98 2.7 -5 1 C-3 0 -3 0 0 0 Z " fill="#8BCD70" transform="translate(222,325)"/>
<path d="M0 0 C2.9375 0.8125 2.9375 0.8125 6 2 C6.33 2.99 6.66 3.98 7 5 C6.01 5 5.02 5 4 5 C1.8125 2.5 1.8125 2.5 0 0 Z " fill="#8AC36D" transform="translate(201,309)"/>
<path d="M0 0 C0.66 0 1.32 0 2 0 C1.67 2.97 1.34 5.94 1 9 C-1 7 -1 7 -1.1875 3.9375 C-1 1 -1 1 0 0 Z " fill="#13280D" transform="translate(205,279)"/>
</svg>
