<?xml version="1.0" encoding="UTF-8"?>
<!DOCTYPE svg PUBLIC "-//W3C//DTD SVG 1.1//EN" "http://www.w3.org/Graphics/SVG/1.1/DTD/svg11.dtd">
<!-- Creator: CorelDRAW -->
<svg xmlns="http://www.w3.org/2000/svg" xml:space="preserve" width="2048px" height="2048px" style="shape-rendering:geometricPrecision; text-rendering:geometricPrecision; image-rendering:optimizeQuality; fill-rule:evenodd; clip-rule:evenodd"
viewBox="0 0 2048 2048"
 xmlns:xlink="http://www.w3.org/1999/xlink">
 <defs>
  <style type="text/css">
   <![CDATA[
    .fil2 {fill:none}
    .fil17 {fill:none;fill-rule:nonzero}
    .fil19 {fill:#161616}
    .fil18 {fill:#1A1A1A}
    .fil20 {fill:#1B1B1B}
    .fil3 {fill:#1F1F1F}
    .fil10 {fill:#212121}
    .fil8 {fill:#3F51B5}
    .fil1 {fill:#7CB342}
    .fil0 {fill:#AED581}
    .fil9 {fill:#B19A75}
    .fil7 {fill:#BF8356}
    .fil16 {fill:#CC4F29}
    .fil5 {fill:#E0E0E0}
    .fil11 {fill:#E2CDAA}
    .fil6 {fill:#EF6C00}
    .fil12 {fill:#F2CFB1}
    .fil4 {fill:#FFD3AE}
    .fil14 {fill:#212121;fill-rule:nonzero}
    .fil13 {fill:#B32C04;fill-rule:nonzero}
    .fil15 {fill:#BF360C;fill-rule:nonzero}
   ]]>
  </style>
   <clipPath id="id0">
    <path d="M1024 0c565.539,0 1024,458.461 1024,1024 0,565.539 -458.461,1024 -1024,1024 -565.539,0 -1024,-458.461 -1024,-1024 0,-565.539 458.461,-1024 1024,-1024z"/>
   </clipPath>
 </defs>
 <g id="Layer_x0020_1">
  <metadata id="CorelCorpID_0Corel-Layer"/>
  <path class="fil0" d="M1024 0c565.539,0 1024,458.461 1024,1024 0,565.539 -458.461,1024 -1024,1024 -565.539,0 -1024,-458.461 -1024,-1024 0,-565.539 458.461,-1024 1024,-1024z"/>
  <g style="clip-path:url(#id0)">
   <g id="_478234648">
    <g>
     <path id="_4620140001" class="fil1" d="M1980.32 1917.29l0 0zm-1135.88 -1135.88l0 0z"/>
     <path id="_462026840" class="fil1" d="M1982.4 1915.79l0 0zm-1135.88 -1135.88l0 0z"/>
     <polygon id="_462027680" class="fil1" points="847.727,778.982 1983.61,1914.86 1983.62,1914.85 1983.64,1914.84 1983.65,1914.83 1983.67,1914.82 1983.68,1914.81 1983.69,1914.8 1983.71,1914.78 1983.72,1914.77 847.842,778.89 847.828,778.902 847.814,778.913 847.799,778.925 847.784,778.936 847.77,778.948 847.756,778.959 847.742,778.971 "/>
     <polygon id="_462026504" class="fil1" points="844.593,781.957 1980.47,1917.84 1980.49,1917.86 844.606,781.982 "/>
     <polygon id="_462034928" class="fil1" points="976.291,686.982 2112.17,1822.86 2111.33,1825.37 2110.55,1827.75 2109.83,1830.03 2109.16,1832.2 2108.52,1834.26 2107.93,1836.23 2107.36,1838.11 2106.82,1839.9 2106.29,1841.61 2105.77,1843.24 2105.25,1844.8 2104.72,1846.3 2104.19,1847.74 2103.64,1849.12 2103.06,1850.45 2102.45,1851.73 2101.81,1852.98 2101.12,1854.19 2100.38,1855.38 2099.58,1856.53 2098.72,1857.67 2097.79,1858.8 2096.78,1859.91 2095.68,1861.02 2094.5,1862.14 2093.21,1863.26 2091.82,1864.39 2090.33,1865.54 2088.71,1866.71 2086.97,1867.91 2085.1,1869.14 2083.09,1870.41 947.208,734.529 949.217,733.26 951.088,732.029 952.829,730.83 954.445,729.658 955.944,728.509 957.331,727.377 958.614,726.256 959.8,725.142 960.896,724.03 961.906,722.914 962.839,721.79 963.701,720.651 964.5,719.493 965.24,718.31 965.929,717.1 966.574,715.853 967.181,714.566 967.757,713.235 968.309,711.854 968.842,710.418 969.366,708.921 969.884,707.358 970.405,705.725 970.934,704.016 971.48,702.224 972.047,700.347 972.643,698.378 973.275,696.314 973.95,694.146 974.672,691.871 975.45,689.486 "/>
     <polygon id="_462016376" class="fil1" points="854.736,769.527 1990.62,1905.41 1990.17,1906.7 1989.63,1907.94 1988.97,1909.13 1988.19,1910.28 1987.29,1911.41 1986.25,1912.53 1985.06,1913.64 1983.72,1914.77 847.842,778.89 849.18,777.761 850.365,776.644 851.405,775.527 852.31,774.396 853.087,773.244 853.745,772.054 854.292,770.82 "/>
     <polygon id="_462023336" class="fil1" points="988.999,684.086 2124.88,1819.97 2123.89,1820.6 2122.86,1821.17 2121.8,1821.7 2120.69,1822.16 2119.54,1822.56 2118.36,1822.89 2117.13,1823.14 2115.87,1823.32 979.985,687.434 981.25,687.258 982.476,687.003 983.662,686.675 984.809,686.277 985.915,685.815 986.983,685.291 988.011,684.714 "/>
     <polygon id="_462036872" class="fil1" points="979.985,687.434 2115.87,1823.32 2115.34,1823.36 2114.83,1823.37 2114.34,1823.36 2113.86,1823.31 2113.41,1823.24 2112.98,1823.14 2112.57,1823.02 2112.17,1822.86 976.291,686.982 976.686,687.133 977.1,687.258 977.532,687.357 977.983,687.428 978.454,687.473 978.944,687.488 979.455,687.475 "/>
     <path id="_462024320" class="fil1" d="M2100.41 1886.68l0 0zm-1135.88 -1135.88l0 0z"/>
     <polygon id="_462040976" class="fil1" points="947.208,734.529 2083.09,1870.41 2081.54,1871.34 2079.95,1872.26 2078.32,1873.15 2076.64,1874.02 2074.92,1874.86 2073.17,1875.69 2071.38,1876.5 2069.55,1877.28 2067.69,1878.04 2065.8,1878.78 2063.89,1879.5 2061.94,1880.2 2059.98,1880.88 2057.99,1881.53 2055.98,1882.16 2053.96,1882.77 2051.92,1883.36 2049.86,1883.92 2047.8,1884.47 2045.72,1884.99 2043.64,1885.49 2041.55,1885.96 2039.46,1886.42 2037.37,1886.85 2035.28,1887.26 2033.19,1887.64 2031.1,1888 2029.03,1888.34 2026.96,1888.66 2024.9,1888.95 2022.86,1889.23 2020.83,1889.47 884.951,753.59 886.979,753.343 889.022,753.073 891.079,752.779 893.147,752.462 895.223,752.122 897.307,751.759 899.395,751.374 901.487,750.966 903.579,750.534 905.67,750.081 907.758,749.605 909.84,749.106 911.916,748.586 913.981,748.042 916.037,747.477 918.076,746.888 920.102,746.279 922.11,745.647 924.098,744.993 926.063,744.317 928.006,743.619 929.922,742.9 931.81,742.159 933.668,741.397 935.494,740.613 937.287,739.808 939.043,738.981 940.761,738.133 942.438,737.264 944.074,736.373 945.663,735.461 "/>
     <polygon id="_462039776" class="fil1" points="884.951,753.59 2020.83,1889.47 2018.76,1889.7 2016.71,1889.91 2014.69,1890.09 2012.69,1890.24 2010.71,1890.37 2008.77,1890.48 2006.86,1890.56 2004.98,1890.62 2003.14,1890.65 2001.33,1890.65 1999.57,1890.63 1997.85,1890.58 1996.18,1890.51 1994.55,1890.41 1992.97,1890.29 1991.45,1890.14 855.566,754.255 857.091,754.405 858.669,754.529 860.296,754.627 861.97,754.7 863.69,754.746 865.453,754.768 867.256,754.763 869.098,754.733 870.976,754.678 872.888,754.597 874.833,754.492 876.806,754.361 878.807,754.206 880.833,754.026 882.882,753.82 "/>
     <polygon id="_462022328" class="fil1" points="855.566,754.255 1991.45,1890.14 1989.86,1889.95 1988.33,1889.72 1986.87,1889.47 1985.49,1889.19 1984.18,1888.87 1982.95,1888.53 1981.8,1888.15 1980.73,1887.74 1979.75,1887.3 1978.86,1886.83 1978.07,1886.33 1977.36,1885.79 1976.76,1885.23 840.876,749.343 841.482,749.908 842.185,750.443 842.983,750.945 843.873,751.417 844.854,751.857 845.92,752.266 847.07,752.643 848.3,752.989 849.609,753.303 850.993,753.588 852.449,753.84 853.974,754.064 "/>
     <polygon id="_462033728" class="fil1" points="976.307,482.191 2112.19,1618.07 2114.64,1620.88 2116.91,1623.89 2118.96,1627.11 2120.79,1630.53 2122.37,1634.15 2123.68,1637.98 2124.7,1642.02 2125.41,1646.27 2125.79,1650.72 2125.81,1655.38 2125.47,1660.25 989.591,524.37 989.933,519.5 989.905,514.838 989.526,510.385 988.816,506.141 987.796,502.101 986.487,498.27 984.908,494.644 983.081,491.224 981.024,488.009 978.76,484.999 "/>
     <polygon id="_462034256" class="fil1" points="996.249,527.865 2132.13,1663.75 2133.01,1664.77 2133.83,1665.89 2134.59,1667.11 2135.29,1668.42 2135.94,1669.81 2136.54,1671.28 2137.09,1672.82 2137.59,1674.41 2138.04,1676.06 2138.46,1677.76 2138.83,1679.49 2139.17,1681.26 2139.47,1683.05 2139.73,1684.85 2139.96,1686.67 2140.17,1688.48 2140.34,1690.29 2140.49,1692.09 2140.62,1693.87 2140.72,1695.61 2140.81,1697.33 2140.88,1699 2140.94,1700.62 2140.98,1702.18 2141.02,1703.68 2141.04,1705.11 1005.16,569.226 1005.14,567.799 1005.1,566.3 1005.06,564.736 1005,563.116 1004.93,561.445 1004.84,559.731 1004.74,557.983 1004.61,556.205 1004.46,554.409 1004.28,552.598 1004.08,550.783 1003.85,548.969 1003.58,547.164 1003.29,545.374 1002.95,543.609 1002.58,541.875 1002.16,540.18 1001.71,538.53 1001.2,536.933 1000.66,535.398 1000.06,533.93 999.408,532.536 998.704,531.226 997.945,530.006 997.126,528.883 "/>
     <polygon id="_462034448" class="fil1" points="1005.16,569.226 2141.04,1705.11 2141.08,1708.05 2141.09,1710.92 2141.06,1713.72 2141.01,1716.47 2140.94,1719.15 2140.83,1721.77 2140.7,1724.34 2140.55,1726.85 2140.37,1729.3 2140.16,1731.71 2139.93,1734.06 2139.68,1736.37 2139.4,1738.62 2139.11,1740.84 2138.79,1743.01 2138.45,1745.14 2138.09,1747.23 2137.71,1749.28 2137.31,1751.3 2136.89,1753.28 2136.45,1755.24 2135.99,1757.16 2135.52,1759.05 2135.03,1760.92 2134.53,1762.76 2134.01,1764.58 2133.47,1766.38 2132.92,1768.16 2132.36,1769.93 2131.78,1771.67 2131.19,1773.41 2130.59,1775.13 994.707,639.251 995.31,637.528 995.899,635.793 996.477,634.045 997.04,632.281 997.589,630.501 998.126,628.701 998.646,626.881 999.151,625.037 999.64,623.17 1000.11,621.276 1000.57,619.354 1001.01,617.402 1001.42,615.417 1001.82,613.4 1002.21,611.347 1002.57,609.257 1002.91,607.127 1003.23,604.956 1003.52,602.742 1003.8,600.484 1004.05,598.179 1004.28,595.825 1004.48,593.422 1004.67,590.966 1004.82,588.456 1004.95,585.891 1005.06,583.268 1005.13,580.585 1005.18,577.842 1005.2,575.035 1005.2,572.164 "/>
     <polygon id="_462033776" class="fil1" points="997.443,641.287 2133.32,1777.17 2134.13,1778.11 2134.88,1779.18 2135.55,1780.4 2136.15,1781.77 2136.67,1783.3 2137.1,1784.99 2137.43,1786.85 2137.66,1788.88 2137.78,1791.09 2137.79,1793.49 2137.67,1796.08 2137.43,1798.86 2137.05,1801.85 1001.17,665.967 1001.55,662.979 1001.79,660.193 1001.91,657.605 1001.9,655.209 1001.78,652.998 1001.55,650.966 1001.22,649.108 1000.79,647.418 1000.27,645.891 999.672,644.52 998.995,643.3 998.251,642.224 "/>
     <polygon id="_462042200" class="fil1" points="1001.17,665.967 2137.05,1801.85 2136.92,1802.56 2136.7,1803.4 2136.4,1804.35 2136.02,1805.4 2135.55,1806.53 2135.01,1807.72 2134.38,1808.97 2133.66,1810.25 2132.86,1811.56 2131.98,1812.86 2131.01,1814.16 2129.95,1815.44 2128.81,1816.67 2127.59,1817.84 2126.28,1818.95 2124.88,1819.97 988.999,684.086 990.396,683.067 991.707,681.962 992.932,680.786 994.072,679.554 995.126,678.28 996.095,676.982 996.979,675.674 997.778,674.371 998.494,673.088 999.125,671.841 999.673,670.646 1000.14,669.515 1000.52,668.468 1000.82,667.517 1001.03,666.678 "/>
     <path id="_462027872" class="fil1" d="M2100.43 1886.66l0 0zm-1135.88 -1135.88l0 0z"/>
     <polygon id="_462032744" class="fil1" points="1443.96,544.074 2579.84,1679.96 2582.51,1683.25 2585.04,1686.66 2587.43,1690.18 2589.69,1693.81 2591.81,1697.54 2593.79,1701.36 2595.63,1705.28 2597.34,1709.28 2598.92,1713.36 2600.36,1717.52 2601.66,1721.74 2602.83,1726.02 2603.87,1730.36 2604.78,1734.76 2605.55,1739.2 2606.2,1743.67 2606.71,1748.19 2607.09,1752.73 2607.35,1757.3 2607.47,1761.88 2607.47,1766.47 2607.34,1771.08 1471.45,635.195 1471.59,630.592 1471.59,625.997 1471.47,621.414 1471.21,616.848 1470.83,612.305 1470.32,607.792 1469.67,603.313 1468.9,598.875 1467.99,594.481 1466.95,590.141 1465.78,585.856 1464.47,581.633 1463.03,577.479 1461.46,573.398 1459.75,569.397 1457.91,565.48 1455.93,561.654 1453.81,557.924 1451.55,554.295 1449.16,550.773 1446.63,547.365 "/>
     <polygon id="_462039800" class="fil1" points="1471.45,635.195 2607.34,1771.08 2607.26,1772.71 2607.16,1774.35 2607.06,1775.99 2606.93,1777.62 2606.79,1779.26 2606.63,1780.89 2606.46,1782.52 2606.27,1784.15 2606.07,1785.78 2605.85,1787.41 2605.61,1789.03 2605.36,1790.65 2605.09,1792.27 2604.81,1793.89 2604.51,1795.5 2604.19,1797.11 2603.86,1798.71 2603.52,1800.31 2603.16,1801.91 2602.78,1803.5 2602.39,1805.08 2601.98,1806.66 2601.56,1808.24 2601.12,1809.81 2600.67,1811.37 2600.2,1812.93 2599.72,1814.47 2599.22,1816.02 2598.7,1817.55 2598.17,1819.08 2597.63,1820.6 2597.07,1822.12 1461.19,686.234 1461.75,684.721 1462.29,683.2 1462.82,681.671 1463.34,680.136 1463.84,678.592 1464.32,677.043 1464.79,675.486 1465.24,673.923 1465.68,672.355 1466.1,670.78 1466.51,669.2 1466.9,667.614 1467.28,666.024 1467.64,664.428 1467.98,662.829 1468.31,661.224 1468.63,659.617 1468.93,658.004 1469.21,656.39 1469.48,654.772 1469.73,653.15 1469.96,651.526 1470.18,649.9 1470.39,648.271 1470.58,646.64 1470.75,645.008 1470.91,643.374 1471.05,641.739 1471.17,640.105 1471.28,638.468 1471.38,636.832 "/>
     <polygon id="_462018224" class="fil1" points="1461.19,686.234 2597.07,1822.12 2596.49,1823.64 2595.89,1825.16 2595.27,1826.66 2594.64,1828.16 2594,1829.65 2593.34,1831.13 2592.66,1832.6 2591.97,1834.06 2591.26,1835.52 2590.54,1836.96 2589.8,1838.39 2589.05,1839.81 2588.28,1841.22 2587.5,1842.62 2586.7,1844.01 2585.88,1845.38 2585.05,1846.74 2584.21,1848.1 2583.35,1849.44 2582.47,1850.76 2581.58,1852.08 2580.68,1853.38 2579.76,1854.66 2578.82,1855.93 2577.87,1857.19 2576.9,1858.44 2575.92,1859.67 2574.92,1860.88 2573.91,1862.08 2572.89,1863.27 2571.85,1864.44 2570.79,1865.59 1434.91,729.707 1435.97,728.554 1437.01,727.385 1438.03,726.2 1439.04,725 1440.04,723.785 1441.02,722.555 1441.99,721.31 1442.94,720.053 1443.88,718.779 1444.8,717.493 1445.7,716.193 1446.59,714.879 1447.47,713.553 1448.33,712.214 1449.17,710.862 1450,709.499 1450.82,708.123 1451.62,706.736 1452.4,705.337 1453.17,703.927 1453.92,702.507 1454.66,701.076 1455.38,699.634 1456.09,698.182 1456.78,696.72 1457.46,695.248 1458.12,693.768 1458.76,692.278 1459.39,690.78 1460.01,689.273 1460.6,687.758 "/>
     <polygon id="_462014648" class="fil1" points="1434.91,729.707 2570.79,1865.59 2568.29,1868.19 2565.72,1870.71 2563.07,1873.13 2560.35,1875.46 2557.55,1877.68 2554.68,1879.8 2551.73,1881.82 2548.71,1883.73 2545.62,1885.52 2542.45,1887.2 2539.22,1888.76 2535.91,1890.2 2532.53,1891.52 2529.07,1892.7 2525.55,1893.76 2521.95,1894.68 2518.29,1895.46 2514.55,1896.11 2510.74,1896.61 2506.87,1896.96 2502.92,1897.16 2498.91,1897.21 2494.83,1897.1 2490.68,1896.83 2486.46,1896.4 2482.18,1895.8 2477.82,1895.04 2473.4,1894.1 2468.92,1892.99 2464.37,1891.69 2459.75,1890.22 2455.07,1888.56 1319.18,752.679 1323.87,754.338 1328.49,755.812 1333.04,757.104 1337.52,758.216 1341.94,759.154 1346.29,759.921 1350.58,760.517 1354.8,760.947 1358.95,761.215 1363.03,761.324 1367.04,761.275 1370.99,761.073 1374.86,760.723 1378.67,760.223 1382.4,759.581 1386.07,758.797 1389.67,757.877 1393.19,756.821 1396.64,755.636 1400.03,754.321 1403.33,752.881 1406.57,751.32 1409.74,749.64 1412.83,747.845 1415.85,745.938 1418.8,743.921 1421.67,741.799 1424.47,739.574 1427.19,737.248 1429.84,734.827 1432.41,732.312 "/>
     <polygon id="_462017384" class="fil1" points="1310.63,749.233 2446.51,1885.12 2441.94,1883.05 2437.56,1880.89 2433.35,1878.65 2429.31,1876.33 2425.45,1873.93 2421.76,1871.46 2418.24,1868.9 2414.88,1866.28 2411.69,1863.59 2408.66,1860.83 2405.79,1858 2403.08,1855.12 1267.2,719.234 1269.91,722.122 1272.78,724.946 1275.81,727.706 1279,730.399 1282.35,733.022 1285.88,735.575 1289.57,738.051 1293.43,740.451 1297.47,742.772 1301.68,745.012 1306.06,747.166 "/>
     <polygon id="_462044432" class="fil1" points="1319.18,752.679 2455.07,1888.56 2407.19,2005.32 1271.3,869.435 "/>
     <polygon id="_462040040" class="fil1" points="1261.68,934.964 2397.56,2070.85 2392.89,2081.7 1257.01,945.819 "/>
     <polygon id="_462040448" class="fil1" points="1257.01,945.819 2392.89,2081.7 2389.67,2080.32 1253.79,944.434 "/>
     <polygon id="_462034664" class="fil1" points="1219.59,929.705 2355.47,2065.59 2352.25,2064.2 1216.37,928.319 "/>
     <polygon id="_462017408" class="fil1" points="1239.07,978.623 2374.95,2114.51 2375.14,2115.41 2375.26,2116.35 2375.29,2117.32 2375.22,2118.33 2375.05,2119.37 2374.78,2120.43 2374.39,2121.52 2373.87,2122.64 1237.99,986.754 1238.51,985.641 1238.9,984.551 1239.17,983.485 1239.34,982.446 1239.4,981.439 1239.38,980.463 1239.26,979.524 "/>
     <polygon id="_462016544" class="fil1" points="1237.99,986.754 2373.87,2122.64 2373.27,2123.75 2372.73,2124.62 2372.23,2125.29 2371.76,2125.78 2371.3,2126.1 2370.84,2126.29 2370.36,2126.37 2369.84,2126.37 1233.96,990.485 1234.48,990.489 1234.96,990.408 1235.42,990.218 1235.88,989.893 1236.35,989.41 1236.84,988.742 1237.39,987.865 "/>
     <polygon id="_462020624" class="fil1" points="1233.96,990.485 2369.84,2126.37 2368.92,2128.51 1233.04,992.63 "/>
     <polygon id="_462028712" class="fil1" points="1243.32,999.112 2379.2,2134.99 2380.3,2136.2 2381.21,2137.47 2381.88,2138.79 2382.3,2140.17 2382.43,2141.6 2382.23,2143.08 2381.67,2144.6 2380.72,2146.17 2379.34,2147.78 1243.46,1011.89 1244.84,1010.29 1245.79,1008.72 1246.35,1007.19 1246.55,1005.71 1246.42,1004.28 1246,1002.91 1245.32,1001.58 1244.42,1000.32 "/>
     <polygon id="_462045224" class="fil1" points="1243.46,1011.89 2379.34,2147.78 2378.37,2148.74 2377.46,2149.59 2376.62,2150.32 2375.81,2150.94 2375.04,2151.45 2374.27,2151.87 2373.51,2152.2 2372.74,2152.44 2371.94,2152.61 2371.09,2152.71 2370.19,2152.74 2369.22,2152.72 2368.16,2152.64 2367,2152.53 2365.73,2152.37 2364.34,2152.18 1228.45,1016.3 1229.85,1016.49 1231.12,1016.64 1232.28,1016.76 1233.34,1016.84 1234.31,1016.86 1235.21,1016.83 1236.05,1016.73 1236.86,1016.56 1237.63,1016.32 1238.39,1015.99 1239.15,1015.57 1239.93,1015.06 1240.73,1014.44 1241.58,1013.71 1242.49,1012.86 "/>
     <polygon id="_462014048" class="fil1" points="1228.45,1016.3 2364.34,2152.18 2364.43,2152.66 2364.87,2153.2 1228.99,1017.31 1228.55,1016.78 "/>
     <polygon id="_462022160" class="fil1" points="1236.97,1023.23 2372.85,2159.11 2374.01,2160.32 2375,2161.65 2375.77,2163.09 2376.27,2164.64 2376.43,2166.33 2376.2,2168.14 2375.52,2170.09 1239.64,1034.21 1240.31,1032.26 1240.55,1030.45 1240.39,1028.76 1239.89,1027.2 1239.12,1025.77 1238.12,1024.44 "/>
     <polygon id="_462018560" class="fil1" points="978.924,782.574 2114.81,1918.46 2116.02,1919.88 2117.18,1921.46 2118.32,1923.2 2118.37,1923.28 2118.42,1923.35 2118.47,1923.43 2118.52,1923.51 2118.57,1923.59 2118.62,1923.67 2118.67,1923.76 2118.72,1923.84 982.834,787.957 982.784,787.874 982.736,787.792 982.686,787.712 982.638,787.632 982.589,787.551 982.54,787.472 982.491,787.394 982.442,787.316 981.296,785.58 980.134,784.002 "/>
     <polygon id="_462013472" class="fil1" points="1176.76,1029.15 2312.64,2165.04 2312.11,2164.87 2311.57,2164.71 2311.04,2164.55 2310.51,2164.38 2309.98,2164.22 2309.45,2164.06 2308.92,2163.9 2308.4,2163.74 1172.52,1027.86 1173.04,1028.02 1173.57,1028.18 1174.1,1028.34 1174.63,1028.5 1175.16,1028.66 1175.69,1028.83 1176.23,1028.99 "/>
     <polygon id="_462024704" class="fil1" points="813.302,875.665 1949.18,2011.55 1948.77,2013.21 1948.38,2014.7 1948.03,2015.99 1947.72,2017.09 1947.46,2017.97 1947.27,2018.62 1947.14,2019.02 1947.1,2019.15 811.217,883.269 811.261,883.133 811.385,882.734 811.581,882.088 811.838,881.209 812.149,880.112 812.502,878.813 812.89,877.326 "/>
     <polygon id="_462040280" class="fil1" points="811.553,790.603 1947.43,1926.49 1947.43,1926.49 1947.43,1926.5 1947.44,1926.51 1947.44,1926.53 1947.44,1926.55 1947.44,1926.58 1947.45,1926.61 1947.45,1926.65 811.571,790.763 811.567,790.726 811.563,790.693 811.56,790.666 811.557,790.644 811.555,790.626 811.554,790.614 811.553,790.606 "/>
     <polygon id="_462015944" class="fil1" points="1008.42,924.409 2144.3,2060.29 2145.02,2067.09 2145.72,2073.89 2146.4,2080.66 2147.05,2087.4 2147.69,2094.09 2148.3,2100.71 2148.89,2107.26 2149.46,2113.72 2150.01,2120.07 2150.53,2126.31 2151.03,2132.42 2151.51,2138.39 2151.96,2144.19 2152.39,2149.83 2152.8,2155.28 2153.18,2160.54 2153.54,2165.58 2153.87,2170.4 2154.17,2174.98 2154.45,2179.3 2154.71,2183.37 2154.93,2187.15 2155.14,2190.64 2155.31,2193.83 2155.46,2196.69 2155.58,2199.23 2155.67,2201.41 2155.74,2203.24 2155.78,2204.7 2155.79,2205.76 2155.77,2206.43 2155.72,2206.68 2154.6,2207.44 2153.48,2208.18 2152.38,2208.9 2151.3,2209.59 2150.23,2210.26 2149.17,2210.91 2148.12,2211.54 2147.09,2212.15 1011.21,1076.26 1012.24,1075.66 1013.29,1075.03 1014.34,1074.38 1015.42,1073.71 1016.5,1073.01 1017.6,1072.3 1018.71,1071.56 1019.84,1070.8 1019.89,1070.55 1019.91,1069.88 1019.9,1068.81 1019.86,1067.36 1019.79,1065.53 1019.7,1063.34 1019.58,1060.81 1019.43,1057.95 1019.25,1054.76 1019.05,1051.27 1018.82,1047.49 1018.57,1043.42 1018.29,1039.09 1017.98,1034.51 1017.65,1029.7 1017.3,1024.65 1016.92,1019.4 1016.51,1013.95 1016.08,1008.31 1015.63,1002.5 1015.15,996.539 1014.65,990.431 1014.13,984.192 1013.58,977.837 1013.01,971.378 1012.42,964.83 1011.81,958.205 1011.17,951.517 1010.52,944.781 1009.84,938.007 1009.14,931.213 "/>
     <polygon id="_462013664" class="fil1" points="1016.92,919.109 2152.8,2054.99 2151.29,2056.42 2149.9,2057.71 2148.65,2058.82 2147.55,2059.75 2146.62,2060.48 2145.88,2060.99 2145.33,2061.27 2144.99,2061.3 1009.11,925.414 1009.45,925.387 1010,925.11 1010.74,924.598 1011.67,923.87 1012.77,922.94 1014.02,921.825 1015.41,920.542 "/>
     <polygon id="_462032264" class="fil1" points="1172.52,1027.86 2308.4,2163.74 2304.11,2164.08 2299.61,2164.06 2294.92,2163.67 2290.04,2162.95 2285,2161.89 2279.82,2160.51 2274.51,2158.83 2269.09,2156.86 2263.58,2154.61 2258,2152.08 2252.37,2149.31 2246.69,2146.29 2241,2143.05 2235.31,2139.59 2229.63,2135.92 2223.98,2132.07 2218.39,2128.04 2212.87,2123.84 2207.43,2119.49 2202.1,2115.01 2196.89,2110.39 2191.83,2105.67 2186.92,2100.84 1051.04,964.959 1055.94,969.785 1061.01,974.512 1066.22,979.124 1071.55,983.611 1076.99,987.959 1082.51,992.155 1088.1,996.186 1093.75,1000.04 1099.43,1003.71 1105.12,1007.17 1110.81,1010.41 1116.49,1013.43 1122.12,1016.2 1127.7,1018.72 1133.21,1020.98 1138.63,1022.95 1143.94,1024.63 1149.12,1026.01 1154.16,1027.06 1159.03,1027.79 1163.73,1028.17 1168.23,1028.2 "/>
     <polygon id="_462018344" class="fil1" points="1069.01,874.953 2204.89,2010.84 2204.64,2010.99 2203.93,2011.46 2202.8,2012.2 2201.27,2013.21 2199.39,2014.46 2197.2,2015.93 2194.73,2017.6 2192.01,2019.46 1056.13,883.574 1058.84,881.72 1061.32,880.046 1063.51,878.575 1065.39,877.325 1066.92,876.318 1068.05,875.573 1068.76,875.111 "/>
     <polygon id="_462015800" class="fil1" points="1011.21,1076.26 2147.09,2212.15 2147.2,2212.44 2147.31,2212.73 2147.42,2213.02 2147.53,2213.3 2147.63,2213.59 2147.73,2213.86 2147.83,2214.14 2147.93,2214.41 1012.05,1078.52 1011.95,1078.26 1011.85,1077.98 1011.75,1077.7 1011.64,1077.42 1011.54,1077.14 1011.43,1076.85 1011.32,1076.56 "/>
     <polygon id="_462014240" class="fil1" points="811.217,883.269 1947.1,2019.15 1926.67,2059.53 790.791,923.646 "/>
     <polygon id="_462038768" class="fil1" points="748.678,893.5 1884.56,2029.38 1884.48,2029.33 1884.4,2029.29 1884.33,2029.24 1884.26,2029.2 1884.19,2029.16 1884.13,2029.12 1884.07,2029.09 1884.01,2029.06 748.133,893.175 748.189,893.207 748.248,893.24 748.312,893.278 748.378,893.317 748.447,893.358 748.521,893.403 748.597,893.45 "/>
     <polygon id="_462044816" class="fil1" points="748.133,893.175 1884.01,2029.06 1883.06,2028.47 1881.82,2027.64 1880.36,2026.59 1878.71,2025.36 1876.92,2024 1875.05,2022.56 1873.12,2021.05 1871.21,2019.54 1869.34,2018.05 1867.57,2016.63 1865.94,2015.32 1864.5,2014.16 1863.3,2013.18 1862.39,2012.44 1861.8,2011.96 1861.6,2011.79 725.718,875.91 725.924,876.077 726.506,876.555 727.421,877.3 728.62,878.274 730.058,879.438 731.684,880.749 733.456,882.168 735.324,883.655 737.242,885.17 739.164,886.673 741.042,888.122 742.829,889.479 744.479,890.703 745.943,891.754 747.178,892.592 "/>
     <polygon id="_462040208" class="fil1" points="789.963,923.04 1925.84,2058.92 1923.82,2064.18 1921.48,2069.51 1918.85,2074.88 1915.93,2080.28 1912.75,2085.7 1909.32,2091.12 1905.66,2096.54 1901.78,2101.92 1897.7,2107.26 1893.44,2112.54 1889,2117.75 1884.42,2122.88 1879.7,2127.9 1874.87,2132.81 1869.93,2137.58 1864.9,2142.21 1859.8,2146.68 1854.65,2150.97 1849.46,2155.07 1844.25,2158.97 1839.04,2162.64 1833.84,2166.08 1828.66,2169.27 1823.53,2172.2 1818.45,2174.84 1813.45,2177.19 1808.55,2179.23 1803.75,2180.94 1799.08,2182.32 1794.55,2183.34 1790.18,2183.99 1785.98,2184.26 650.096,1048.37 654.296,1048.11 658.669,1047.46 663.2,1046.44 667.871,1045.06 672.668,1043.35 677.573,1041.31 682.57,1038.96 687.644,1036.31 692.777,1033.39 697.954,1030.2 703.158,1026.76 708.374,1023.09 713.584,1019.19 718.771,1015.09 723.922,1010.8 729.018,1006.33 734.045,1001.7 738.986,996.926 743.822,992.019 748.541,986.996 753.123,981.871 757.555,976.659 761.819,971.376 765.899,966.035 769.778,960.653 773.442,955.242 776.872,949.82 780.053,944.4 782.969,938.997 785.604,933.627 787.94,928.302 "/>
     <polygon id="_462029792" class="fil1" points="763.812,1157.71 1899.69,2293.6 1899.03,2293.36 1898.44,2293.16 1897.94,2292.98 1897.52,2292.84 1897.19,2292.73 1896.95,2292.65 1896.8,2292.6 1896.75,2292.59 760.867,1156.71 760.916,1156.72 761.064,1156.77 761.305,1156.85 761.638,1156.96 762.057,1157.1 762.562,1157.27 763.149,1157.48 "/>
     <polygon id="_462034832" class="fil1" points="594.026,1020.4 1729.91,2156.29 1727.42,2156.37 1725.52,2156.69 1724.08,2157.09 1722.95,2157.4 1721.98,2157.46 1721.05,2157.09 1720.01,2156.13 584.126,1020.25 585.171,1021.21 586.102,1021.58 587.065,1021.52 588.198,1021.21 589.642,1020.81 591.538,1020.48 "/>
     <polygon id="_462025832" class="fil1" points="594.957,1045.15 1730.84,2181.03 1729.51,2181.4 1728.3,2181.72 1727.19,2181.99 1726.18,2182.21 1725.24,2182.36 1724.37,2182.46 1723.55,2182.48 1722.75,2182.43 1721.98,2182.31 1721.21,2182.1 1720.44,2181.81 1719.64,2181.43 1718.8,2180.96 1717.91,2180.39 1716.95,2179.71 1715.91,2178.93 580.033,1043.05 581.071,1043.83 582.029,1044.5 582.919,1045.08 583.757,1045.55 584.558,1045.93 585.334,1046.22 586.101,1046.43 586.872,1046.55 587.665,1046.6 588.491,1046.57 589.363,1046.48 590.3,1046.33 591.313,1046.11 592.418,1045.84 593.627,1045.52 "/>
     <polygon id="_462012920" class="fil1" points="621.514,1060.82 1757.4,2196.7 1755.02,2197.62 1752.55,2198.57 1750,2199.52 1747.42,2200.44 1744.8,2201.32 1742.2,2202.12 1739.62,2202.8 1737.1,2203.36 1734.65,2203.74 1732.31,2203.94 1730.1,2203.91 1728.04,2203.64 1726.15,2203.09 1724.47,2202.23 1723.02,2201.04 587.137,1065.16 588.59,1066.35 590.271,1067.2 592.154,1067.76 594.215,1068.03 596.429,1068.06 598.771,1067.86 601.217,1067.47 603.74,1066.92 606.318,1066.23 608.924,1065.44 611.534,1064.56 614.123,1063.63 616.666,1062.68 619.138,1061.74 "/>
     <polygon id="_462029552" class="fil1" points="650.096,1048.37 1785.98,2184.26 1784.28,2185.03 1782.56,2185.82 1780.82,2186.61 1779.08,2187.41 1777.32,2188.21 1775.54,2189.01 1773.76,2189.82 1771.96,2190.62 1770.16,2191.41 1768.35,2192.2 1766.53,2192.99 1764.71,2193.76 1762.89,2194.52 1761.06,2195.26 1759.23,2195.99 1757.4,2196.7 621.514,1060.82 623.346,1060.11 625.177,1059.38 627.006,1058.64 628.832,1057.88 630.654,1057.1 632.47,1056.32 634.281,1055.53 636.083,1054.73 637.877,1053.93 639.661,1053.13 641.435,1052.33 643.196,1051.52 644.943,1050.73 646.676,1049.93 648.395,1049.15 "/>
     <polygon id="_462018872" class="fil1" points="829.204,1220.31 1965.09,2356.19 1964.34,2357.14 1963.51,2358.19 1962.59,2359.32 1961.6,2360.54 1960.53,2361.83 1959.39,2363.21 1958.17,2364.66 1956.89,2366.18 1955.55,2367.77 1954.14,2369.42 1952.68,2371.13 1951.16,2372.89 1949.58,2374.7 1947.96,2376.56 1946.29,2378.46 1944.57,2380.4 1942.81,2382.38 1941.02,2384.39 1939.18,2386.42 1937.32,2388.48 1935.42,2390.55 1933.5,2392.65 1931.55,2394.75 1929.58,2396.86 1927.59,2398.98 1925.59,2401.09 1923.57,2403.2 1921.54,2405.3 1919.5,2407.4 1917.46,2409.47 1915.42,2411.53 1913.38,2413.56 777.501,1277.68 779.542,1275.64 781.583,1273.59 783.623,1271.51 785.658,1269.42 787.686,1267.32 789.705,1265.21 791.709,1263.09 793.698,1260.98 795.668,1258.87 797.616,1256.76 799.54,1254.67 801.435,1252.6 803.301,1250.54 805.134,1248.5 806.931,1246.5 808.688,1244.52 810.406,1242.58 812.077,1240.68 813.701,1238.82 815.275,1237.01 816.797,1235.24 818.261,1233.54 819.668,1231.89 821.012,1230.3 822.292,1228.78 823.505,1227.33 824.647,1225.95 825.716,1224.65 826.71,1223.44 827.624,1222.3 828.457,1221.26 "/>
     <polygon id="_462036704" class="fil1" points="777.501,1277.68 1913.38,2413.56 1913.48,2413.93 1913.58,2414.31 1913.69,2414.69 1913.8,2415.08 1913.91,2415.48 1914.02,2415.88 1914.13,2416.29 1914.25,2416.71 778.367,1280.83 778.25,1280.41 778.136,1280 778.025,1279.59 777.915,1279.2 777.808,1278.81 777.703,1278.42 777.602,1278.05 "/>
     <polygon id="_462042080" class="fil1" points="835.579,1212.41 1971.46,2348.3 1970.84,2349.05 1970.17,2349.86 1969.46,2350.73 1968.69,2351.67 1967.88,2352.68 1967,2353.77 1966.08,2354.94 1965.09,2356.19 829.204,1220.31 830.194,1219.05 831.123,1217.88 831.995,1216.8 832.812,1215.79 833.577,1214.85 834.291,1213.98 834.957,1213.17 "/>
     <polygon id="_462041336" class="fil1" points="829.892,1048.88 1965.77,2184.76 1964.22,2185.22 1963.01,2185.33 1962.12,2185.14 1961.49,2184.69 825.611,1048.8 826.235,1049.26 827.133,1049.45 828.34,1049.33 "/>
     <polygon id="_462037640" class="fil1" points="907.266,1147.72 2043.15,2283.6 1974.92,2354.69 839.039,1218.81 "/>
     <polygon id="_462037544" class="fil1" points="1030.81,1399.23 2166.69,2535.12 2167.1,2535.76 2167.46,2536.43 2167.76,2537.11 2168.02,2537.82 2168.24,2538.56 2168.41,2539.33 2168.54,2540.12 2168.64,2540.96 2168.7,2541.83 2168.73,2542.74 2168.73,2543.7 2168.71,2544.71 2168.66,2545.76 2168.59,2546.87 2168.5,2548.04 2168.4,2549.27 2168.28,2550.56 2168.15,2551.91 2168.02,2553.33 2167.87,2554.83 2167.73,2556.4 2167.59,2558.05 2167.45,2559.77 2167.31,2561.58 2167.18,2563.48 2167.07,2565.47 2166.96,2567.55 2166.88,2569.73 2166.81,2572 2166.76,2574.38 2166.74,2576.86 2166.74,2579.45 1030.86,1443.56 1030.85,1440.98 1030.88,1438.5 1030.93,1436.12 1030.99,1433.84 1031.08,1431.67 1031.19,1429.59 1031.3,1427.6 1031.43,1425.7 1031.56,1423.89 1031.71,1422.16 1031.85,1420.52 1031.99,1418.95 1032.13,1417.45 1032.27,1416.03 1032.4,1414.67 1032.51,1413.38 1032.62,1412.16 1032.71,1410.99 1032.78,1409.88 1032.83,1408.83 1032.85,1407.82 1032.85,1406.86 1032.82,1405.95 1032.76,1405.08 1032.66,1404.24 1032.53,1403.44 1032.36,1402.68 1032.14,1401.94 1031.88,1401.23 1031.58,1400.55 1031.22,1399.88 "/>
     <polygon id="_462018056" class="fil1" points="778.367,1280.83 1914.25,2416.71 1914.56,2417.84 1914.89,2419.08 1915.25,2420.43 1915.63,2421.89 1916.04,2423.45 1916.46,2425.11 1916.9,2426.86 1917.36,2428.71 1917.83,2430.63 1918.32,2432.65 1918.83,2434.74 1919.34,2436.9 1919.86,2439.13 1920.4,2441.43 1920.94,2443.79 1921.49,2446.21 1922.05,2448.68 1922.61,2451.19 1923.17,2453.76 1923.74,2456.36 1924.31,2459 1924.87,2461.66 1925.43,2464.36 1926,2467.08 1926.55,2469.82 1927.1,2472.58 1927.64,2475.34 1928.18,2478.11 1928.7,2480.89 1929.22,2483.66 1929.72,2486.43 1930.21,2489.19 794.326,1353.3 793.838,1350.55 793.336,1347.78 792.823,1345.01 792.297,1342.23 791.763,1339.46 791.22,1336.69 790.67,1333.94 790.114,1331.2 789.553,1328.48 788.99,1325.78 788.424,1323.11 787.858,1320.47 787.293,1317.87 786.729,1315.31 786.168,1312.79 785.612,1310.33 785.062,1307.91 784.518,1305.55 783.983,1303.25 783.458,1301.02 782.944,1298.85 782.441,1296.77 781.952,1294.75 781.478,1292.82 781.02,1290.98 780.578,1289.22 780.155,1287.56 779.754,1286 779.372,1284.55 779.013,1283.19 778.678,1281.95 "/>
     <polygon id="_462013112" class="fil1" points="794.326,1353.3 1930.21,2489.19 1930.65,2489.91 1931.08,2490.64 1931.49,2491.37 1931.87,2492.11 1932.24,2492.85 1932.57,2493.59 1932.89,2494.33 1933.17,2495.07 797.293,1359.18 797.006,1358.44 796.693,1357.71 796.355,1356.97 795.993,1356.23 795.608,1355.49 795.2,1354.76 794.773,1354.03 "/>
     <polygon id="_462023240" class="fil1" points="797.293,1359.18 1933.17,2495.07 1933.52,2496.01 1933.87,2497 1934.23,2498.04 1934.59,2499.12 1934.96,2500.24 1935.33,2501.41 1935.71,2502.61 1936.09,2503.85 1936.47,2505.12 1936.85,2506.42 1937.23,2507.76 1937.6,2509.12 1937.98,2510.5 1938.35,2511.91 1938.72,2513.35 1939.08,2514.8 1939.44,2516.27 1939.78,2517.75 1940.13,2519.25 1940.46,2520.76 1940.78,2522.27 1941.09,2523.8 1941.39,2525.33 1941.68,2526.86 1941.95,2528.39 1942.21,2529.92 1942.46,2531.45 1942.69,2532.97 1942.9,2534.49 1943.09,2535.99 1943.26,2537.48 1943.42,2538.96 807.538,1403.08 807.383,1401.6 807.21,1400.11 807.017,1398.6 806.806,1397.09 806.578,1395.57 806.333,1394.04 806.073,1392.51 805.799,1390.98 805.511,1389.45 805.211,1387.92 804.899,1386.39 804.577,1384.87 804.245,1383.37 803.904,1381.87 803.555,1380.38 803.199,1378.92 802.837,1377.46 802.47,1376.03 802.098,1374.62 801.722,1373.23 801.345,1371.87 800.966,1370.54 800.586,1369.24 800.207,1367.96 799.829,1366.73 799.453,1365.52 799.08,1364.36 798.712,1363.24 798.347,1362.15 797.989,1361.12 797.637,1360.13 "/>
     <polygon id="_462038144" class="fil1" points="807.538,1403.08 1943.42,2538.96 1943.53,2539.98 1943.66,2541.11 1943.82,2542.35 1944.01,2543.69 1944.22,2545.13 1944.44,2546.64 1944.69,2548.24 1944.96,2549.91 1945.24,2551.65 1945.53,2553.44 1945.84,2555.29 1946.15,2557.18 1946.48,2559.11 1946.81,2561.07 1947.15,2563.06 1947.5,2565.06 1947.84,2567.08 1948.18,2569.09 1948.53,2571.11 1948.87,2573.11 1949.21,2575.1 1949.54,2577.06 1949.86,2578.99 1950.17,2580.88 1950.47,2582.73 1950.76,2584.53 1951.03,2586.27 1951.29,2587.94 1951.53,2589.54 1951.75,2591.07 1951.95,2592.5 1952.12,2593.85 816.242,1457.96 816.067,1456.62 815.87,1455.18 815.65,1453.66 815.411,1452.06 815.154,1450.39 814.881,1448.65 814.593,1446.85 814.292,1445 813.979,1443.11 813.656,1441.18 813.325,1439.21 812.99,1437.23 812.649,1435.22 812.304,1433.21 811.959,1431.19 811.614,1429.18 811.271,1427.18 810.933,1425.19 810.599,1423.23 810.273,1421.3 809.957,1419.41 809.65,1417.56 809.356,1415.77 809.076,1414.03 808.811,1412.36 808.563,1410.76 808.335,1409.24 808.127,1407.81 807.942,1406.47 807.781,1405.23 807.646,1404.1 "/>
     <polygon id="_462027008" class="fil1" points="1030.86,1443.56 2166.74,2579.45 2166.76,2581.51 2166.79,2583.58 2166.84,2585.65 2166.9,2587.72 2166.97,2589.79 2167.05,2591.86 2167.14,2593.93 2167.25,2595.99 2167.36,2598.04 2167.48,2600.08 2167.61,2602.11 2167.74,2604.13 2167.89,2606.14 2168.03,2608.12 2168.19,2610.09 2168.34,2612.04 2168.5,2613.97 2168.67,2615.87 2168.83,2617.75 2169,2619.6 2169.17,2621.43 2169.34,2623.22 2169.5,2624.98 2169.67,2626.7 2169.84,2628.39 2170,2630.05 2170.16,2631.66 2170.32,2633.23 2170.47,2634.76 2170.61,2636.24 2170.75,2637.68 2170.89,2639.07 1035.01,1503.18 1034.87,1501.8 1034.73,1500.36 1034.59,1498.88 1034.44,1497.35 1034.28,1495.78 1034.12,1494.16 1033.96,1492.51 1033.79,1490.82 1033.62,1489.1 1033.46,1487.34 1033.29,1485.54 1033.12,1483.72 1032.95,1481.87 1032.79,1479.99 1032.62,1478.09 1032.46,1476.16 1032.3,1474.21 1032.15,1472.24 1032,1470.25 1031.86,1468.25 1031.73,1466.23 1031.6,1464.2 1031.48,1462.16 1031.37,1460.1 1031.26,1458.04 1031.17,1455.98 1031.09,1453.91 1031.02,1451.84 1030.96,1449.77 1030.91,1447.69 1030.88,1445.63 "/>
     <polygon id="_462038288" class="fil1" points="816.242,1457.96 1952.12,2593.85 1952.13,2593.89 1952.13,2593.93 1952.14,2593.97 1952.14,2594.02 1952.15,2594.06 1952.15,2594.1 1952.16,2594.14 1952.17,2594.18 816.284,1458.3 816.278,1458.26 816.273,1458.22 816.268,1458.17 816.263,1458.13 816.257,1458.09 816.252,1458.05 816.246,1458.01 "/>
     <polygon id="_462026576" class="fil1" points="828.903,1464.29 1964.78,2600.17 1965.97,2601.3 1967.18,2602.56 831.298,1466.68 830.086,1465.42 "/>
     <polygon id="_462023552" class="fil1" points="831.298,1466.68 1967.18,2602.56 1969.07,2604.76 1970.97,2607.25 1972.86,2609.97 1974.73,2612.86 1976.55,2615.86 1978.31,2618.92 1979.99,2621.96 1981.57,2624.94 1983.03,2627.8 1984.36,2630.46 1985.53,2632.88 1986.53,2634.99 1987.34,2636.74 1987.95,2638.07 1988.32,2638.9 1988.45,2639.19 852.568,1503.31 852.439,1503.02 852.064,1502.18 851.462,1500.86 850.652,1499.11 849.65,1497 848.477,1494.58 847.15,1491.91 845.686,1489.06 844.106,1486.08 842.427,1483.03 840.667,1479.98 838.844,1476.98 836.978,1474.08 835.086,1471.37 833.187,1468.88 "/>
     <polygon id="_462032024" class="fil1" points="853.575,1504.09 1989.46,2639.97 1990.14,2640.81 1990.53,2641.7 1990.62,2642.64 1990.44,2643.63 1990,2644.67 1989.31,2645.74 1988.39,2646.85 1987.26,2647.98 1985.92,2649.15 1984.4,2650.33 1982.71,2651.54 1980.86,2652.75 1978.86,2653.98 1976.74,2655.21 1974.51,2656.45 1972.17,2657.67 1969.76,2658.9 1967.27,2660.11 1964.73,2661.3 1962.16,2662.48 1959.55,2663.63 1956.94,2664.75 1954.33,2665.84 1951.74,2666.9 1949.19,2667.91 1946.68,2668.88 1944.24,2669.8 1941.88,2670.66 1939.61,2671.47 1937.45,2672.21 1935.41,2672.89 799.534,1537.01 801.571,1536.33 803.733,1535.58 806.001,1534.78 808.364,1533.91 810.804,1532.99 813.309,1532.03 815.862,1531.01 818.45,1529.96 821.058,1528.87 823.671,1527.75 826.274,1526.6 828.852,1525.42 831.392,1524.23 833.877,1523.01 836.293,1521.79 838.626,1520.56 840.86,1519.33 842.982,1518.1 844.975,1516.87 846.827,1515.65 848.521,1514.45 850.044,1513.26 851.379,1512.1 852.513,1510.96 853.432,1509.86 854.118,1508.79 854.56,1507.75 854.742,1506.76 854.648,1505.82 854.264,1504.93 "/>
     <polygon id="_462033008" class="fil1" points="799.534,1537.01 1935.41,2672.89 1932.43,2673.9 1929.33,2675.02 1926.14,2676.22 1922.87,2677.5 1919.53,2678.85 1916.13,2680.26 1912.69,2681.72 1909.23,2683.21 1905.75,2684.72 1902.26,2686.25 1898.79,2687.79 1895.34,2689.31 1891.93,2690.82 1888.57,2692.3 1885.27,2693.73 1882.05,2695.12 1878.93,2696.44 1875.9,2697.69 1872.99,2698.85 1870.22,2699.92 1867.58,2700.89 1865.11,2701.74 1862.8,2702.46 1860.67,2703.04 1858.75,2703.47 1857.03,2703.74 1855.53,2703.84 1854.28,2703.76 1853.27,2703.48 1852.52,2703 716.637,1567.12 717.384,1567.6 718.394,1567.88 719.653,1567.96 721.149,1567.86 722.866,1567.59 724.793,1567.16 726.918,1566.57 729.225,1565.85 731.703,1565.01 734.337,1564.04 737.114,1562.97 740.021,1561.81 743.045,1560.56 746.174,1559.23 749.392,1557.85 752.689,1556.41 756.049,1554.94 759.459,1553.43 762.908,1551.9 766.38,1550.37 769.864,1548.84 773.346,1547.33 776.813,1545.84 780.25,1544.38 783.645,1542.97 786.987,1541.62 790.258,1540.34 793.45,1539.13 796.545,1538.02 "/>
     <polygon id="_462030896" class="fil1" points="1041.75,1505.76 2177.63,2641.64 2178.1,2642.64 2178.73,2643.88 2179.51,2645.34 2180.44,2646.99 2181.49,2648.79 2182.66,2650.74 2183.93,2652.8 2185.3,2654.94 2186.75,2657.14 2188.27,2659.37 2189.84,2661.61 2191.46,2663.83 2193.11,2666 2194.79,2668.11 2196.47,2670.11 2198.15,2671.99 1062.27,1536.11 1060.59,1534.23 1058.91,1532.22 1057.23,1530.12 1055.58,1527.95 1053.96,1525.73 1052.38,1523.49 1050.87,1521.26 1049.42,1519.06 1048.05,1516.91 1046.78,1514.86 1045.61,1512.91 1044.56,1511.1 1043.63,1509.46 1042.85,1508 1042.22,1506.76 "/>
     <polygon id="_462012944" class="fil1" points="940.658,1233.94 2076.54,2369.82 2075.17,2369.46 2073.96,2369.13 2072.9,2368.85 2072.02,2368.6 2071.32,2368.4 2070.81,2368.25 2070.49,2368.16 2070.38,2368.13 934.503,1232.25 934.611,1232.28 934.925,1232.37 935.437,1232.52 936.14,1232.72 937.022,1232.96 938.076,1233.25 939.29,1233.58 "/>
     <polygon id="_462013520" class="fil1" points="1186.52,1054.43 2322.4,2190.31 2322.36,2190.3 2322.32,2190.28 2322.28,2190.27 2322.24,2190.25 2322.2,2190.23 2322.17,2190.22 2322.13,2190.2 2322.09,2190.18 1186.21,1054.3 1186.24,1054.32 1186.28,1054.33 1186.32,1054.35 1186.36,1054.37 1186.4,1054.38 1186.44,1054.4 1186.48,1054.41 "/>
     <polygon id="_462044120" class="fil1" points="790.791,923.646 1926.67,2059.53 1926.66,2059.52 1926.62,2059.49 1926.55,2059.44 1926.46,2059.37 1926.34,2059.29 1926.2,2059.18 1926.03,2059.06 1925.84,2058.92 789.963,923.04 790.152,923.179 790.319,923.3 790.46,923.404 790.579,923.49 790.671,923.558 790.737,923.607 790.777,923.637 "/>
     <polygon id="_462031016" class="fil1" points="1012.05,1078.52 2147.93,2214.41 2148.67,2216.64 2149.47,2219.36 2150.33,2222.53 2151.23,2226.11 2152.18,2230.07 2153.17,2234.37 2154.18,2238.98 2155.23,2243.85 2156.3,2248.96 2157.38,2254.26 2158.47,2259.72 2159.57,2265.29 2160.67,2270.96 2161.76,2276.67 2162.84,2282.39 2163.91,2288.09 2164.95,2293.72 2165.96,2299.26 2166.94,2304.67 2167.88,2309.9 2168.78,2314.92 2169.63,2319.7 2170.42,2324.2 2171.16,2328.38 2171.83,2332.2 2172.42,2335.63 2172.94,2338.64 2173.38,2341.18 2173.73,2343.22 2173.98,2344.72 2174.14,2345.65 2174.2,2345.97 1038.31,1210.09 1038.26,1209.77 1038.1,1208.84 1037.85,1207.34 1037.5,1205.3 1037.06,1202.76 1036.54,1199.75 1035.94,1196.32 1035.28,1192.49 1034.54,1188.31 1033.75,1183.82 1032.9,1179.04 1032,1174.02 1031.06,1168.78 1030.08,1163.38 1029.07,1157.84 1028.02,1152.21 1026.96,1146.51 1025.88,1140.79 1024.79,1135.07 1023.69,1129.41 1022.59,1123.83 1021.5,1118.37 1020.42,1113.08 1019.35,1107.97 1018.3,1103.1 1017.29,1098.49 1016.3,1094.19 1015.35,1090.23 1014.45,1086.64 1013.59,1083.47 1012.79,1080.76 "/>
     <polygon id="_462022760" class="fil1" points="1038.31,1210.09 2174.2,2345.97 2174.14,2346.06 2173.96,2346.33 2173.68,2346.76 2173.27,2347.35 2172.76,2348.08 2172.13,2348.93 2171.39,2349.91 2170.55,2350.99 2169.59,2352.17 2168.52,2353.43 2167.36,2354.77 2166.08,2356.16 2164.7,2357.61 2163.21,2359.09 2161.63,2360.59 2159.94,2362.11 1024.06,1226.23 1025.75,1224.71 1027.33,1223.2 1028.82,1221.72 1030.2,1220.28 1031.47,1218.89 1032.64,1217.55 1033.71,1216.29 1034.66,1215.11 1035.51,1214.03 1036.25,1213.05 1036.88,1212.19 1037.39,1211.47 1037.79,1210.88 1038.08,1210.45 1038.26,1210.18 "/>
     <polygon id="_462013568" class="fil1" points="1062.27,1536.11 2198.15,2671.99 2199.02,2672.89 2199.95,2673.76 1064.07,1537.87 1063.14,1537 "/>
     <polygon id="_462017240" class="fil1" points="1040.64,1504.34 2176.52,2640.22 2177.16,2640.85 2177.63,2641.64 1041.75,1505.76 1041.27,1504.96 "/>
     <polygon id="_462039560" class="fil1" points="1125.71,1561.25 2261.6,2697.14 2262.81,2698.39 2263.76,2699.64 2264.49,2700.88 2265.02,2702.08 2265.4,2703.23 2265.66,2704.29 2265.84,2705.25 2265.98,2706.08 2266.11,2706.77 2266.27,2707.3 1130.39,1571.42 1130.23,1570.89 1130.1,1570.2 1129.96,1569.36 1129.78,1568.4 1129.52,1567.34 1129.14,1566.2 1128.61,1565 1127.88,1563.76 1126.93,1562.51 "/>
     <polygon id="_462019592" class="fil1" points="1130.39,1571.42 2266.27,2707.3 2266.51,2708.21 2266.38,2709.04 2265.91,2709.79 2265.12,2710.47 2264.02,2711.09 2262.63,2711.65 2260.96,2712.14 2259.04,2712.59 2256.87,2712.98 2254.48,2713.33 2251.88,2713.63 2249.08,2713.9 2246.12,2714.13 2242.99,2714.34 2239.72,2714.51 2236.33,2714.67 2232.83,2714.81 2229.24,2714.94 2225.57,2715.06 2221.84,2715.17 2218.07,2715.28 2214.28,2715.4 2210.48,2715.53 2206.68,2715.66 2202.91,2715.81 2199.18,2715.98 2195.51,2716.18 2191.91,2716.4 2188.41,2716.66 2185.01,2716.95 2181.74,2717.28 2178.61,2717.66 2176.47,2717.93 2174.2,2718.19 2171.81,2718.44 2169.3,2718.68 2166.71,2718.9 2164.03,2719.11 2161.29,2719.3 2158.5,2719.47 2155.68,2719.61 2152.83,2719.73 2149.99,2719.81 2147.16,2719.86 2144.35,2719.88 2141.59,2719.86 2138.88,2719.8 2136.24,2719.7 2133.7,2719.55 2131.25,2719.36 2128.92,2719.11 2126.73,2718.81 2124.68,2718.46 2122.79,2718.05 2121.09,2717.57 2119.57,2717.04 2118.27,2716.44 2117.18,2715.77 2116.34,2715.02 980.459,1579.14 981.303,1579.88 982.386,1580.55 983.691,1581.16 985.205,1581.69 986.913,1582.17 988.798,1582.58 990.846,1582.93 993.041,1583.23 995.369,1583.48 997.815,1583.67 1000.36,1583.82 1003,1583.92 1005.7,1583.98 1008.47,1584 1011.28,1583.98 1014.11,1583.93 1016.95,1583.84 1019.8,1583.73 1022.62,1583.59 1025.41,1583.42 1028.15,1583.23 1030.83,1583.02 1033.42,1582.8 1035.93,1582.56 1038.32,1582.31 1040.59,1582.04 1042.72,1581.78 1045.86,1581.4 1049.13,1581.07 1052.53,1580.78 1056.03,1580.52 1059.63,1580.3 1063.3,1580.1 1067.03,1579.93 1070.8,1579.78 1074.59,1579.64 1078.4,1579.52 1082.19,1579.4 1085.96,1579.29 1089.69,1579.18 1093.36,1579.06 1096.95,1578.93 1100.45,1578.79 1103.84,1578.63 1107.11,1578.45 1110.24,1578.25 1113.2,1578.02 1115.99,1577.75 1118.6,1577.44 1120.99,1577.1 1123.15,1576.7 1125.08,1576.26 1126.75,1575.77 1128.14,1575.21 1129.24,1574.59 1130.03,1573.91 1130.5,1573.15 1130.62,1572.32 "/>
     <polygon id="_462033488" class="fil1" points="1024.06,1226.23 2159.94,2362.11 2160.13,2368.57 2160.31,2375.1 2160.49,2381.67 2160.66,2388.29 2160.83,2394.93 2160.99,2401.58 2161.15,2408.23 2161.3,2414.85 2161.45,2421.44 2161.59,2427.99 2161.72,2434.47 2161.84,2440.87 2161.96,2447.18 2162.07,2453.38 2162.17,2459.46 2162.26,2465.41 2162.34,2471.2 2162.42,2476.83 2162.48,2482.28 2162.53,2487.54 2162.58,2492.59 2162.61,2497.41 2162.63,2502 2162.64,2506.34 2162.63,2510.41 2162.62,2514.2 2162.59,2517.69 2162.55,2520.87 2162.5,2523.73 2162.43,2526.25 2162.35,2528.42 2162.25,2530.22 1026.37,1394.33 1026.47,1392.54 1026.55,1390.37 1026.62,1387.85 1026.67,1384.99 1026.71,1381.81 1026.74,1378.32 1026.75,1374.53 1026.76,1370.46 1026.75,1366.12 1026.73,1361.53 1026.69,1356.71 1026.65,1351.66 1026.6,1346.4 1026.53,1340.95 1026.46,1335.32 1026.38,1329.52 1026.29,1323.58 1026.19,1317.5 1026.08,1311.29 1025.96,1304.98 1025.84,1298.58 1025.71,1292.1 1025.57,1285.56 1025.42,1278.97 1025.27,1272.34 1025.11,1265.7 1024.95,1259.05 1024.78,1252.41 1024.61,1245.79 1024.43,1239.21 1024.24,1232.69 "/>
     <polygon id="_462022280" class="fil1" points="1027.45,1395.24 2163.33,2531.12 2163.88,2531.65 2164.43,2532.23 2164.99,2532.86 2165.55,2533.55 2166.12,2534.3 2166.69,2535.12 1030.81,1399.23 1030.24,1398.42 1029.67,1397.67 1029.11,1396.98 1028.55,1396.35 1028,1395.77 "/>
     <polygon id="_462022808" class="fil1" points="1186.21,1054.3 2322.09,2190.18 2320.38,2189.34 2318.8,2188.35 2317.35,2187.23 2316.03,2185.97 1180.15,1050.09 1181.47,1051.34 1182.92,1052.47 1184.5,1053.46 "/>
     <polygon id="_462037952" class="fil1" points="1019.54,815.773 2155.42,1951.66 2157.51,1953.88 2159.58,1956.13 2161.61,1958.42 2163.63,1960.73 2165.63,1963.07 2167.61,1965.43 2169.58,1967.8 2171.54,1970.2 2173.5,1972.61 2175.45,1975.03 2177.4,1977.46 2179.35,1979.89 2181.3,1982.34 2183.27,1984.78 2185.24,1987.22 2187.23,1989.66 2189.24,1992.09 1053.36,856.211 1051.35,853.778 1049.36,851.338 1047.39,848.896 1045.42,846.453 1043.47,844.012 1041.52,841.575 1039.57,839.144 1037.62,836.724 1035.66,834.315 1033.7,831.921 1031.73,829.543 1029.75,827.184 1027.75,824.848 1025.73,822.537 1023.69,820.251 1021.63,817.997 "/>
     <polygon id="_462015680" class="fil1" points="1053.36,856.211 2189.24,1992.09 2191.08,1994.31 2192.82,1996.4 2194.44,1998.35 2195.95,2000.17 2197.35,2001.84 2198.64,2003.38 2199.81,2004.78 2200.86,2006.04 2201.79,2007.15 2202.6,2008.12 2203.3,2008.95 2203.87,2009.62 2204.31,2010.15 2204.63,2010.53 2204.82,2010.76 2204.89,2010.84 1069.01,874.953 1068.94,874.876 1068.75,874.648 1068.43,874.269 1067.98,873.74 1067.41,873.063 1066.72,872.239 1065.91,871.269 1064.98,870.157 1063.93,868.9 1062.76,867.501 1061.47,865.962 1060.07,864.285 1058.56,862.47 1056.94,860.519 1055.2,858.432 "/>
     <polygon id="_462025232" class="fil1" points="1239.64,1034.21 2375.52,2170.09 2374.74,2171.49 2373.78,2172.69 2372.67,2173.7 2371.4,2174.53 2369.99,2175.19 2368.46,2175.7 2366.81,2176.07 2365.07,2176.31 2363.24,2176.42 2361.33,2176.43 2359.36,2176.33 2357.33,2176.15 2355.27,2175.89 2353.19,2175.57 2351.09,2175.2 2348.99,2174.78 1213.11,1038.9 1215.21,1039.32 1217.31,1039.69 1219.39,1040.01 1221.45,1040.27 1223.47,1040.45 1225.45,1040.54 1227.35,1040.54 1229.19,1040.43 1230.93,1040.19 1232.58,1039.82 1234.11,1039.31 1235.52,1038.65 1236.78,1037.81 1237.9,1036.8 1238.86,1035.61 "/>
     <polygon id="_462018680" class="fil1" points="1056.13,883.574 2192.01,2019.46 2193.72,2024.01 2195.79,2028.49 2198.2,2032.91 2200.93,2037.25 2203.95,2041.52 2207.24,2045.71 2210.77,2049.81 2214.52,2053.83 1078.64,917.951 1074.89,913.932 1071.35,909.827 1068.07,905.639 1065.05,901.371 1062.32,897.028 1059.91,892.611 1057.84,888.125 "/>
     <polygon id="_462017144" class="fil1" points="1213.11,1038.9 2348.99,2174.78 2346.55,2180.45 2345.72,2182.13 2344.75,2183.7 2343.64,2185.14 2342.4,2186.45 2341.06,2187.63 2339.61,2188.66 2338.08,2189.56 2336.48,2190.3 2334.81,2190.89 2333.09,2191.32 2331.33,2191.59 2329.55,2191.69 2327.75,2191.62 2325.95,2191.37 2324.17,2190.93 2322.4,2190.31 1186.52,1054.43 1188.28,1055.05 1190.07,1055.48 1191.87,1055.74 1193.67,1055.81 1195.45,1055.71 1197.21,1055.44 1198.93,1055.01 1200.59,1054.42 1202.2,1053.67 1203.73,1052.78 1205.18,1051.74 1206.52,1050.57 1207.76,1049.26 1208.87,1047.81 1209.84,1046.25 1210.67,1044.56 "/>
     <polygon id="_462043664" class="fil1" points="1253.79,944.434 2389.67,2080.32 2374.95,2114.51 1239.07,978.623 "/>
     <polygon id="_462043928" class="fil1" points="1272.05,869.712 2407.93,2005.59 2397.56,2070.85 1261.68,934.964 "/>
    </g>
    <path id="_478231816" class="fil1" d="M844.439 781.404l0 0zm2.08229 -1.4941l0 0zm1.20591 -0.927166c0.0377953,-0.0307087 0.0767717,-0.0614174 0.114567,-0.0921261 -0.0377953,0.0307087 -0.0767717,0.0614174 -0.114567,0.0921261zm-3.12166 3c-0.00590552,-0.00826772 -0.0106299,-0.0165354 -0.0129921,-0.0259843l0.0129921 0.0259843zm119.927 -31.1799l0 0zm-109.797 18.724c-1.05591,3.53622 -3.11457,6.32835 -6.8941,9.36379 3.8067,-3.07677 5.83937,-6.04252 6.88819,-9.34253 0.00236221,-0.00708662 0.00354331,-0.0141732 0.00590552,-0.0212599zm134.263 -85.441c-2.58425,1.73977 -5.58662,2.98819 -9.01418,3.34843 -1.44213,0.151181 -2.66457,-0.0153543 -3.69449,-0.452363 -9.3189,27.3508 -6.89882,33.7902 -29.0823,47.5477 -16.2177,10.0571 -40.7138,16.5473 -62.2571,19.0606 -11.087,1.29331 -21.3921,1.53425 -29.3847,0.664961 -8.66221,-0.941339 -14.6079,-3.18544 -15.8917,-6.80315 -13.7327,-17.0303 -29.3044,-39.1784 -38.5737,-69.1784 -16.2662,-52.6453 -19.3725,-118.993 -3.7937,-149.255 14.9315,-29.0067 42.4583,-21.2575 120.194,-59.5796 16.6843,-15.4843 77.7957,1.86969 72.0898,54.9308 14.1165,1.68307 15.3236,30.0461 15.5717,44.8559 0.533859,31.7055 -3.97205,51.7016 -10.4551,70.0253 5.20748,2.64921 8.85355,10.226 6.46182,26.7166 -0.498426,3.4252 -4.48701,12.9449 -12.1701,18.1181zm-24.4465 66.6922l0 0zm444.933 -231.872c44.413,18.2528 64.0548,67.1823 61.9678,116.289 -0.740552,17.4567 -4.21063,34.9429 -10.2673,51.039 -6.12993,16.291 -14.9339,31.2579 -26.2772,43.4729 -26.2394,28.2579 -65.4237,41.6599 -115.724,22.9725l-47.8807 116.756 0.746457 0.277559 -10.3689 65.2512 -4.67363 10.8555 -3.21851 -1.38543 -14.7225 34.1894c0.615355,2.34921 0.470079,5.13662 -1.07717,8.13071 -1.70315,3.29646 -2.59016,3.83268 -4.03111,3.73111l-0.923623 2.14488c7.91575,3.48898 18.9662,10.5886 10.428,19.2638 -5.42126,5.50512 -7.19292,5.47678 -15.0083,4.40552 -0.511418,2.39173 16.0996,7.14331 11.1803,17.9079 -3.6626,8.0126 -15.3555,7.00394 -26.5252,4.69489l-2.4378 5.66103c-4.0063,9.30119 -14.8181,13.6902 -24.1536,9.86694 -0.103937,-0.0413386 -0.207874,-0.0850394 -0.312992,-0.129921 -9.40631,-4.05 -13.787,-15.0602 -9.73702,-24.4654l0.292914 -0.680315c-1.43032,-0.43937 -2.84646,-0.872835 -4.24607,-1.29803 -44.4886,5.68347 -128.749,-53.8867 -155.593,-108.748 -4.2,4.01221 -7.20237,6.58111 -7.81772,6.30591 0,0 -0.243307,-0.351969 -0.687402,-1.00512 7.7941,72.5717 12.078,145.948 11.4248,146.392 -3.02717,2.05866 -5.90079,3.87048 -8.63032,5.46142 0.297638,0.79252 0.576378,1.54725 0.833859,2.26181 7.5815,21.0709 26.2689,131.562 26.2689,131.562 0,0 -4.98426,8.02087 -14.2571,16.1445 2.01024,68.4709 3.40985,150.943 2.31378,168.103 1.42913,1.09016 2.90079,2.64685 4.4374,4.89922 4.66063,6.82914 -0.12874,16.1327 0.0472441,44.3315 0.137008,21.9721 2.76024,45.0756 4.1504,59.6185 2.70827,-0.179528 5.70827,0.218504 6.7441,2.57362 2.03504,4.65 11.576,20.6965 20.5217,30.3544 8.94922,9.65434 27.9981,15.163 48.4949,18.9189 20.4969,3.75945 18.6024,14.0622 19.624,16.3866 4.44922,10.1221 -55.0701,6.08623 -87.6674,10.3606 -21.9378,2.87599 -70.2308,5.0693 -62.3847,-7.50119 0,0 -0.977954,-28.1268 3.37087,-42.2256 2.83583,-9.19607 7.21772,-12.7087 9.92481,-14.0398 -0.034252,-0.105118 -0.0696851,-0.212599 -0.105118,-0.320079 -4.39843,-13.2059 -12.326,-43.604 -15.8421,-53.2642 -5.39056,-14.8205 -8.75434,-33.6272 -9.70985,-44.0185 -0.954331,-10.3902 4.46575,-24.502 9.12166,-26.7166 0.699213,-0.333071 2.02205,-0.623623 3.77599,-0.876379 -5.9504,-48.1713 -24.789,-81.3662 -33.3378,-131.713 -0.960237,-5.64804 -3.89528,-15.6874 -6.87993,-27.1666 -3.84095,-0.996851 -6.15473,-1.68898 -6.15473,-1.68898l-27.2374 -84.5257 -68.2264 71.0871c0,0 -1.07244,-2.43425 -3.46063,-6.39331 -1.59803,1.94528 -3.65315,4.41969 -6.37441,7.89804 -7.51772,9.60828 -29.9551,35.8264 -51.7028,57.365 0.263386,0.976772 0.550394,2.02441 0.865749,3.15236 3.17244,11.3646 10.8284,43.1327 15.9591,72.4749 1.21536,1.92402 2.23937,3.913 2.96693,5.87835 3.62481,9.78662 8.70946,28.2024 10.2449,43.8981 0.998032,10.2307 6.97087,41.0729 8.70355,54.8835 0.0141732,0.113386 0.0283465,0.22441 0.0425197,0.335433 3.01654,0.0307087 8.48623,1.3063 15.0142,8.37875 10.0099,10.8402 21.2693,36.6331 21.2693,36.6331 12.5043,7.95119 -32.0044,26.8205 -53.0339,33.6969 -31.2484,10.2165 -83.1946,39.5516 -83.5501,28.5 -0.0826772,-2.53701 -6.23859,-11.0138 10.6276,-23.2512 16.8673,-12.2374 31.6713,-25.4292 35.576,-38.0008 3.89882,-12.5728 5.57717,-31.167 5.40591,-36.2398 -0.0826772,-2.57126 2.45197,-4.22599 4.97363,-5.23229 -5.02441,-13.7185 -12.6319,-35.6906 -21.9945,-55.5697 -12.0142,-25.5118 -20.3504,-31.8355 -19.0949,-40.0075 0.233858,-1.52599 0.54567,-2.84055 0.920079,-3.98504 -10.5969,-25.1055 -23.7567,-57.1111 -29.1496,-75.3249 -4.21654,-8.91615 -3.84449,-20.2075 3.93307,-33.5929 7.75867,-13.3512 37.9217,-69.9012 56.6315,-96.5906 -1.87323,-0.669686 -2.94449,-1.00984 -2.94567,-1.00866 0,0 16.9713,-45.3615 38.8181,-70.7481 9.75237,-11.3303 20.8772,-25.1953 30.2067,-37.0748 -9.25513,3.3567 -2.34921,-8.97048 -2.89961,-14.9587l0.201969 -2.70355c2.08937,-16.0795 18.574,-90.6733 2.9563,-117.078 -5.91497,-15.4016 -12.2102,-27.3107 -16.8484,-38.4768 -1.12323,4.64528 -2.08465,7.60394 -2.08465,7.60394l-20.426 40.3772c0,0 -0.291733,-0.21378 -0.827953,-0.605906 -19.8437,55.7445 -96.052,124.582 -139.867,125.334 -9.02717,4.10197 -18.8126,8.70827 -28.5815,12.4476 -12.3756,4.73977 -29.8925,12.0697 -35.5772,2.78504 -5.81339,-9.49607 9.75119,-16.2709 9.02009,-18.4606 -7.43859,2.08701 -9.1441,2.35866 -14.9244,-2.09882 -12.378,-9.55394 10.5248,-21.3354 13.9937,-22.6441 -7.55079,-0.264567 -7.28032,3.85985 -11.1957,-1.86496 -5.08229,-7.42914 0.920079,-14.8358 4.33937,-15.2055 17.4177,-5.62087 40.5485,-3.58583 58.9914,-0.801969 15.6272,-10.7658 93.906,-59.7485 102.516,-109.031 -0.218504,-0.135827 -0.400394,-0.244488 -0.544489,-0.324803 -4.27205,-2.36575 -22.4138,-17.2654 -22.415,-17.2654 0,0 11.6882,-15.4701 15.7406,-22.7126 4.05355,-7.24489 29.0492,-37.5874 38.0481,-45.7678 8.99764,-8.17914 32.0457,-16.826 32.0457,-16.826 0,0 0.00590552,0.0543308 0.0188977,0.159449 7.26851,-3.53268 20.6303,-6.54567 33.0343,-8.78032 5.09646,-0.918898 10.0311,-1.70551 14.315,-2.34331l13.9973 -1.89095 43.9784 -1.66063c6.33189,-0.115748 13.865,-0.529134 21.4299,-0.785434 0.170079,-0.00590552 0.341339,-0.011811 0.511418,-0.0177165 12.4807,-0.411024 24.9709,-0.366142 32.2087,2.17677 5.44134,1.91221 8.3315,5.01142 11.3953,9.85513 0.131102,0.206693 0.261024,0.420473 0.392126,0.640158 30.9307,15.0189 49.0181,42.3355 70.526,68.2548 10.1185,12.1973 15.6461,18.7417 15.6461,18.7417 0,0 -5.35276,3.45236 -12.874,8.62087 16.1658,48.8859 98.7024,87.1465 115.506,95.895 9.09213,-2.76969 19.3571,-5.51811 29.6256,-7.213l18.3236 -42.5504 -3.21851 -1.38662 4.67481 -10.8555 40.8083 -51.5469 0.801969 0.298819 47.9741 -116.982c-49.6607,-21.5799 -68.4426,-58.4185 -67.3938,-96.9308 0.451181,-16.5874 4.69134,-33.4335 11.7921,-49.4185 6.99922,-15.7583 16.8095,-30.6921 28.5166,-43.6926 33.1973,-36.8693 81.8646,-58.4008 125.943,-40.2851z"/>
   </g>
  </g>
  <path class="fil2" d="M1024 0c565.539,0 1024,458.461 1024,1024 0,565.539 -458.461,1024 -1024,1024 -565.539,0 -1024,-458.461 -1024,-1024 0,-565.539 458.461,-1024 1024,-1024z"/>
  <path class="fil3" d="M725.719 875.91c0,0 18.1417,14.8996 22.4138,17.2654 4.27323,2.37047 42.6579,30.4713 42.6579,30.4713 0,0 -10.8106,-21.1453 -13.5425,-22.9937 -2.73307,-1.84843 -23.1295,-16.4528 -28.5662,-19.1504 -5.43898,-2.70118 -12.7134,-5.92678 -16.1386,-6.30237 -3.42402,-0.372048 -6.8256,0.709843 -6.8256,0.709843l0.0011811 0z"/>
  <path class="fil4" d="M749.408 886.77c-2.30551,56.9882 -106.032,115.886 -105.953,117.887 0.275197,6.91654 4.61929,36.5055 5.15552,43.7162 52.1894,0.982678 153.441,-99.3863 145.776,-156.627 0.297638,-2.55118 -35.1544,-6.38977 -44.9788,-4.97599z"/>
  <path class="fil4" d="M587.17 1003.33c-3.41929,0.369685 -9.42166,7.77638 -4.33937,15.2055 3.91536,5.72481 3.64488,1.60039 11.1957,1.86496 -3.4689,1.30866 -26.3717,13.0902 -13.9937,22.6441 5.78032,4.45748 7.48583,4.18583 14.9244,2.09882 0.731103,2.18977 -14.8335,8.96457 -9.02009,18.4606 5.68465,9.28465 23.2016,1.95473 35.5772,-2.78504 11.3658,-4.35 22.754,-9.87402 32.9433,-14.413 11.2382,-5.00788 -0.474804,-31.754 0.729922,-42.4134 -19.3642,-3.32481 -47.6115,-7.24725 -68.0174,-0.662599z"/>
  <path class="fil4" d="M1053.88 874.101c8.44253,59.0764 120.611,105.085 120.743,107.18 0.459449,7.25197 -0.814961,38.752 -0.594095,46.3524 -53.1662,8.77678 -167.236,-80.8406 -165.529,-141.665 -0.576378,-2.61378 35.204,-11.8866 45.3803,-11.8677z"/>
  <path class="fil4" d="M1231.94 971.541c3.52796,-0.121654 10.4445,6.70867 6.04961,15.2126 -3.38268,6.54922 -3.54685,2.20512 -11.2276,3.60591 3.6815,0.846851 28.3158,9.73229 16.7008,21.5339 -5.42126,5.50512 -7.19292,5.47678 -15.0083,4.40552 -0.511418,2.39173 16.0996,7.14331 11.1803,17.9079 -4.81063,10.5248 -23.4756,5.48386 -36.6118,2.37992 -12.0662,-2.84646 -24.2835,-6.91418 -35.1697,-10.1315 -12.0059,-3.55512 -2.90315,-33.1831 -5.27244,-44.1189 19.4103,-6.34371 47.8252,-14.6303 69.3591,-10.7953z"/>
  <path class="fil3" d="M1130.39 1571.42c-1.02165,-2.32441 0.872835,-12.6272 -19.624,-16.3866 -20.4969,-3.75591 -39.5457,-9.26457 -48.4949,-18.9189 -8.94568,-9.65788 -18.4866,-25.7044 -20.5217,-30.3544 -2.04449,-4.64882 -11.7449,-1.67362 -11.7449,-1.67362 0,0 -3.22559,5.46378 -5.61378,14.5512 -2.38465,9.08859 -7.61575,13.598 -16.7008,11.211 -9.08977,-2.39055 -11.6433,-12.6343 -11.6433,-12.6343 0,0 -7.98898,0.734646 -12.3378,14.8394 -4.34882,14.0988 -3.37087,42.2256 -3.37087,42.2256 -7.84607,12.5705 40.4469,10.3772 62.3847,7.50119 32.5973,-4.27441 92.1166,-0.238583 87.6674,-10.3606z"/>
  <path class="fil5" d="M977.1 1393.69c-4.65591,2.21457 -10.076,16.3264 -9.12166,26.7166 0.955513,10.3913 4.31929,29.1981 9.70985,44.0185 3.51614,9.66024 11.4437,40.0583 15.8421,53.2642 2.34449,7.05473 1.88032,8.5819 7.71024,12.4252 5.82166,3.84213 15.1701,2.40591 24.6154,-0.0744095 9.44528,-2.47795 10.3973,-6.6378 9.9508,-16.7835 -0.504331,-11.4449 -4.77402,-41.5004 -4.95,-69.6934 -0.175984,-28.1988 4.61339,-37.5024 -0.0472441,-44.3315 -4.65591,-6.82678 -8.72009,-7.25788 -12.7925,-7.69134 -4.07717,-0.42874 -36.2622,-0.0625985 -40.917,2.14961z"/>
  <path class="fil4" d="M936.553 1172.77c-11.4732,17.8937 8.1815,71.8382 10.9843,88.3347 8.98465,52.9134 29.3351,86.8808 34.1445,139.2 2.29252,3.98859 32.2394,-1.79764 44.6776,-5.79213 1.9748,-29.6362 -3.92126,-265.636 -7.1752,-265.336l-1.34055 0.122835c-27.1524,2.49685 -79.0335,39.9591 -81.2906,43.4705z"/>
  <path class="fil6" d="M760.868 1156.7c0,0 30.1418,9.5752 50.2902,27.0685 20.1496,17.4945 27.8811,35.0351 27.8811,35.0351l68.2264 -71.0871 27.2374 84.5257c0,0 50.263,15.039 71.1839,5.863 20.9185,-9.17835 32.628,-28.0229 32.628,-28.0229 0,0 -18.6874,-110.491 -26.2689,-131.562 -7.57796,-21.0697 -34.0193,-77.3386 -34.0193,-77.3386 0,0 -11.6976,21.0874 -42.7311,16.6843 -31.0335,-4.40079 -59.3032,-5.02796 -64.9737,-5.31142 -5.6693,-0.284646 -20.048,9.90473 -20.048,9.90473 0.0011811,0 -28.7386,38.1071 -50.589,63.4937 -21.8469,25.3866 -38.8181,70.7481 -38.8181,70.7481l0.0011811 -0.0011811z"/>
  <path class="fil7" d="M1044.7 872.874l-35.2796 24.2764 18.7654 -37.9961c0,0 4.51772,1.32874 16.5142,13.7197z"/>
  <path class="fil8" d="M968.409 839.834c-2.28425,10.4669 3.55158,9.4252 9.37087,29.0469 5.82284,19.6193 31.3252,56.5335 31.3252,56.5335 1.67717,0.748819 21.0673,-19.6075 34.1303,-32.7366 13.4929,-9.8067 25.7705,-17.7248 25.7705,-17.7248 0,0 -5.52756,-6.54449 -15.6461,-18.7417 -22.5272,-27.1465 -41.3008,-55.8272 -75.0095,-70.304 1.10787,-4.72087 6.57875,7.52245 2.61851,17.9079 -5.12244,13.4303 -11.2795,30.117 -12.5599,36.0189z"/>
  <path class="fil8" d="M872.918 777.748l-0.00590552 0 -0.011811 0.0011811 -0.0212599 0.00354331 -0.0011811 0 -0.0271654 0.00236221 -0.0377953 0.00590552 -0.046063 0.00354331 -0.00708662 0.0011811 -0.0472441 0.00590552 -0.0602363 0.00708662 -0.0696851 0.00826772 -0.0153543 0.00236221 -0.0625985 0.00708662 -0.0838583 0.00944883 -0.0933072 0.011811 -0.0259843 0.00236221 -0.0744095 0.0106299 -0.10748 0.0129921 -0.115748 0.0141732 -0.0401575 0.00472441 -0.0826772 0.00944883 -0.129921 0.0153543 -0.135827 0.0165354 -0.056693 0.00708662 -0.0874016 0.011811 -0.151181 0.0188977 -0.157087 0.0188977 -0.0767717 0.0106299 -0.0874016 0.00944883 -0.173622 0.022441 -0.177165 0.022441 -0.100394 0.011811 -0.0850394 0.00944883 -0.190158 0.0259843 -0.198425 0.0248032 -0.124016 0.0165354 -0.080315 0.00826772 -0.211417 0.0271654 -0.216142 0.0283465 -0.15 0.0200788 -0.0720473 0.00826772 -0.230315 0.0295276 -0.23504 0.0307087 -0.178347 0.0236221 -0.0614174 0.00826772 -0.248032 0.0330709 -0.252756 0.0318898 -0.210236 0.0271654 -0.0484252 0.00708662 -0.263386 0.0354331 -0.269292 0.0354331 -0.242126 0.0318898 -0.0330709 0.00472441 -0.281103 0.0366142 -0.284646 0.0389764 -0.276378 0.0366142 -0.0141732 0.00354331 -0.295276 0.0401575 -0.301181 0.0401575 -0.305906 0.0413386 -0.00472441 0.0011811 -0.305906 0.0413386 -0.316536 0.0437008 -0.320079 0.0448819 -0.0271654 0.00472441 -0.297638 0.0401575 -0.329528 0.046063 -0.335433 0.0472441 -0.0507874 0.00826772 -0.285827 0.0401575 -0.343701 0.0472441 -0.347244 0.0496063 -0.0767717 0.011811 -0.274016 0.0389764 -0.356693 0.0519685 -0.359055 0.0507874 -0.103937 0.0153543 -0.259843 0.0366142 -0.367323 0.0543308 -0.370866 0.0543308 -0.132284 0.0200788 -0.242126 0.034252 -0.377953 0.0578741 -0.382677 0.0555119c-16.9406,2.52166 -44.0622,7.37835 -51.1099,13.461 -10.4551,9.02009 -0.475985,25.3394 -1.47047,49.6099 -0.989765,24.2764 12.1488,41.0681 23.8099,71.4319 15.6177,26.4047 -0.86693,100.999 -2.9563,117.078l-0.00708662 0.0602363 -0.00826772 0.0590552 -0.00826772 0.0602363 -0.00708662 0.0602363 -0.00708662 0.0590552 -0.00708662 0.056693 -0.00590552 0.0578741 -0.00826772 0.056693 -0.00590552 0.0555119 -0.00826772 0.056693 -0.00472441 0.0354331 -0.0011811 0.0200788 -0.00590552 0.0531496 -0.00590552 0.0543308 -0.00708662 0.0519685 -0.00472441 0.0543308 -0.00590552 0.0519685 -0.00472441 0.0507874 -0.00708662 0.0519685 -0.00472441 0.0507874 -0.00472441 0.0496063 -0.00590552 0.0484252 -0.00472441 0.0496063 -0.0165354 0.184252 -0.0011811 0.00472441 -0.00354331 0.0472441 -0.00472441 0.0448819 -0.00354331 0.0437008 -0.00590552 0.0874016 -0.00472441 0.0437008 -0.00236221 0.0413386 -0.00708662 0.0826772 -0.00236221 0.0401575 -0.00236221 0.0401575 -0.0011811 0.0129921 0 0.0259843 -0.00354331 0.0389764 -0.0141732 0.382677 0 0.0212599 0 0.0106299 0.0011811 0.0307087c0,0.120473 0.00354331,0.229134 0.0106299,0.315355 0.588189,6.39567 -7.32993,20.0209 5.01969,14.0492 12.3484,-5.97048 94.7717,36.7819 128.663,37.291 10.8319,0.737008 25.4858,8.44489 59.1674,-14.4626 1.48937,-1.01221 -14.8358,-245.176 -36.2386,-281.57l-0.167717 -0.283465 -0.166536 -0.279921 -0.022441 -0.0389764 -0.144095 -0.239764 -0.166536 -0.272835 -0.0437008 -0.0720473 -0.285827 -0.464174 -0.0661418 -0.106299 -0.0992127 -0.157087 -0.165354 -0.261024 -0.0862205 -0.137008 -0.0767717 -0.119291 -0.166536 -0.252756 -0.10748 -0.167717 -0.056693 -0.0826772 -0.296457 -0.441733 -0.0318898 -0.0484252 -0.166536 -0.239764 -0.0354331 -0.0496063 -0.210236 -0.3 -0.253937 -0.351969 -0.0106299 -0.0129921c-0.219685,-0.3 -0.440552,-0.591733 -0.66378,-0.875198l-0.056693 -0.0708662c-0.35315,-0.445276 -0.714567,-0.871654 -1.08425,-1.27795l-0.0318898 -0.0354331 -0.0484252 -0.0519685 -0.180709 -0.19252 -0.157087 -0.164173 -0.0248032 -0.0259843 -0.368504 -0.370866 -0.377953 -0.359055 -0.0248032 -0.022441 -0.360236 -0.324803 -0.0507874 -0.0448819 -0.146457 -0.124016c-0.196063,-0.167717 -0.396851,-0.333071 -0.601182,-0.491339l-0.10748 -0.0838583 -0.0980316 -0.0744095 -0.311811 -0.229134 -0.0354331 -0.0271654 -0.0720473 -0.0507874 -0.214961 -0.151181 -0.17126 -0.116929 -0.046063 -0.0295276 -0.011811 -0.00826772c-0.283465,-0.188977 -0.576378,-0.370866 -0.876379,-0.546851l-0.00944883 -0.00590552 -0.0141732 -0.00826772 -0.0295276 -0.0165354 -0.425197 -0.239764 -0.0448819 -0.0248032 -0.0129921 -0.00708662 -0.424016 -0.222047 -0.080315 -0.0401575 -0.0271654 -0.0129921 -0.390945 -0.190158 -0.115748 -0.0543308 -0.137008 -0.0625985 -0.259843 -0.115748 -0.153543 -0.068504 -0.108662 -0.046063 -0.453544 -0.184252 -0.00826772 -0.00354331 -0.0744095 -0.0307087 -0.452363 -0.167717 -0.0625985 -0.0248032 -0.0401575 -0.0141732 -0.283465 -0.100394 -0.284646 -0.0992127 -0.00354331 0c-7.0193,-2.34567 -18.0484,-2.59725 -38.3965,-1.85315l-2.45197 0.0897638 -0.0177165 0 -0.493701 0.0200788 -0.10748 0.00354331 -0.590552 0.022441 -0.0555119 0.0011811 -1.42205 0.0531496 -0.0720473 0.00236221 -0.700394 0.0259843 -0.147638 0.00708662 -0.662599 0.0248032 -0.229134 0.00826772 -0.618898 0.022441 -0.317717 0.0141732 -0.564567 0.0188977 -0.412205 0.0153543 -0.504331 0.0200788 -0.510237 0.0188977 -0.437008 0.0165354 -0.615355 0.022441 -0.362599 0.0141732 -0.722835 0.0283465 -0.282284 0.00944883 -0.83504 0.0318898 -0.196063 0.00708662 -0.950788 0.0366142 -0.106299 0.00236221 -1.06654 0.0413386 -0.011811 0 -1.09961 0.0401575 -0.0874016 0.00590552 -1.0311 0.0366142 -0.190158 0.00826772 -0.946064 0.0354331 -0.296457 0.0106299 -0.8563 0.0318898 -0.402756 0.0165354 -0.764174 0.0283465 -0.511418 0.0200788 -0.666142 0.0248032 -0.623623 0.0236221 -0.565748 0.0212599 -0.733465 0.0271654 -0.462992 0.0165354 -0.84567 0.0330709 -0.357874 0.011811 -0.957875 0.0377953 -0.250394 0.00944883 -1.07008 0.0413386 -0.142913 0.00472441 -1.17874 0.0437008 -0.0366142 0.00236221 -1.21299 0.046063 -0.0720473 0.0011811 -1.13976 0.0437008 -0.179528 0.00708662 -1.02874 0.0389764 -0.285827 0.00944883 -0.915355 0.034252 -0.393307 0.0153543 -0.801969 0.0307087 -0.496063 0.0188977 -0.689764 0.0259843 -0.596457 0.022441 -0.579922 0.0212599 -0.694489 0.0271654 -0.468898 0.0177165 -0.786615 0.0295276 -0.361418 0.0129921 -0.87756 0.034252 -0.255118 0.00944883 -0.962599 0.0354331 -0.152362 0.00590552 -1.04173 0.0401575 -0.0543308 0.0011811 -1.07362 0.0413386 -0.0413386 0.00236221 -1.00866 0.0366142 -0.134646 0.00590552 -0.891733 0.0330709 -0.220866 0.00944883 -0.778347 0.0283465 -0.302362 0.011811 -0.667323 0.0248032 -0.376772 0.0153543 -0.564567 0.0212599 -0.444095 0.0165354 -0.464174 0.0177165 -0.507874 0.0188977 -0.367323 0.0129921 -0.561024 0.0212599 -0.27874 0.0106299 -0.607087 0.0236221 -0.194882 0.00708662 -0.646063 0.0236221 -0.11811 0.00472441 -0.673229 0.0248032 -0.0484252 0.00354331 -0.680315 0.0248032 -0.011811 0 -0.623623 0.0236221 -0.0673229 0.00354331 -0.523229 0.0188977 -0.111024 0.00472441 -0.429922 0.0165354 -0.147638 0.00472441 -0.344882 0.0141732 -0.172441 0.00590552 -0.26811 0.0106299 -0.187795 0.00590552 -0.200788 0.00944883 -0.19252 0.00590552 -0.140551 0.00472441 -0.185433 0.00826772 -0.090945 0.00354331 -0.166536 0.00472441 -0.0519685 0.00354331 -0.134646 0.00472441 -0.0236221 0 -0.0897638 0.00354331 -0.00590552 0.0011811 -0.0318898 0.0011811z"/>
  <path class="fil8" d="M811.553 790.603c0,0 -23.048,8.64686 -32.0457,16.826 -8.99883,8.18032 -33.9945,38.5229 -38.0481,45.7678 -4.05237,7.24253 -15.7406,22.7126 -15.7406,22.7126 0,0 20.5051,5.04331 36.4831,17.837 15.9803,12.7984 28.5898,29.8996 28.5898,29.8996l20.426 -40.3772c0,0 6.20197,-19.0748 5.49331,-36.4217 -0.788977,-19.4421 -5.15788,-56.243 -5.15788,-56.2441z"/>
  <path class="fil4" d="M776.409 1143.8c-11.837,4.00394 -59.2099,93.267 -69.228,110.506 -17.3469,29.8536 2.14488,49.2922 27.2197,55.1894 18.9071,-0.211417 81.2186,-71.8182 94.8036,-89.1816 11.0728,-14.1555 11.1272,-11.6764 14.1461,-24.6319 5.53111,-23.7118 -44.4178,-59.5016 -66.9414,-51.8823z"/>
  <path class="fil9" d="M975.965 646.041c2.1815,-7.99371 30.9189,-19.4634 25.2047,19.9264 -0.666142,4.57796 -7.56615,20.0374 -21.1843,21.4666 -14.1307,1.48347 -7.21536,-27.6355 -4.02048,-41.3929z"/>
  <path class="fil10" d="M917.501 469.439c-77.7355,38.3221 -105.262,30.5729 -120.194,59.5796 -15.5788,30.2622 -12.4725,96.6095 3.7937,149.255 9.2693,30 24.841,52.1481 38.5737,69.1784 4.7693,13.4433 73.9253,7.91812 107.534,-12.9225 22.6193,-14.028 19.6583,-20.4473 29.6457,-49.1835 13.8543,-39.8587 29.2713,-58.9607 28.3087,-116.12 -0.248032,-14.8099 -1.45512,-43.1729 -15.5717,-44.8559 5.70591,-53.0611 -55.4056,-70.415 -72.0898,-54.9308z"/>
  <path class="fil4" d="M824.398 559.628c-5.85827,21.6154 1.6441,86.6587 12.7571,139.195 1.68898,7.98426 6.50079,18.9555 10.7658,29.2063 3.85748,9.27284 7.26851,17.9563 7.51418,23.3055 0.786615,17.0646 0.844489,21.9874 -10.9973,30.0532 0.236221,3.49134 12.8658,4.95827 18.0933,7.71851 8.52402,4.5 21.3402,27.352 33.6851,28.0406 9.88702,0.550394 10.1953,-20.8606 15.7807,-24.0921 32.2146,-18.6378 64.5922,-44.9823 73.252,-83.4686 9.91891,-19.8543 0.219685,-161.053 -15.3248,-176.229 -10.7787,-20.3232 -38.4237,11.8276 -63.3473,7.60276 -63.1867,-9.14646 -79.6796,7.52481 -82.1788,18.6673z"/>
  <path class="fil9" d="M842.794 715.665l0.0755906 0.188977 0.0212599 0.0543308 0.056693 0.137008 0.0767717 0.191339 0.0614174 0.152362 0.0165354 0.0401575 0.0767717 0.19252 0.0791339 0.19252 0.0236221 0.056693 0.0543308 0.135827 0.0779528 0.19252 0.0649607 0.154725 0.0141732 0.0377953 0.0779528 0.19252 0.0791339 0.19252 0.0259843 0.0602363 0.0531496 0.132284 0.0791339 0.19252 0.159449 0.386221 0.0791339 0.193701 0.0271654 0.0649607 0.0519685 0.12874 0.080315 0.193701 0.080315 0.193701 0.0791339 0.193701 0.0814961 0.193701 0.0283465 0.0673229 0.0519685 0.126378 0.080315 0.194882 0.0696851 0.165354 0.0106299 0.0271654 0.080315 0.193701 0.0814961 0.194882 0.0295276 0.0720473 0.0507874 0.121654 0.0814961 0.194882 0.0696851 0.170079 0.0106299 0.0236221 0.080315 0.194882 0.0814961 0.19252 0.0318898 0.0755906 0.0496063 0.119291 0.080315 0.193701 0.0720473 0.173622 0.00944883 0.0212599 0.0814961 0.193701 0.0814961 0.193701 0.0318898 0.0791339 0.0484252 0.114567 0.0814961 0.194882 0.0744095 0.177165 0.00708662 0.0165354 0.0814961 0.194882 0.0814961 0.19252 0.0330709 0.0826772 0.0472441 0.112205 0.0814961 0.193701 0.0755906 0.180709 0.00590552 0.0129921 0.0814961 0.194882 0.080315 0.193701 0.0354331 0.0850394 0.0448819 0.10748 0.0814961 0.193701 0.0767717 0.183071 0.00472441 0.0106299 0.080315 0.193701 0.0814961 0.193701 0.0366142 0.0874016 0.0448819 0.103937 0.0791339 0.193701 0.0791339 0.186614 0.00236221 0.00708662 0.0814961 0.19252 0.080315 0.193701 0.0377953 0.090945 0.0425197 0.101575 0.080315 0.19252 0.0779528 0.188977 0.0011811 0.00236221 0.0814961 0.19252 0.080315 0.19252 0.0377953 0.0933072 0.0413386 0.0980316 0.080315 0.19252 0.0791339 0.191339c3.85748,9.27284 7.26851,17.9551 7.51418,23.3055l0.00236221 0.0472441 0.00236221 0.0484252 0.00236221 0.0472441 0.00236221 0.046063 0.00236221 0.0484252 0.0011811 0.0472441 0.00236221 0.046063 0.00236221 0.0484252 0.00236221 0.046063 0.00236221 0.0472441 0.00236221 0.0472441 0.0011811 0.046063 0.00236221 0.0472441 0.00236221 0.0472441 0.00236221 0.046063 0.00236221 0.046063 0.00236221 0.0389764 -0.0011811 0.00826772 0.00236221 0.046063 0.00236221 0.046063 0.00236221 0.0472441 0.00236221 0.046063 0.0011811 0.046063 0.00236221 0.0472441 0.0011811 0.0448819 0.00354331 0.046063 0.0011811 0.0472441 0.00236221 0.0448819 0.00236221 0.046063 0.00236221 0.046063 0.00236221 0.046063 0.0011811 0.0448819 0.00236221 0.046063 0.0011811 0.046063 0.0011811 0.0283465 0.00236221 0.0165354 0.0011811 0.046063 0.00236221 0.0448819 0.0011811 0.0448819 0.00236221 0.046063 0.00236221 0.0448819 0.00236221 0.0448819 0.0011811 0.046063 0.00236221 0.0448819 0.0011811 0.0437008 0.00354331 0.046063 0.0011811 0.0448819 0.00236221 0.0437008 0.0011811 0.046063 0.00354331 0.0448819 0.0011811 0.0437008 0.0011811 0.0448819 0.0011811 0.0200788 0.0011811 0.0248032 0.0011811 0.0437008 0.00354331 0.0437008 0.0011811 0.046063 0.00236221 0.0437008 0.0011811 0.0437008 0.0011811 0.0448819 0.00354331 0.0437008 0.0011811 0.0437008 0.00236221 0.0448819 0.0011811 0.0437008 0.00236221 0.0425197 0.00236221 0.0448819 0.0011811 0.0437008 0.00590552 0.141732 0.022441 0.542126 0.00708662 0.180709 0.0188977 0.488977 0.00826772 0.218504c0.381496,10.2614 0.487796,16.4339 -7.90158,23.1555l-0.263386 0.209055 -0.056693 0.0437008 -0.386221 0.297638 -0.0200788 0.0153543 -0.141732 0.10748 -0.337796 0.253937 -0.00354331 0.00236221 -0.356693 0.262205 -0.135827 0.100394 -0.0897638 0.0637796 -0.421654 0.303544 -0.0614174 0.0437008 -0.467717 0.328347 -0.0330709 0.0212599 -0.51378 0.354331 0.0011811 0.0141732 0.0011811 0.0153543 0.00590552 0.0389764 0.0165354 0.114567 0.0141732 0.0578741 0.0236221 0.0933072 0.0307087 0.0862205 0.0248032 0.0673229 0.0366142 0.0791339 0.0401575 0.0814961 0.00472441 0.00826772 0.0732284 0.125197 0.0165354 0.0259843 0.0330709 0.046063 0.0696851 0.0980316 0.0188977 0.022441 0.101575 0.120473 0.00472441 0.00590552 0.113386 0.119291 0.022441 0.0236221 0.126378 0.11811 0.0248032 0.022441 0.138189 0.115748 0.0259843 0.0212599 0.151181 0.115748 0.0283465 0.0200788 0.161811 0.114567 0.190158 0.125197 0.011811 0.00826772 0.0295276 0.0188977 0.185433 0.111024 0.0307087 0.0177165 0.196063 0.111024 0.0318898 0.0165354 0.205512 0.111024 0.0330709 0.0153543 0.216142 0.108662 0.259843 0.122835 0.0330709 0.0165354 0.236221 0.106299 0.034252 0.0141732 0.244488 0.106299 0.0354331 0.0141732 0.251575 0.103937 0.0366142 0.0141732 0.259843 0.102756 0.0366142 0.0153543 0.269292 0.101575 0.0354331 0.0129921 0.277559 0.101575 0.034252 0.0129921 0.285827 0.101575 0.034252 0.011811 0.291733 0.100394 0.034252 0.011811 0.298819 0.0992127 0.034252 0.011811 0.304725 0.0992127 0.0354331 0.011811 0.308268 0.0980316 0.0354331 0.011811 0.314173 0.0980316 0.034252 0.0106299 0.32126 0.0968505 0.0318898 0.0106299 0.325985 0.0980316 0.0318898 0.0106299 0.329528 0.0968505 0.0318898 0.00944883 0.333071 0.0968505 0.0307087 0.00944883 0.336614 0.0968505 0.0307087 0.00944883 0.338977 0.0980316 0.0295276 0.00826772 0.34252 0.0980316 0.0283465 0.00708662 0.344882 0.0980316 0.0271654 0.00826772 0.347244 0.0968505 0.0259843 0.00708662 0.348425 0.0992127 0.0259843 0.00708662 0.348425 0.0992127 0.0248032 0.00590552 0.350788 0.0992127 0.022441 0.00708662 0.350788 0.0992127 0.0212599 0.00708662 0.350788 0.0992127 0.0200788 0.00708662 0.349607 0.100394 0.0200788 0.00590552 0.348425 0.101575 0.0188977 0.00472441 0.346063 0.102756 0.0177165 0.00590552 0.344882 0.102756 0.0165354 0.00472441 0.34252 0.103937 0.0141732 0.00590552 0.340158 0.105118 0.0129921 0.00354331 0.336614 0.106299 0.0129921 0.00472441 0.33189 0.10748 0.0129921 0.00354331 0.327166 0.108662 0.0106299 0.00354331 0.323622 0.109843 0.00944883 0.00236221 0.317717 0.112205 0.00826772 0.00354331 0.311811 0.113386 0.00826772 0.00236221 0.307087 0.114567 0.00590552 0.0011811 0.298819 0.11811 0.00590552 0.0011811 0.291733 0.11811 0.00472441 0.00236221 0.285827 0.119291 0.00236221 0.0011811 0.276378 0.121654 0.00236221 0.0011811 0.269292 0.122835 0.0011811 0.0011811 0.259843 0.126378 0 0.0011811 0.250394 0.127559c8.52402,4.49882 28.5213,36.241 40.865,36.9296 1.16457,0.0649607 2.44252,-0.325985 3.79607,-1.06299 6.09449,-4.38898 4.11024,-29.4792 22.4764,-43.0323 11.6528,-8.59725 24.7748,-19.7327 31.3335,-27.0059l0.0874016 -0.0980316 0.0153543 -0.0177165 1.07717 -1.22717 0.19252 -0.223229c0.318898,-0.370866 0.637796,-0.741733 0.951969,-1.11496l0.090945 -0.10748 0.12874 -0.153543 0.986221 -1.19055 0.00472441 -0.00590552 0.0153543 -0.0188977 0.0354331 -0.0437008c0.355512,-0.435827 0.709843,-0.874016 1.05827,-1.31339l0.0531496 -0.0673229 0.276378 -0.354331c-26.2429,27.6484 -56.8713,19.6654 -81.0249,4.59095 -23.9327,-14.9374 -41.5087,-36.8362 -42.1571,-37.9252z"/>
  <path class="fil11" d="M831.439 658.698c-3.69095,-8.24764 -36.5799,-15.7772 -23.8075,25.702 1.48465,4.82008 11.5158,20.3185 26.4307,19.5721 15.4713,-0.774804 3.12992,-30.9874 -2.62323,-45.2741z"/>
  <path class="fil10" d="M815.057 652.242l7.32284 -50.7815c1.40551,11.413 17.4496,80.2406 25.6205,85.8509 -15.6862,5.81339 -23.0162,-38.0233 -32.9433,-35.0693z"/>
  <path class="fil12" d="M700.886 1274.71c-2.60197,11.6504 38.1083,103.36 45.5741,121.745 12.9295,31.8378 35.3847,28.676 50.9339,12.8457 8.47323,-14.8039 -13.0996,-107.237 -19.0264,-128.467 -4.83307,-17.3067 -3.07796,-15.8221 -10.7445,-26.1402 -14.0291,-18.887 -61.7859,-2.15079 -66.7371,20.0173z"/>
  <path class="fil3" d="M715.984 1565.51c-0.0826772,-2.53701 -6.23859,-11.0138 10.6276,-23.2512 16.8673,-12.2374 31.6713,-25.4292 35.576,-38.0008 3.89882,-12.5728 5.57717,-31.167 5.40591,-36.2398 -0.162992,-5.0752 9.87166,-6.57993 9.87166,-6.57993 0,0 5.2689,3.53622 11.3469,10.702 6.07441,7.1693 12.7394,8.97757 19.904,2.90315 7.16575,-6.08032 5.04804,-16.4221 5.04804,-16.4221 0,0 7.52363,-2.7874 17.5347,8.05867 10.0099,10.8402 21.2693,36.6331 21.2693,36.6331 12.5043,7.95119 -32.0044,26.8205 -53.0339,33.6969 -31.2484,10.2165 -83.1946,39.5516 -83.5501,28.5z"/>
  <path class="fil5" d="M777.532 1339.02c5.15552,-0.011811 16.1374,10.3772 19.761,20.1614 3.62481,9.78662 8.70946,28.2024 10.2449,43.8981 0.998032,10.2307 6.97087,41.0729 8.70355,54.8835 0.930709,7.37599 2.00906,8.55237 -1.59095,14.537 -3.59292,5.97874 -12.6449,8.7189 -22.2355,10.5591 -9.58938,1.84252 -12.2433,-1.5 -16.2213,-10.8437 -4.48465,-10.5413 -13.6087,-39.4949 -25.6217,-65.002 -12.0142,-25.5118 -20.3504,-31.8355 -19.0949,-40.0075 1.25315,-8.16851 4.73268,-10.311 8.2193,-12.4606 3.49134,-2.14725 32.6811,-15.711 37.8355,-15.7252z"/>
  <polygon class="fil13" points="1315.36,737.686 1252.39,891.236 1260.37,896.087 1323.34,742.537 "/>
  <line class="fil2" x1="1386.32" y1="520.88" x2="1455.87" y2= "647.202" />
  <polygon class="fil14" points="1384.28,521.994 1453.82,648.318 1457.91,646.086 1388.37,519.763 "/>
  <line class="fil2" x1="1349.38" y1="528.754" x2="1441.94" y2= "699.148" />
  <polygon class="fil14" points="1347.33,529.862 1439.89,700.256 1443.98,698.04 1351.42,527.647 "/>
  <line class="fil2" x1="1318.33" y1="550.641" x2="1417.08" y2= "732.661" />
  <polygon class="fil14" points="1316.29,551.749 1415.04,733.769 1419.13,731.554 1320.38,549.534 "/>
  <line class="fil2" x1="1456.8" y1="601.366" x2="1272.18" y2= "695.164" />
  <polygon class="fil14" points="1455.75,599.298 1271.13,693.096 1273.23,697.232 1457.85,603.435 "/>
  <line class="fil2" x1="1285.97" y1="570.84" x2="1382.03" y2= "746.103" />
  <polygon class="fil14" points="1283.93,571.956 1379.99,747.219 1384.07,744.987 1288.01,569.725 "/>
  <line class="fil2" x1="1264.89" y1="610.236" x2="1339.73" y2= "748.013" />
  <polygon class="fil14" points="1262.84,611.344 1337.68,749.121 1341.77,746.905 1266.93,609.129 "/>
  <line class="fil2" x1="1442.74" y1="566.915" x2="1258.11" y2= "660.714" />
  <polygon class="fil14" points="1441.69,564.847 1257.06,658.646 1259.16,662.782 1443.78,568.985 "/>
  <line class="fil2" x1="1422.6" y1="536.501" x2="1264.79" y2= "619.017" />
  <polygon class="fil14" points="1421.53,534.442 1263.72,616.959 1265.86,621.076 1423.68,538.559 "/>
  <line class="fil2" x1="1382.85" y1="523.342" x2="1286.7" y2= "572.188" />
  <polygon class="fil14" points="1381.8,521.274 1285.66,570.12 1287.75,574.257 1383.9,525.411 "/>
  <line class="fil2" x1="1460.41" y1="643.821" x2="1298.46" y2= "728.598" />
  <polygon class="fil14" points="1459.34,641.762 1297.38,726.54 1299.53,730.656 1461.49,645.879 "/>
  <line class="fil2" x1="1447.85" y1="691.214" x2="1341.33" y2= "746.975" />
  <polygon class="fil14" points="1446.78,689.155 1340.25,744.916 1342.4,749.033 1448.93,693.272 "/>
  <path class="fil15" d="M1297.34 571.627c28.3961,-31.5378 69.1784,-50.3032 105.135,-35.5264 36.254,14.8996 52.2213,56.3729 50.439,98.3328 -0.655512,15.4453 -3.73937,30.9508 -9.12402,45.2611 -5.31142,14.1154 -12.841,26.9764 -22.4575,37.3323 -22.0878,23.7886 -55.852,34.4988 -99.8989,16.6039 -43.9217,-17.8429 -60.4748,-48.7158 -59.6008,-80.8241 0.386221,-14.1437 4.03347,-28.5827 10.1457,-42.3426 6.2126,-13.9866 14.9374,-27.261 25.3618,-38.837zm112.148 -52.7209c-44.0788,-18.1158 -92.7461,3.41575 -125.943,40.2851 -11.7071,13.0004 -21.5173,27.9343 -28.5166,43.6926 -7.10079,15.9851 -11.341,32.8311 -11.7921,49.4185 -1.0748,39.4772 18.6862,77.1957 71.1839,98.5229 52.5969,21.3685 93.4288,8.02678 120.491,-21.1181 11.3433,-12.215 20.1473,-27.1819 26.2772,-43.4729 6.0567,-16.0961 9.52678,-33.5823 10.2673,-51.039 2.08701,-49.1067 -17.5547,-98.0363 -61.9678,-116.289z"/>
  <path class="fil16" d="M1407.27 524.288c43.6347,17.9327 60.2386,66.6001 58.3666,110.659 -0.709843,16.7303 -4.00158,33.5634 -9.90001,49.2378 -5.71654,15.1925 -14.0197,29.6351 -25.0949,41.5618 -4.98898,5.37402 -10.5224,10.2319 -16.5744,14.3788 -30.0355,20.576 -64.8567,18.5563 -97.4635,5.30906 -32.2677,-13.1091 -58.6241,-35.6729 -65.7426,-71.0386 -1.45276,-7.21536 -2.01496,-14.5819 -1.81536,-21.9354 0.442914,-16.2638 4.70906,-32.3918 11.2937,-47.2146 6.81378,-15.3402 16.2921,-29.6894 27.5232,-42.1618 29.3457,-32.5914 75.7713,-56.7296 119.407,-38.7957zm-114.26 43.4457c-10.7587,11.9469 -19.8272,25.6725 -26.3551,40.3677 -6.21497,13.9925 -10.226,29.1945 -10.6441,44.5465 -0.157087,5.76851 0.214961,11.5465 1.17638,17.237 5.79922,34.3264 30.9744,56.5111 62.0493,69.1359 16.5177,6.70985 34.3477,10.6335 52.2307,9.00591 15.0225,-1.36772 28.9536,-6.58111 41.1437,-15.4689 4.6937,-3.42284 9.02835,-7.31575 12.9791,-11.5713 10.4492,-11.2536 18.248,-24.913 23.6398,-39.2433 5.63977,-14.987 8.81221,-31.0666 9.49135,-47.0634 1.32756,-31.2673 -6.88701,-65.9953 -30.1158,-88.3288 -6.9567,-6.68859 -14.9965,-11.9634 -23.9244,-15.6319 -40.8721,-16.7977 -84.3178,6.63662 -111.671,37.0146z"/>
  <line class="fil17" x1="1193.44" y1="1021.67" x2="1193.44" y2= "1021.67" />
  <path class="fil18" d="M1258.54 933.402l-34.2024 -14.7284 -47.8689 111.161c-4.05,9.40513 0.330709,20.4154 9.73702,24.4654l0.0011811 0c9.40513,4.05 20.4142,-0.33189 24.4654,-9.73702l47.8678 -111.161z"/>
  <polygon class="fil10" points="1261.68,934.964 1272.05,869.712 1261.85,865.916 1221.04,917.463 1216.37,928.319 1257.01,945.819 "/>
  <path class="fil19" d="M1258.54 933.402l-16.7906 -7.23071 -55.2308 128.258c9.33662,3.82087 20.1473,-0.565748 24.1536,-9.86694l47.8678 -111.161z"/>
  <polygon class="fil20" points="1261.68,934.964 1272.05,869.712 1266.89,867.792 1237,937.203 1257.01,945.819 "/>
  <path class="fil4" d="M1231.94 971.541c3.52796,-0.121654 10.4445,6.70867 6.04961,15.2126 -3.38268,6.54922 -3.54685,2.20512 -11.2276,3.60591 3.6815,0.846851 28.3158,9.73229 16.7008,21.5339 -5.42126,5.50512 -7.19292,5.47678 -15.0083,4.40552 -0.511418,2.39173 16.0996,7.14331 11.1803,17.9079 -4.81063,10.5248 -23.4756,5.48386 -36.6118,2.37992 -12.0662,-2.84646 -24.2835,-6.91418 -35.1697,-10.1315 -12.0059,-3.55512 -2.90315,-33.1831 -5.27244,-44.1189 19.4103,-6.34371 47.8252,-14.6303 69.3591,-10.7953z"/>
 </g>
</svg>
