<?xml version="1.0" encoding="UTF-8"?>
<!DOCTYPE svg PUBLIC "-//W3C//DTD SVG 1.1//EN" "http://www.w3.org/Graphics/SVG/1.1/DTD/svg11.dtd">
<!-- Creator: CorelDRAW -->
<svg xmlns="http://www.w3.org/2000/svg" xml:space="preserve" width="2048px" height="2048px" style="shape-rendering:geometricPrecision; text-rendering:geometricPrecision; image-rendering:optimizeQuality; fill-rule:evenodd; clip-rule:evenodd"
viewBox="0 0 2048 2048"
 xmlns:xlink="http://www.w3.org/1999/xlink">
 <defs>
  <style type="text/css">
   <![CDATA[
    .fil2 {fill:none}
    .fil6 {fill:#DB420E}
    .fil4 {fill:#E65100}
    .fil5 {fill:#ED6B03}
    .fil3 {fill:#F57C00}
    .fil1 {fill:#FDD835}
    .fil0 {fill:#FFF176}
   ]]>
  </style>
   <clipPath id="id0">
    <path d="M1024 0c565.539,0 1024,458.461 1024,1024 0,565.539 -458.461,1024 -1024,1024 -565.539,0 -1024,-458.461 -1024,-1024 0,-565.539 458.461,-1024 1024,-1024z"/>
   </clipPath>
 </defs>
 <g id="Layer_x0020_1">
  <metadata id="CorelCorpID_0Corel-Layer"/>
  <path class="fil0" d="M1024 0c565.539,0 1024,458.461 1024,1024 0,565.539 -458.461,1024 -1024,1024 -565.539,0 -1024,-458.461 -1024,-1024 0,-565.539 458.461,-1024 1024,-1024z"/>
  <g style="clip-path:url(#id0)">
   <g id="_478224784">
    <g>
     <path id="_3807787121" class="fil1" d="M2159.88 2719.88l0 0zm-1135.88 -1135.88l0 0z"/>
     <path id="_380764720" class="fil1" d="M2159.88 1599.88l0 0zm-1135.88 -1135.88l0 0z"/>
     <polygon id="_380762488" class="fil1" points="1456.12,667.788 2592,1803.67 2608.63,1824.82 2624.24,1846.78 2638.81,1869.5 2652.29,1892.95 2664.66,1917.1 2675.87,1941.91 2685.9,1967.34 2694.7,1993.36 2702.25,2019.93 2708.5,2047.02 2713.43,2074.6 2716.99,2102.63 2719.15,2131.06 2719.88,2159.88 2719.15,2188.7 2716.99,2217.14 2713.43,2245.17 2708.5,2272.74 2702.25,2299.83 2694.7,2326.41 2685.9,2352.43 2675.87,2377.86 2664.66,2402.67 2652.29,2426.81 2638.81,2450.26 2624.24,2472.98 2608.63,2494.94 2592,2516.09 2574.4,2536.41 2555.86,2555.86 2536.41,2574.4 2516.09,2592.01 2494.94,2608.63 2472.98,2624.24 2450.26,2638.81 2426.81,2652.29 2402.67,2664.66 2377.86,2675.87 2352.43,2685.9 2326.41,2694.71 2299.83,2702.25 2272.74,2708.5 2245.16,2713.43 2217.14,2716.99 2188.7,2719.15 2159.88,2719.88 1024,1584 1052.82,1583.27 1081.26,1581.11 1109.28,1577.55 1136.86,1572.62 1163.95,1566.37 1190.53,1558.82 1216.55,1550.02 1241.98,1539.99 1266.78,1528.78 1290.93,1516.41 1314.38,1502.93 1337.1,1488.36 1359.06,1472.75 1380.21,1456.12 1400.53,1438.52 1419.98,1419.98 1438.52,1400.53 1456.12,1380.21 1472.75,1359.06 1488.36,1337.1 1502.93,1314.38 1516.41,1290.93 1528.78,1266.78 1539.99,1241.98 1550.02,1216.55 1558.82,1190.53 1566.37,1163.95 1572.62,1136.86 1577.55,1109.28 1581.11,1081.26 1583.27,1052.82 1584,1024 1583.27,995.182 1581.11,966.744 1577.55,938.717 1572.62,911.14 1566.37,884.048 1558.82,857.473 1550.02,831.453 1539.99,806.023 1528.78,781.216 1516.41,757.071 1502.93,733.62 1488.36,710.898 1472.75,688.942 "/>
     <polygon id="_380792296" class="fil1" points="1024,1584 2159.88,2719.88 2131.06,2719.15 2102.62,2716.99 2074.6,2713.43 2047.02,2708.5 2019.93,2702.25 1993.35,2694.71 1967.33,2685.9 1941.9,2675.87 1917.1,2664.66 1892.95,2652.29 1869.5,2638.81 1846.78,2624.24 1824.82,2608.63 1803.67,2592.01 667.788,1456.12 688.942,1472.75 710.898,1488.36 733.62,1502.93 757.071,1516.41 781.216,1528.78 806.023,1539.99 831.453,1550.02 857.473,1558.82 884.048,1566.37 911.14,1572.62 938.717,1577.55 966.744,1581.11 995.182,1583.27 "/>
    </g>
    <path id="_478229392" class="fil1" d="M1024 1584l0 0zm0.00236221 -1120l0 0zm-0.00236221 0c309.28,0 560,250.72 560,560 0,309.28 -250.72,560 -560,560 -309.28,0 -560,-250.72 -560,-560 0,-38.8607 3.95788,-76.7977 11.5004,-113.427 43.9819,-213.834 209.868,-383.171 421.822,-432.185 40.7055,-9.41339 83.1107,-14.3882 126.678,-14.3882z"/>
   </g>
  </g>
  <path class="fil2" d="M1024 0c565.539,0 1024,458.461 1024,1024 0,565.539 -458.461,1024 -1024,1024 -565.539,0 -1024,-458.461 -1024,-1024 0,-565.539 458.461,-1024 1024,-1024z"/>
  <circle class="fil3" cx="1024" cy="1024" r="560"/>
  <path class="fil4" d="M1377.58 589.757c23.6032,19.2461 45.6036,40.3784 65.7815,63.1654 -78.3095,-42.3296 -161.814,-74.6493 -250.79,-88.6524 -107.754,-16.9595 -213.039,-5.2004 -317.738,27.6803l-8.05158 2.52992 -0.765355 8.36812c-3.55394,38.8288 -1.18465,77.4827 6.66615,115.467 3.1689,15.3354 7.1941,30.4725 11.9669,45.3555l3.2126 10.0181 10.4634 -1.80473c140.072,-24.1453 291.678,-33.8622 430.275,-1.93819 87.4902,20.152 167.984,56.8229 236.612,114.17 3.61536,15.1453 6.59528,30.45 8.9315,45.8646 -70.0548,-67.7103 -155.353,-110.463 -252.477,-132.834 -131.271,-30.2351 -274.975,-21.6177 -407.805,0.412205l-16.1008 2.67166 6.58465 14.7461c29.824,66.8233 73.1693,128.113 120.547,183.386l4.55079 5.30906 6.96497 -1.30039c109.663,-20.4638 226.519,-24.9614 332.588,10.6453 78.0402,26.1981 142.834,71.68 195.221,134.254 -2.75197,11.2488 -5.84882,22.415 -9.27993,33.4843 -14.4413,-18.7512 -30.2327,-36.4311 -47.4555,-52.6961l-14.8016 -13.9784 -5.68465 19.8484c-29.7449,103.869 -77.3623,198.573 -146.967,281.949 -45.5032,54.5056 -98.3694,101.736 -156.33,142.58 -24.9744,8.20512 -50.4567,14.6681 -76.2343,19.3441 -2.06811,0.309449 -4.14685,0.583465 -6.22205,0.869292 81.6461,-48.0756 156.223,-106.925 217.494,-180.32 72.1583,-86.4331 119.723,-186.404 147.618,-294.679l2.12362 -8.23583 -6.88229 -4.81418c-31.265,-21.8669 -65.6752,-39.026 -101.959,-51.2079 -14.1803,-4.75985 -28.6205,-8.77442 -43.2307,-12.0886l-10.3713 -2.3504 -4.03937 9.95316c-54.2516,133.687 -126.455,272.116 -226.405,378.24 -60.3036,64.03 -130.27,115.612 -211.836,147.525 -14.3433,-4.27914 -28.454,-9.09922 -42.2918,-14.4709 90.241,-28.2012 167.411,-81.443 233.874,-152.015 95.1568,-101.037 164.355,-232.155 216.722,-359.195l6.17835 -14.9929 -15.9768 -1.82244c-72.1926,-8.25001 -146.589,-2.14488 -218.23,11.0173l-6.99804 1.28622 -2.54173 6.66142c-41.3989,108.469 -101.647,215.069 -192.076,290.766 -61.1351,51.1725 -130.504,83.7154 -207.448,98.8371 -8.05985,-7.78819 -15.8894,-15.8102 -23.4721,-24.0662 24.3402,-3.81496 48.3957,-9.4819 71.9256,-17.2181l19.5744 -6.43465 -14.4862 -14.2158c-74.1638,-72.7772 -131.191,-156.36 -167.932,-253.93 -24.254,-64.4115 -38.4709,-131.717 -45.078,-200.328 5.79095,-28.1185 13.6973,-55.467 23.5276,-81.8776 1.45158,92.902 14.9374,184.986 47.7166,272.039 38.1922,101.432 99.2835,186.755 178.417,260.12l6.16182 5.713 7.663 -3.78662c30.7016,-15.1689 59.3422,-34.0264 85.6394,-56.041 15.5717,-13.0323 30.2622,-27.0969 44.074,-41.9811l7.44449 -8.02087 -6.84095 -8.27953c-88.9512,-107.682 -172.451,-232.827 -213.642,-367.992 -25.9547,-85.1635 -34.3453,-172.381 -19.0264,-260.858 11.1626,-10.6973 22.7823,-20.9209 34.8012,-30.6697 -23.2855,94.5969 -17.6977,188.889 10.9536,282.904 39.1925,128.61 118.304,248.039 202.417,350.973l9.88229 12.091 9.5882 -12.685c43.7351,-57.8646 76.9654,-123.861 102.914,-191.167l2.66103 -6.90473 -4.75158 -5.52048c-72.4134,-84.1335 -136.854,-183.391 -159.734,-294.101 -16.6866,-80.7414 -9.79489,-159.438 18.6484,-237.298 10.9701,-3.26575 22.0654,-6.23977 33.3048,-8.84056 -8.67993,21.1725 -15.9036,42.9177 -21.326,65.1012l-4.97126 20.3374 20.1626 -5.72008c101.421,-28.7705 202.892,-37.6382 306.314,-21.3603 62.367,9.81733 122.41,28.2839 180.079,53.0091z"/>
  <path class="fil5" d="M1024 464l0.00236221 0 0 1120 -0.00236221 0c-309.28,0 -560,-250.72 -560,-560 0,-309.28 250.72,-560 560,-560z"/>
  <path class="fil6" d="M1024 560.275c-49.9867,5.29725 -99.6426,16.1209 -149.167,31.6748l-8.05158 2.52992 -0.765355 8.36812c-3.55394,38.8288 -1.18465,77.4827 6.66615,115.467 3.1689,15.3354 7.1941,30.4725 11.9669,45.3555l3.2126 10.0181 10.4634 -1.80473c41.1048,-7.08544 83.2028,-12.9248 125.675,-16.839l0 28.0488c-37.2036,3.49488 -74.0741,8.48268 -110.14,14.465l-16.1008 2.67166 6.58465 14.7461c29.6374,66.404 72.6272,127.343 119.656,182.343l0 66.2693c-40.9181,99.1867 -98.517,194.803 -181.586,264.339 -61.1351,51.1725 -130.504,83.7154 -207.448,98.8371 -8.05985,-7.78819 -15.8894,-15.8102 -23.4721,-24.0662 24.3402,-3.81496 48.3957,-9.4819 71.9256,-17.2181l19.5744 -6.43465 -14.4862 -14.2158c-74.1638,-72.7772 -131.191,-156.36 -167.932,-253.93 -24.254,-64.4115 -38.4709,-131.717 -45.078,-200.328 5.79095,-28.1185 13.6973,-55.467 23.5276,-81.8776 1.45158,92.902 14.9374,184.986 47.7166,272.039 38.1922,101.432 99.2835,186.755 178.417,260.12l6.16182 5.713 7.663 -3.78662c30.7016,-15.1689 59.3422,-34.0264 85.6394,-56.041 15.5717,-13.0323 30.2622,-27.0969 44.074,-41.9811l7.44449 -8.02087 -6.84095 -8.27953c-88.9512,-107.682 -172.451,-232.827 -213.642,-367.992 -25.9547,-85.1635 -34.3453,-172.381 -19.0264,-260.858 11.1626,-10.6973 22.7823,-20.9209 34.8012,-30.6697 -23.2855,94.5969 -17.6977,188.889 10.9536,282.904 39.1925,128.61 118.304,248.039 202.417,350.973l9.88229 12.091 9.5882 -12.685c43.7351,-57.8646 76.9654,-123.861 102.914,-191.167l2.66103 -6.90473 -4.75158 -5.52048c-72.4134,-84.1335 -136.854,-183.391 -159.734,-294.101 -16.6866,-80.7414 -9.79489,-159.438 18.6484,-237.298 10.9701,-3.26575 22.0654,-6.23977 33.3048,-8.84056 -8.67993,21.1725 -15.9036,42.9177 -21.326,65.1012l-4.97126 20.3374 20.1626 -5.72008c44.2099,-12.541 88.428,-21.3 132.815,-25.8437l0 28.011zm0 902.4c-47.7827,41.2193 -100.948,74.8182 -160.246,98.0186 -14.3433,-4.27914 -28.454,-9.09922 -42.2918,-14.4709 76.4056,-23.8784 143.438,-65.7083 202.538,-120.807l0 37.2591z"/>
 </g>
</svg>
